<?xml version="1.0" encoding="UTF-8" standalone="no"?>
<svg
   width="267"
   height="65"
   viewBox="0 0 70.643749 17.197916"
   version="1.1"
   inkscape:version="1.1.2 (0a00cf5339, 2022-02-04)"
   inkscape:export-filename="/media/georg/Data2/Sourcecode/Linux/Avantgarde-Code/hgc2.png"
   inkscape:export-xdpi="236.308"
   inkscape:export-ydpi="236.308"
   xmlns:inkscape="http://www.inkscape.org/namespaces/inkscape"
   xmlns:sodipodi="http://sodipodi.sourceforge.net/DTD/sodipodi-0.dtd"
   xmlns="http://www.w3.org/2000/svg"
   xmlns:svg="http://www.w3.org/2000/svg">
  <g
     inkscape:label="Ebene 1"
     inkscape:groupmode="layer"
     id="layer1">
    <rect
       style="opacity:1;fill:#000000;fill-opacity:1;stroke:#a6a6a6;stroke-width:0.984421;stroke-linecap:round;stroke-linejoin:round;stroke-miterlimit:4;stroke-dasharray:none;stroke-opacity:1;paint-order:stroke fill markers"
       id="rect35527"
       width="67.594177"
       height="14.308625"
       x="1.4591229"
       y="1.4446461"
       ry="1.5142375" />
    <path
       d="m 5.4426868,12.737658 v -1.801816 q -0.597114,-0.544735 -0.927098,-1.2727922 -0.329983,-0.728061 -0.329983,-1.534687 0,-1.571349 1.099945,-2.671295 1.0999455,-1.099944 2.6712965,-1.099944 1.3094568,0 2.3203587,0.769961 1.010901,0.769962 1.314696,2.006091 l 0.544735,2.147511 q 0.05237,0.199038 -0.07334,0.361409 -0.1257,0.162374 -0.335222,0.162374 h -0.838054 v 1.2570792 q 0,0.345699 -0.246179,0.591875 -0.246176,0.246179 -0.591873,0.246179 H 9.2139171 v 0.838055 H 8.3758653 V 11.061549 H 10.051972 V 8.9664158 h 1.131372 l -0.398073,-1.623728 q -0.24094,-0.953284 -1.0266149,-1.550397 -0.7856748,-0.597113 -1.8018148,-0.597113 -1.215177,0 -2.0741825,0.848529 -0.859004,0.848527 -0.859004,2.063705 0,0.62854 0.256654,1.194225 0.256653,0.565687 0.728059,1.0056652 l 0.2723685,0.251416 v 2.17894 z M 8.1035063,8.9664158 Z m -0.565686,0.838054 h 0.838053 l 0.06285,-0.523783 q 0.08381,-0.03143 0.151896,-0.07334 0.0681,-0.04191 0.120474,-0.09428 l 0.4818808,0.209515 0.419028,-0.712347 -0.419028,-0.314268 q 0.02094,-0.08381 0.02094,-0.167612 0,-0.08381 -0.02094,-0.167609 l 0.419028,-0.314272 -0.419027,-0.712343 -0.4818818,0.209512 q -0.05237,-0.05237 -0.120474,-0.09428 -0.0681,-0.04191 -0.151896,-0.07334 l -0.06285,-0.523782 h -0.838053 l -0.06285,0.523788 q -0.08381,0.03143 -0.151894,0.07334 -0.0681,0.04191 -0.120476,0.09428 l -0.48188,-0.209512 -0.419026,0.712344 0.419026,0.314271 q -0.02096,0.08381 -0.02096,0.16761 0,0.08381 0.02096,0.16761 l -0.419026,0.314271 0.419026,0.712346 0.48188,-0.209514 q 0.05237,0.05237 0.120476,0.09428 0.06808,0.04191 0.151894,0.07334 z m 0.419027,-1.047566 q -0.261893,0 -0.445217,-0.183324 -0.183323,-0.183324 -0.183323,-0.445217 0,-0.261892 0.183323,-0.445215 0.183324,-0.183325 0.445217,-0.183325 0.26189,0 0.445216,0.183325 0.183323,0.183323 0.183323,0.445215 0,0.261893 -0.183323,0.445217 -0.183326,0.183324 -0.445216,0.183324 z"
       id="path21832"
       style="fill:#ffffff;fill-opacity:1;stroke-width:0.0104757" />
    <g
       aria-label="Human Generated Content"
       id="text13328"
       style="font-size:4.99144px;line-height:1.25;font-family:NATS;-inkscape-font-specification:'NATS, Normal';letter-spacing:0px;word-spacing:0px;fill:#ffffff;stroke-width:0.124787">
      <path
         d="M 16.055759,7.7888717 V 4.9741113 h 0.313895 v 1.2247038 h 1.404807 V 4.9741113 h 0.319041 v 2.8147604 h -0.319041 v -1.301891 h -1.404807 v 1.301891 z"
         id="path828" />
      <path
         d="M 20.383384,5.6482129 V 7.7425593 H 20.095218 V 7.474977 q -0.04117,0.087479 -0.185249,0.1903951 -0.195541,0.1234996 -0.457977,0.1234996 -0.272729,0 -0.478561,-0.1080621 Q 18.834494,7.6087682 18.731578,7.4801228 18.628661,7.3514774 18.587495,7.1713739 18.546328,6.9912704 18.546328,6.8008753 V 5.6482129 h 0.298458 v 1.1526624 q 0,0.1852493 0.03087,0.3138947 0.03602,0.1234995 0.108062,0.22127 0.102917,0.092625 0.231562,0.1440828 0.108062,0.041167 0.236708,0.041167 0.133791,0 0.231561,-0.030875 0.09777,-0.036021 0.190395,-0.1286453 0.09777,-0.097771 0.144083,-0.2109784 0.0669,-0.1492286 0.0669,-0.3962277 V 5.6482129 Z"
         id="path830" />
      <path
         d="M 21.119227,5.6996711 V 5.895212 q 0.154375,-0.2469991 0.540311,-0.2469991 0.231561,0 0.411665,0.1080621 0.185249,0.1029163 0.28302,0.2675824 0.236707,-0.3756445 0.689539,-0.3756445 0.38079,0 0.612352,0.2469991 0.231561,0.2418533 0.231561,0.6586642 V 7.7940175 H 23.589218 V 6.5847511 q 0,-0.3190405 -0.138937,-0.4888523 -0.138937,-0.1749577 -0.406519,-0.1749577 -0.252145,0 -0.396228,0.1749577 -0.138937,0.1698118 -0.138937,0.4888523 V 7.7940175 H 22.21014 V 6.5847511 q 0,-0.3190405 -0.144083,-0.4888523 -0.144083,-0.1749577 -0.406519,-0.1749577 -0.246999,0 -0.396228,0.1749577 -0.144083,0.1698118 -0.144083,0.4888523 V 7.7940175 H 20.82077 V 5.6996711 Z"
         id="path832" />
      <path
         d="M 26.455431,5.6482129 V 7.7425593 H 26.151828 V 7.4235188 q -0.1235,0.1801035 -0.380791,0.2881656 -0.200686,0.077187 -0.406519,0.077187 -0.488852,0 -0.807893,-0.3190405 -0.31904,-0.3241863 -0.31904,-0.7821638 0,-0.4373942 0.308748,-0.7512889 0.313895,-0.3396237 0.818185,-0.3396237 0.216124,0 0.411665,0.077187 0.246999,0.1029163 0.370499,0.2933114 l 0.0051,-0.3190405 z m -1.919389,1.054892 q 0,0.3447695 0.226416,0.581477 0.231561,0.2367074 0.60206,0.2367074 0.329332,0 0.56604,-0.2367074 0.236707,-0.2367075 0.236707,-0.5866229 0,-0.3344779 -0.236707,-0.581477 -0.231562,-0.2469991 -0.56604,-0.2469991 -0.34477,0 -0.586623,0.2315617 -0.241853,0.2315616 -0.241853,0.6020603 z"
         id="path834" />
      <path
         d="M 26.867091,7.7888717 V 5.6945253 h 0.298457 v 0.2315616 q 0.0566,-0.087479 0.190395,-0.1646661 0.190395,-0.1183537 0.432249,-0.1183537 0.210978,0 0.360207,0.06175 0.154374,0.056604 0.298457,0.2006867 0.133791,0.113208 0.200687,0.3036031 0.0669,0.1903951 0.0669,0.4271026 V 7.7888717 H 28.410835 V 6.6362093 q 0,-0.195541 -0.05146,-0.3241863 -0.04631,-0.1286454 -0.133791,-0.2161242 -0.08748,-0.092625 -0.216124,-0.1337912 -0.1235,-0.046312 -0.22127,-0.046312 -0.108062,0 -0.22127,0.041167 -0.113208,0.041167 -0.216125,0.1286453 -0.07719,0.087479 -0.133791,0.2212701 -0.05146,0.1337911 -0.05146,0.3138946 v 1.1680999 z"
         id="path836" />
      <path
         d="m 31.15355,6.476689 h 1.92968 q 0,0.6123519 -0.488852,1.0085796 -0.44254,0.3499154 -1.003434,0.3499154 -0.627789,0 -1.070329,-0.4322484 -0.44254,-0.4322484 -0.44254,-1.024017 0,-0.5711854 0.421957,-0.998288 0.427102,-0.4631233 1.085767,-0.4631233 0.509435,0 0.910809,0.2933114 0.31904,0.2418533 0.432248,0.5351647 H 32.563503 Q 32.440004,5.5144218 32.193005,5.370339 31.904839,5.2108187 31.590944,5.2108187 q -0.509435,0 -0.854205,0.3550612 -0.344769,0.3499154 -0.344769,0.8233303 0,0.4682691 0.334478,0.8130386 0.355061,0.3550612 0.874788,0.3550612 0.406519,0 0.740997,-0.2727281 0.288166,-0.2264159 0.355061,-0.5197273 H 31.15355 Z"
         id="path838" />
      <path
         d="M 35.517196,6.811167 H 33.64412 q 0,0.2675823 0.241853,0.4888523 0.241853,0.22127 0.535165,0.22127 0.262436,0 0.468269,-0.1440828 Q 35.06951,7.253707 35.146698,7.032437 h 0.313894 q -0.118353,0.3447695 -0.396227,0.5506021 -0.277874,0.2058326 -0.643227,0.2058326 -0.44254,0 -0.766727,-0.3138947 -0.31904,-0.3138947 -0.31904,-0.777018 0,-0.4476858 0.31904,-0.7718721 0.319041,-0.3293321 0.766727,-0.3293321 0.324186,0 0.586623,0.164666 0.216124,0.1492287 0.349915,0.3704987 0.08233,0.1286453 0.1235,0.2881656 0.04117,0.1543744 0.04117,0.2984572 z M 33.64412,6.533293 h 1.564327 Q 35.156989,6.2245441 34.90999,6.034149 34.693866,5.8694829 34.421138,5.8694829 q -0.257291,0 -0.478561,0.1646661 -0.246999,0.1955409 -0.298457,0.499144 z"
         id="path840" />
      <path
         d="M 35.851669,7.7888717 V 5.6945253 h 0.298457 v 0.2315616 q 0.0566,-0.087479 0.190395,-0.1646661 0.190396,-0.1183537 0.432249,-0.1183537 0.210978,0 0.360207,0.06175 0.154374,0.056604 0.298457,0.2006867 0.133791,0.113208 0.200687,0.3036031 0.0669,0.1903951 0.0669,0.4271026 V 7.7888717 H 37.395413 V 6.6362093 q 0,-0.195541 -0.05146,-0.3241863 -0.04631,-0.1286454 -0.133791,-0.2161242 -0.08748,-0.092625 -0.216124,-0.1337912 -0.1235,-0.046312 -0.22127,-0.046312 -0.108062,0 -0.22127,0.041167 -0.113208,0.041167 -0.216124,0.1286453 -0.07719,0.087479 -0.133792,0.2212701 -0.05146,0.1337911 -0.05146,0.3138946 v 1.1680999 z"
         id="path842" />
      <path
         d="m 40.21017,6.811167 h -1.873076 q 0,0.2675823 0.241853,0.4888523 0.241853,0.22127 0.535165,0.22127 0.262436,0 0.468269,-0.1440828 0.180103,-0.1234995 0.257291,-0.3447695 h 0.313894 q -0.118353,0.3447695 -0.396227,0.5506021 -0.277874,0.2058326 -0.643227,0.2058326 -0.44254,0 -0.766726,-0.3138947 -0.319041,-0.3138947 -0.319041,-0.777018 0,-0.4476858 0.319041,-0.7718721 0.31904,-0.3293321 0.766726,-0.3293321 0.324186,0 0.586623,0.164666 0.216124,0.1492287 0.349915,0.3704987 0.08233,0.1286453 0.1235,0.2881656 0.04117,0.1543744 0.04117,0.2984572 z M 38.337094,6.533293 h 1.564327 Q 39.849963,6.2245441 39.602964,6.034149 39.38684,5.8694829 39.114112,5.8694829 q -0.257291,0 -0.478561,0.1646661 -0.246999,0.1955409 -0.298457,0.499144 z"
         id="path844" />
      <path
         d="M 40.544645,7.7888717 V 5.6945253 h 0.298457 v 0.2367074 q 0.0566,-0.1234995 0.231562,-0.22127 0.144083,-0.066896 0.355061,-0.066896 v 0.3138947 q -0.149228,0 -0.262436,0.056604 -0.108062,0.051458 -0.180104,0.138937 -0.144083,0.1852493 -0.144083,0.416811 v 1.219558 z"
         id="path846" />
      <path
         d="M 43.786501,5.6482129 V 7.7425593 H 43.482897 V 7.4235188 q -0.123499,0.1801035 -0.38079,0.2881656 -0.200687,0.077187 -0.406519,0.077187 -0.488852,0 -0.807893,-0.3190405 -0.31904,-0.3241863 -0.31904,-0.7821638 0,-0.4373942 0.308748,-0.7512889 0.313895,-0.3396237 0.818185,-0.3396237 0.216124,0 0.411665,0.077187 0.246999,0.1029163 0.370499,0.2933114 l 0.0051,-0.3190405 z m -1.919389,1.054892 q 0,0.3447695 0.226416,0.581477 0.231561,0.2367074 0.60206,0.2367074 0.329332,0 0.566039,-0.2367074 0.236708,-0.2367075 0.236708,-0.5866229 0,-0.3344779 -0.236708,-0.581477 -0.231561,-0.2469991 -0.566039,-0.2469991 -0.34477,0 -0.586623,0.2315617 -0.241853,0.2315616 -0.241853,0.6020603 z"
         id="path848" />
      <path
         d="M 44.450305,7.7888717 V 5.9723992 H 44.012911 V 5.6945253 h 0.437394 v -0.720414 h 0.298457 v 0.720414 h 0.488852 v 0.2778739 h -0.488852 v 1.8164725 z"
         id="path850" />
      <path
         d="m 47.537788,6.811167 h -1.873076 q 0,0.2675823 0.241853,0.4888523 0.241853,0.22127 0.535165,0.22127 0.262436,0 0.468269,-0.1440828 0.180103,-0.1234995 0.25729,-0.3447695 h 0.313895 q -0.118354,0.3447695 -0.396228,0.5506021 -0.277874,0.2058326 -0.643226,0.2058326 -0.44254,0 -0.766727,-0.3138947 -0.31904,-0.3138947 -0.31904,-0.777018 0,-0.4476858 0.31904,-0.7718721 0.319041,-0.3293321 0.766727,-0.3293321 0.324186,0 0.586622,0.164666 0.216125,0.1492287 0.349916,0.3704987 0.08233,0.1286453 0.123499,0.2881656 0.04117,0.1543744 0.04117,0.2984572 z M 45.664712,6.533293 h 1.564327 Q 47.177581,6.2245441 46.930582,6.034149 46.714458,5.8694829 46.44173,5.8694829 q -0.257291,0 -0.478561,0.1646661 -0.246999,0.1955409 -0.298457,0.499144 z"
         id="path852" />
      <path
         d="M 49.997482,4.9277989 V 7.7477051 H 49.693879 V 7.4286647 q -0.123499,0.1801035 -0.375644,0.2830197 -0.216125,0.082333 -0.411666,0.082333 -0.488852,0 -0.807892,-0.3190405 -0.319041,-0.3190405 -0.319041,-0.777018 0,-0.44254 0.308749,-0.7564347 0.313895,-0.3396237 0.818184,-0.3396237 0.216125,0 0.411666,0.082333 0.246999,0.1029163 0.370498,0.2881656 l 0.0051,-1.0446003 z m -1.919389,1.7804518 q 0,0.3396237 0.226416,0.581477 0.231562,0.2367074 0.60206,0.2367074 0.329333,0 0.56604,-0.2367074 0.236708,-0.2367075 0.236708,-0.5866228 0,-0.3396238 -0.236708,-0.5814771 -0.231562,-0.246999 -0.56604,-0.246999 -0.344769,0 -0.586622,0.2315616 -0.241854,0.2315616 -0.241854,0.6020603 z"
         id="path854" />
      <path
         d="m 53.800232,7.0272911 h 0.349915 q -0.226416,0.4116652 -0.60206,0.6277894 -0.329332,0.1801035 -0.710122,0.1801035 -0.596915,0 -1.034309,-0.416811 -0.437394,-0.4168109 -0.437394,-1.0291628 0,-0.6226435 0.427102,-1.0394545 0.432249,-0.4219568 1.044601,-0.4219568 0.483706,0 0.869642,0.2830198 0.313895,0.2264158 0.427103,0.5094356 h -0.34477 q -0.200686,-0.2984572 -0.530019,-0.4219567 -0.216124,-0.082333 -0.427102,-0.082333 -0.473415,0 -0.813039,0.3550612 -0.339624,0.3499154 -0.339624,0.8181845 0,0.4734149 0.349916,0.8233303 0.355061,0.3447695 0.807893,0.3447695 0.277874,0 0.524873,-0.138937 0.252145,-0.138937 0.437394,-0.3910819 z"
         id="path856" />
      <path
         d="m 54.397138,6.7133965 q 0,-0.4888524 0.339624,-0.8078929 0.31904,-0.3087488 0.746143,-0.3087488 0.457977,0 0.777018,0.3293321 0.324186,0.3293321 0.324186,0.7615805 0,0.44254 -0.31904,0.7718721 -0.313895,0.3293322 -0.782164,0.3293322 -0.44254,0 -0.766726,-0.3241863 -0.319041,-0.3241863 -0.319041,-0.7512889 z m 0.298457,-0.00515 q 0,0.3396237 0.236708,0.5763312 0.241853,0.2367074 0.560894,0.2367074 0.308748,0 0.545456,-0.2161242 0.246999,-0.2469991 0.246999,-0.6226435 0,-0.3704986 -0.262437,-0.5969145 -0.241853,-0.2161242 -0.530018,-0.2161242 -0.303603,0 -0.535165,0.2109784 -0.262437,0.2521449 -0.262437,0.6277894 z"
         id="path858" />
      <path
         d="M 56.923731,7.7888717 V 5.6945253 h 0.298457 v 0.2315616 q 0.0566,-0.087479 0.190395,-0.1646661 0.190395,-0.1183537 0.432248,-0.1183537 0.210979,0 0.360207,0.06175 0.154375,0.056604 0.298458,0.2006867 0.133791,0.113208 0.200686,0.3036031 0.0669,0.1903951 0.0669,0.4271026 V 7.7888717 H 58.467475 V 6.6362093 q 0,-0.195541 -0.05146,-0.3241863 -0.04631,-0.1286454 -0.133791,-0.2161242 -0.08748,-0.092625 -0.216125,-0.1337912 -0.123499,-0.046312 -0.22127,-0.046312 -0.108062,0 -0.22127,0.041167 -0.113208,0.041167 -0.216124,0.1286453 -0.07719,0.087479 -0.133791,0.2212701 -0.05146,0.1337911 -0.05146,0.3138946 v 1.1680999 z"
         id="path860" />
      <path
         d="M 59.45032,7.7888717 V 5.9723992 H 59.012926 V 5.6945253 h 0.437394 v -0.720414 h 0.298457 v 0.720414 h 0.488853 v 0.2778739 h -0.488853 v 1.8164725 z"
         id="path862" />
      <path
         d="m 62.537803,6.811167 h -1.873076 q 0,0.2675823 0.241853,0.4888523 0.241853,0.22127 0.535165,0.22127 0.262436,0 0.468269,-0.1440828 0.180103,-0.1234995 0.257291,-0.3447695 h 0.313894 q -0.118353,0.3447695 -0.396227,0.5506021 -0.277874,0.2058326 -0.643227,0.2058326 -0.44254,0 -0.766727,-0.3138947 -0.31904,-0.3138947 -0.31904,-0.777018 0,-0.4476858 0.31904,-0.7718721 0.319041,-0.3293321 0.766727,-0.3293321 0.324186,0 0.586623,0.164666 0.216124,0.1492287 0.349915,0.3704987 0.08233,0.1286453 0.1235,0.2881656 0.04117,0.1543744 0.04117,0.2984572 z M 60.664727,6.533293 h 1.564327 Q 62.177596,6.2245441 61.930597,6.034149 61.714473,5.8694829 61.441745,5.8694829 q -0.257291,0 -0.478561,0.1646661 -0.246999,0.1955409 -0.298457,0.499144 z"
         id="path864" />
      <path
         d="M 62.872274,7.7888717 V 5.6945253 h 0.298457 v 0.2315616 q 0.0566,-0.087479 0.190396,-0.1646661 0.190395,-0.1183537 0.432248,-0.1183537 0.210978,0 0.360207,0.06175 0.154374,0.056604 0.298457,0.2006867 0.133791,0.113208 0.200687,0.3036031 0.0669,0.1903951 0.0669,0.4271026 V 7.7888717 H 64.416018 V 6.6362093 q 0,-0.195541 -0.05146,-0.3241863 -0.04631,-0.1286454 -0.133791,-0.2161242 -0.08748,-0.092625 -0.216124,-0.1337912 -0.1235,-0.046312 -0.22127,-0.046312 -0.108062,0 -0.22127,0.041167 -0.113208,0.041167 -0.216124,0.1286453 -0.07719,0.087479 -0.133791,0.2212701 -0.05146,0.1337911 -0.05146,0.3138946 v 1.1680999 z"
         id="path866" />
      <path
         d="M 65.398867,7.7888717 V 5.9723992 H 64.961473 V 5.6945253 h 0.437394 v -0.720414 h 0.298458 v 0.720414 h 0.488852 v 0.2778739 h -0.488852 v 1.8164725 z"
         id="path868" />
    </g>
    <g
       aria-label="Handmade by natural intelligence"
       id="text13328-0"
       style="font-size:5.56732px;line-height:1.25;font-family:NATS;-inkscape-font-specification:'NATS, Normal';letter-spacing:0px;word-spacing:0px;opacity:0.750016;fill:#a6a6a6;stroke-width:0.139184">
      <path
         d="M 16.076014,12.246546 V 9.9566571 h 0.255362 v 0.9963319 h 1.142851 V 9.9566571 h 0.259549 V 12.246546 H 17.474227 V 11.18742 h -1.142851 v 1.059126 z"
         style="font-size:4.06068px"
         id="path889" />
      <path
         d="m 19.839464,10.505058 v 1.703811 h -0.246989 v -0.259548 q -0.100471,0.146519 -0.309784,0.234431 -0.163265,0.06279 -0.330715,0.06279 -0.397696,0 -0.657244,-0.259549 -0.259549,-0.263735 -0.259549,-0.636313 0,-0.355832 0.251176,-0.611195 0.255362,-0.276293 0.665617,-0.276293 0.175823,0 0.334901,0.06279 0.200941,0.08372 0.301411,0.238617 l 0.0042,-0.259549 z m -1.561478,0.858185 q 0,0.28048 0.184196,0.473048 0.188382,0.192569 0.489794,0.192569 0.267921,0 0.460489,-0.192569 0.192568,-0.192568 0.192568,-0.477234 0,-0.272108 -0.192568,-0.473048 -0.188382,-0.200941 -0.460489,-0.200941 -0.28048,0 -0.477235,0.188382 -0.196755,0.188382 -0.196755,0.489793 z"
         style="font-size:4.06068px"
         id="path891" />
      <path
         d="m 20.174362,12.246546 v -1.703811 h 0.242803 v 0.188382 q 0.04605,-0.07117 0.154892,-0.133961 0.154892,-0.09628 0.351647,-0.09628 0.171637,0 0.293038,0.05024 0.125588,0.04605 0.242804,0.163265 0.108843,0.0921 0.163264,0.246989 0.05442,0.154892 0.05442,0.347461 v 0.937724 h -0.24699 v -0.937724 q 0,-0.159079 -0.04186,-0.263735 -0.03768,-0.104657 -0.108843,-0.175824 -0.07117,-0.07535 -0.175823,-0.108842 -0.10047,-0.03768 -0.180009,-0.03768 -0.08791,0 -0.18001,0.03349 -0.0921,0.03349 -0.175823,0.104657 -0.06279,0.07117 -0.108843,0.180009 -0.04186,0.108843 -0.04186,0.255363 v 0.950283 z"
         style="font-size:4.06068px"
         id="path893" />
      <path
         d="m 23.753618,9.9189807 v 2.2940753 h -0.24699 v -0.259549 q -0.10047,0.146519 -0.305597,0.230245 -0.175824,0.06698 -0.334902,0.06698 -0.397695,0 -0.657244,-0.259549 -0.259549,-0.259548 -0.259549,-0.632126 0,-0.360019 0.251176,-0.615382 0.255363,-0.276293 0.665617,-0.276293 0.175823,0 0.334902,0.06698 0.20094,0.08372 0.301411,0.234431 l 0.0042,-0.8498123 z M 22.19214,11.367429 q 0,0.276294 0.184196,0.473049 0.188382,0.192568 0.489793,0.192568 0.267921,0 0.46049,-0.192568 0.192568,-0.192569 0.192568,-0.477235 0,-0.276294 -0.192568,-0.473048 -0.188383,-0.200941 -0.46049,-0.200941 -0.28048,0 -0.477234,0.188382 -0.196755,0.188382 -0.196755,0.489793 z"
         style="font-size:4.06068px"
         id="path895" />
      <path
         d="m 24.343877,10.546921 v 0.159078 q 0.125588,-0.200941 0.439558,-0.200941 0.188382,0 0.334902,0.08791 0.150706,0.08373 0.230245,0.217686 0.192568,-0.305598 0.56096,-0.305598 0.309783,0 0.498165,0.200941 0.188382,0.196755 0.188382,0.535842 v 1.008891 h -0.242803 v -0.983773 q 0,-0.259549 -0.113029,-0.397696 -0.11303,-0.142333 -0.330715,-0.142333 -0.205128,0 -0.322343,0.142333 -0.113029,0.138147 -0.113029,0.397696 v 0.983773 h -0.242804 v -0.983773 q 0,-0.259549 -0.117215,-0.397696 -0.117216,-0.142333 -0.330716,-0.142333 -0.20094,0 -0.322342,0.142333 -0.117216,0.138147 -0.117216,0.397696 v 0.983773 h -0.242803 v -1.703811 z"
         style="font-size:4.06068px"
         id="path897" />
      <path
         d="m 28.685033,10.505058 v 1.703811 h -0.24699 v -0.259548 q -0.10047,0.146519 -0.309784,0.234431 -0.163264,0.06279 -0.330715,0.06279 -0.397695,0 -0.657244,-0.259549 -0.259548,-0.263735 -0.259548,-0.636313 0,-0.355832 0.251176,-0.611195 0.255362,-0.276293 0.665616,-0.276293 0.175824,0 0.334902,0.06279 0.200941,0.08372 0.301411,0.238617 l 0.0042,-0.259549 z m -1.561478,0.858185 q 0,0.28048 0.184196,0.473048 0.188382,0.192569 0.489793,0.192569 0.267921,0 0.46049,-0.192569 0.192568,-0.192568 0.192568,-0.477234 0,-0.272108 -0.192568,-0.473048 -0.188382,-0.200941 -0.46049,-0.200941 -0.28048,0 -0.477234,0.188382 -0.196755,0.188382 -0.196755,0.489793 z"
         style="font-size:4.06068px"
         id="path899" />
      <path
         d="m 30.748859,9.9189807 v 2.2940753 h -0.24699 v -0.259549 q -0.10047,0.146519 -0.305597,0.230245 -0.175824,0.06698 -0.334902,0.06698 -0.397695,0 -0.657244,-0.259549 -0.259548,-0.259548 -0.259548,-0.632126 0,-0.360019 0.251176,-0.615382 0.255362,-0.276293 0.665616,-0.276293 0.175823,0 0.334902,0.06698 0.200941,0.08372 0.301411,0.234431 l 0.0042,-0.8498123 z m -1.561478,1.4484483 q 0,0.276294 0.184196,0.473049 0.188382,0.192568 0.489793,0.192568 0.267921,0 0.46049,-0.192568 0.192568,-0.192569 0.192568,-0.477235 0,-0.276294 -0.192568,-0.473048 -0.188382,-0.200941 -0.46049,-0.200941 -0.28048,0 -0.477234,0.188382 -0.196755,0.188382 -0.196755,0.489793 z"
         style="font-size:4.06068px"
         id="path901" />
      <path
         d="m 32.791753,11.451155 h -1.523801 q 0,0.217686 0.196755,0.397695 0.196754,0.18001 0.435371,0.18001 0.2135,0 0.380951,-0.117216 0.146519,-0.10047 0.209313,-0.28048 h 0.255363 q -0.09629,0.28048 -0.322343,0.447931 -0.226059,0.167451 -0.523284,0.167451 -0.360019,0 -0.623754,-0.255363 -0.259548,-0.255362 -0.259548,-0.632126 0,-0.364205 0.259548,-0.62794 0.259549,-0.267921 0.623754,-0.267921 0.263735,0 0.477235,0.13396 0.175823,0.121402 0.284666,0.301411 0.06698,0.104657 0.100471,0.234431 0.03349,0.125588 0.03349,0.242804 z m -1.523801,-0.226059 h 1.272625 q -0.04186,-0.251176 -0.242803,-0.406068 -0.175823,-0.13396 -0.397696,-0.13396 -0.209313,0 -0.389323,0.13396 -0.20094,0.159078 -0.242803,0.406068 z"
         style="font-size:4.06068px"
         id="path903" />
      <path
         d="M 33.909483,12.208869 V 9.9106081 h 0.242804 v 0.8581849 q 0.108843,-0.150706 0.31397,-0.234431 0.163264,-0.07117 0.326529,-0.07117 0.406068,0 0.669803,0.276293 0.251176,0.255363 0.251176,0.611195 0,0.380951 -0.259549,0.640499 -0.259548,0.255363 -0.66143,0.255363 -0.163265,0 -0.322343,-0.06279 -0.209313,-0.08791 -0.309784,-0.238618 l -0.0084,0.263735 z m 1.557292,-0.845626 q 0,-0.301411 -0.196755,-0.489793 -0.196754,-0.188382 -0.477234,-0.188382 -0.276294,0 -0.464676,0.200941 -0.184196,0.196754 -0.184196,0.473048 0,0.284666 0.188382,0.477234 0.192569,0.192569 0.46049,0.192569 0.297225,0 0.485607,-0.192569 0.188382,-0.192568 0.188382,-0.473048 z"
         style="font-size:4.06068px"
         id="path905" />
      <path
         d="m 36.17425,12.874486 0.301411,-0.657244 -0.66143,-1.636831 h 0.259549 l 0.519097,1.314488 0.565146,-1.314488 h 0.251176 l -0.979587,2.294075 z"
         style="font-size:4.06068px"
         id="path907" />
      <path
         d="m 38.426456,12.246546 v -1.703811 h 0.242804 v 0.188382 q 0.04605,-0.07117 0.154891,-0.133961 0.154892,-0.09628 0.351647,-0.09628 0.171637,0 0.293039,0.05024 0.125588,0.04605 0.242803,0.163265 0.108843,0.0921 0.163265,0.246989 0.05442,0.154892 0.05442,0.347461 v 0.937724 h -0.24699 v -0.937724 q 0,-0.159079 -0.04186,-0.263735 -0.03768,-0.104657 -0.108843,-0.175824 -0.07117,-0.07535 -0.175824,-0.108842 -0.10047,-0.03768 -0.180009,-0.03768 -0.08791,0 -0.18001,0.03349 -0.0921,0.03349 -0.175823,0.104657 -0.06279,0.07117 -0.108843,0.180009 -0.04186,0.108843 -0.04186,0.255363 v 0.950283 z"
         style="font-size:4.06068px"
         id="path909" />
      <path
         d="m 42.009897,10.505058 v 1.703811 h -0.246989 v -0.259548 q -0.100471,0.146519 -0.309784,0.234431 -0.163265,0.06279 -0.330715,0.06279 -0.397696,0 -0.657244,-0.259549 -0.259549,-0.263735 -0.259549,-0.636313 0,-0.355832 0.251176,-0.611195 0.255362,-0.276293 0.665617,-0.276293 0.175823,0 0.334901,0.06279 0.200941,0.08372 0.301411,0.238617 l 0.0042,-0.259549 z m -1.561477,0.858185 q 0,0.28048 0.184195,0.473048 0.188382,0.192569 0.489794,0.192569 0.267921,0 0.460489,-0.192569 0.192568,-0.192568 0.192568,-0.477234 0,-0.272108 -0.192568,-0.473048 -0.188382,-0.200941 -0.460489,-0.200941 -0.28048,0 -0.477235,0.188382 -0.196754,0.188382 -0.196754,0.489793 z"
         style="font-size:4.06068px"
         id="path911" />
      <path
         d="m 42.549922,12.246546 v -1.477753 h -0.355833 v -0.226058 h 0.355833 V 9.9566571 h 0.242803 v 0.5860779 h 0.397696 v 0.226058 h -0.397696 v 1.477753 z"
         style="font-size:4.06068px"
         id="path913" />
      <path
         d="m 44.85655,10.505058 v 1.703811 h -0.234431 v -0.217686 q -0.03349,0.07117 -0.150705,0.154892 -0.159078,0.100471 -0.372578,0.100471 -0.221872,0 -0.389323,-0.08791 -0.113029,-0.05861 -0.196755,-0.163264 -0.08373,-0.104657 -0.117215,-0.251177 -0.03349,-0.146519 -0.03349,-0.301411 v -0.937724 h 0.242803 v 0.937724 q 0,0.150706 0.02512,0.255363 0.0293,0.10047 0.08791,0.180009 0.08373,0.07535 0.188382,0.117216 0.08791,0.03349 0.192568,0.03349 0.108843,0 0.188382,-0.02512 0.07954,-0.0293 0.154892,-0.104657 0.07954,-0.07954 0.117215,-0.171637 0.05442,-0.121401 0.05442,-0.322342 v -0.900048 z"
         style="font-size:4.06068px"
         id="path915" />
      <path
         d="m 45.212375,12.246546 v -1.703811 h 0.242804 v 0.192568 q 0.04605,-0.100471 0.188382,-0.18001 0.117215,-0.05442 0.288852,-0.05442 v 0.255362 q -0.121401,0 -0.213499,0.04605 -0.08791,0.04186 -0.14652,0.113029 -0.117215,0.150706 -0.117215,0.339088 v 0.992146 z"
         style="font-size:4.06068px"
         id="path917" />
      <path
         d="m 47.84972,10.505058 v 1.703811 h -0.24699 v -0.259548 q -0.10047,0.146519 -0.309783,0.234431 -0.163265,0.06279 -0.330716,0.06279 -0.397695,0 -0.657244,-0.259549 -0.259548,-0.263735 -0.259548,-0.636313 0,-0.355832 0.251176,-0.611195 0.255362,-0.276293 0.665616,-0.276293 0.175824,0 0.334902,0.06279 0.200941,0.08372 0.301411,0.238617 l 0.0042,-0.259549 z m -1.561478,0.858185 q 0,0.28048 0.184196,0.473048 0.188382,0.192569 0.489793,0.192569 0.267922,0 0.46049,-0.192569 0.192568,-0.192568 0.192568,-0.477234 0,-0.272108 -0.192568,-0.473048 -0.188382,-0.200941 -0.46049,-0.200941 -0.28048,0 -0.477234,0.188382 -0.196755,0.188382 -0.196755,0.489793 z"
         style="font-size:4.06068px"
         id="path919" />
      <path
         d="M 48.184616,12.246546 V 9.9566571 h 0.242803 v 2.2898889 z"
         style="font-size:4.06068px"
         id="path921" />
      <path
         d="m 49.616313,12.242359 v -1.703811 h 0.242804 v 1.703811 z m 0,-1.875448 V 9.9524708 h 0.242804 v 0.4144402 z"
         style="font-size:4.06068px"
         id="path923" />
      <path
         d="m 50.214942,12.246546 v -1.703811 h 0.242804 v 0.188382 q 0.04605,-0.07117 0.154892,-0.133961 0.154892,-0.09628 0.351646,-0.09628 0.171637,0 0.293039,0.05024 0.125588,0.04605 0.242804,0.163265 0.108843,0.0921 0.163264,0.246989 0.05442,0.154892 0.05442,0.347461 v 0.937724 h -0.24699 v -0.937724 q 0,-0.159079 -0.04186,-0.263735 -0.03768,-0.104657 -0.108843,-0.175824 -0.07117,-0.07535 -0.175823,-0.108842 -0.10047,-0.03768 -0.18001,-0.03768 -0.08791,0 -0.180009,0.03349 -0.0921,0.03349 -0.175823,0.104657 -0.06279,0.07117 -0.108843,0.180009 -0.04186,0.108843 -0.04186,0.255363 v 0.950283 z"
         style="font-size:4.06068px"
         id="path925" />
      <path
         d="m 52.270396,12.246546 v -1.477753 h -0.355833 v -0.226058 h 0.355833 V 9.9566571 H 52.5132 v 0.5860779 h 0.397695 v 0.226058 H 52.5132 v 1.477753 z"
         style="font-size:4.06068px"
         id="path927" />
      <path
         d="m 54.78215,11.451155 h -1.523802 q 0,0.217686 0.196755,0.397695 0.196755,0.18001 0.435372,0.18001 0.2135,0 0.38095,-0.117216 0.14652,-0.10047 0.209314,-0.28048 h 0.255362 q -0.09628,0.28048 -0.322343,0.447931 -0.226058,0.167451 -0.523283,0.167451 -0.360019,0 -0.623754,-0.255363 -0.259549,-0.255362 -0.259549,-0.632126 0,-0.364205 0.259549,-0.62794 0.259549,-0.267921 0.623754,-0.267921 0.263735,0 0.477234,0.13396 0.175824,0.121402 0.284667,0.301411 0.06698,0.104657 0.10047,0.234431 0.03349,0.125588 0.03349,0.242804 z m -1.523802,-0.226059 h 1.272626 q -0.04186,-0.251176 -0.242804,-0.406068 -0.175823,-0.13396 -0.397695,-0.13396 -0.209314,0 -0.389323,0.13396 -0.200941,0.159078 -0.242804,0.406068 z"
         style="font-size:4.06068px"
         id="path929" />
      <path
         d="M 55.054256,12.246546 V 9.9566571 h 0.242804 v 2.2898889 z"
         style="font-size:4.06068px"
         id="path931" />
      <path
         d="M 55.652885,12.246546 V 9.9566571 h 0.242804 v 2.2898889 z"
         style="font-size:4.06068px"
         id="path933" />
      <path
         d="m 56.251514,12.242359 v -1.703811 h 0.242804 v 1.703811 z m 0,-1.875448 V 9.9524708 h 0.242804 v 0.4144402 z"
         style="font-size:4.06068px"
         id="path935" />
      <path
         d="m 58.537209,10.500872 v 1.431704 q 0,0.196754 -0.02093,0.293038 -0.0293,0.184196 -0.138147,0.326529 -0.104657,0.14652 -0.293039,0.226059 -0.184196,0.08372 -0.376764,0.08372 -0.263735,0 -0.468862,-0.108843 -0.305598,-0.163264 -0.410254,-0.535842 h 0.255362 q 0.06698,0.16745 0.18001,0.272107 0.175823,0.150706 0.439558,0.150706 0.234431,0 0.397695,-0.133961 0.192568,-0.159078 0.192568,-0.473048 v -0.09628 q -0.07535,0.129774 -0.259548,0.226058 -0.175823,0.07954 -0.376764,0.07954 -0.355833,0 -0.611195,-0.238617 -0.28048,-0.251176 -0.28048,-0.640499 0,-0.389323 0.28048,-0.648871 0.255362,-0.255363 0.611195,-0.255363 0.163264,0 0.31397,0.05861 0.209313,0.08791 0.31397,0.255362 l 0.0084,-0.272107 z m -1.527988,0.849812 q 0,0.276294 0.184196,0.477235 0.184196,0.196754 0.464676,0.196754 0.297225,0 0.481421,-0.226058 0.163264,-0.200941 0.163264,-0.447931 0,-0.267921 -0.188382,-0.468862 -0.184196,-0.200941 -0.456303,-0.200941 -0.276294,0 -0.464676,0.200941 -0.184196,0.200941 -0.184196,0.468862 z"
         style="font-size:4.06068px"
         id="path937" />
      <path
         d="m 60.588474,11.451155 h -1.523802 q 0,0.217686 0.196755,0.397695 0.196755,0.18001 0.435372,0.18001 0.2135,0 0.38095,-0.117216 0.14652,-0.10047 0.209314,-0.28048 h 0.255362 q -0.09628,0.28048 -0.322343,0.447931 -0.226058,0.167451 -0.523283,0.167451 -0.360019,0 -0.623754,-0.255363 -0.259549,-0.255362 -0.259549,-0.632126 0,-0.364205 0.259549,-0.62794 0.259549,-0.267921 0.623754,-0.267921 0.263735,0 0.477234,0.13396 0.175824,0.121402 0.284667,0.301411 0.06698,0.104657 0.10047,0.234431 0.03349,0.125588 0.03349,0.242804 z m -1.523802,-0.226059 h 1.272626 q -0.04186,-0.251176 -0.242804,-0.406068 -0.175823,-0.13396 -0.397695,-0.13396 -0.209314,0 -0.389323,0.13396 -0.200941,0.159078 -0.242804,0.406068 z"
         style="font-size:4.06068px"
         id="path939" />
      <path
         d="m 60.86058,12.246546 v -1.703811 h 0.242804 v 0.188382 q 0.04605,-0.07117 0.154891,-0.133961 0.154892,-0.09628 0.351647,-0.09628 0.171637,0 0.293039,0.05024 0.125588,0.04605 0.242803,0.163265 0.108843,0.0921 0.163265,0.246989 0.05442,0.154892 0.05442,0.347461 v 0.937724 h -0.24699 v -0.937724 q 0,-0.159079 -0.04186,-0.263735 -0.03768,-0.104657 -0.108843,-0.175824 -0.07117,-0.07535 -0.175824,-0.108842 -0.10047,-0.03768 -0.180009,-0.03768 -0.08791,0 -0.18001,0.03349 -0.0921,0.03349 -0.175823,0.104657 -0.06279,0.07117 -0.108843,0.180009 -0.04186,0.108843 -0.04186,0.255363 v 0.950283 z"
         style="font-size:4.06068px"
         id="path941" />
      <path
         d="m 64.146796,11.689772 h 0.263735 q -0.117215,0.238617 -0.28048,0.372578 -0.238617,0.188382 -0.573518,0.188382 -0.39351,0 -0.657244,-0.255362 -0.259549,-0.259549 -0.259549,-0.632127 0,-0.364205 0.267921,-0.62794 0.267921,-0.267921 0.648872,-0.267921 0.251176,0 0.468862,0.125588 0.263735,0.150705 0.38095,0.44793 h -0.259549 q -0.09628,-0.180009 -0.267921,-0.267921 -0.150705,-0.08372 -0.322342,-0.08372 -0.259549,0 -0.456304,0.171637 -0.217685,0.196755 -0.217685,0.498166 0,0.28048 0.192568,0.477234 0.196754,0.196755 0.481421,0.196755 0.234431,0 0.393509,-0.121402 0.117215,-0.07535 0.196754,-0.221872 z"
         style="font-size:4.06068px"
         id="path943" />
      <path
         d="m 66.365516,11.451155 h -1.523801 q 0,0.217686 0.196754,0.397695 0.196755,0.18001 0.435372,0.18001 0.2135,0 0.380951,-0.117216 0.146519,-0.10047 0.209313,-0.28048 h 0.255362 q -0.09628,0.28048 -0.322342,0.447931 -0.226059,0.167451 -0.523284,0.167451 -0.360019,0 -0.623754,-0.255363 -0.259548,-0.255362 -0.259548,-0.632126 0,-0.364205 0.259548,-0.62794 0.259549,-0.267921 0.623754,-0.267921 0.263735,0 0.477235,0.13396 0.175823,0.121402 0.284666,0.301411 0.06698,0.104657 0.10047,0.234431 0.03349,0.125588 0.03349,0.242804 z m -1.523801,-0.226059 h 1.272625 q -0.04186,-0.251176 -0.242803,-0.406068 -0.175824,-0.13396 -0.397696,-0.13396 -0.209313,0 -0.389323,0.13396 -0.200941,0.159078 -0.242803,0.406068 z"
         style="font-size:4.06068px"
         id="path945" />
    </g>
  </g>
</svg>
