<?xml version="1.0" encoding="UTF-8" standalone="no"?>
<svg
   width="153"
   height="65"
   viewBox="0 0 40.481249 17.197916"
   version="1.1"
   xmlns:inkscape="http://www.inkscape.org/namespaces/inkscape"
   xmlns:sodipodi="http://sodipodi.sourceforge.net/DTD/sodipodi-0.dtd"
   xmlns="http://www.w3.org/2000/svg"
   xmlns:svg="http://www.w3.org/2000/svg">
  <g
     inkscape:label="Ebene 1"
     inkscape:groupmode="layer"
     id="layer1">
    <rect
       style="opacity:1;fill:#000000;fill-opacity:1;stroke:#a6a6a6;stroke-width:1;stroke-linecap:round;stroke-linejoin:round;stroke-miterlimit:4;stroke-dasharray:none;stroke-opacity:1;paint-order:stroke fill markers"
       id="rect35527"
       width="37.89035"
       height="14.553555"
       x="1.3366584"
       y="1.3221816"
       ry="1.5401577" />
    <g
       aria-label="Plug &amp; Pray"
       id="text13328"
       style="font-size:4.99144px;line-height:1.25;font-family:NATS;-inkscape-font-specification:'NATS, Normal';letter-spacing:0px;word-spacing:0px;fill:#ffffff;stroke-width:0.124787">
      <path
         d="M 16.050613,7.7477051 V 4.9277989 h 0.792456 q 0.272728,0 0.437394,0.041167 0.164666,0.041167 0.288166,0.1234996 0.174957,0.1132079 0.262436,0.2933114 0.09263,0.1749577 0.09263,0.3962277 0,0.22127 -0.09263,0.3962277 -0.09262,0.1698119 -0.262436,0.2830198 -0.1235,0.082333 -0.28302,0.1286453 -0.154375,0.041167 -0.44254,0.041167 h -0.478561 v 1.1166416 z m 0.313895,-2.5317406 v 1.1269334 h 0.391082 0.09777 q 0.174958,0 0.257291,-0.010292 0.08748,-0.010292 0.185249,-0.06175 0.159521,-0.082333 0.236708,-0.2058326 0.08233,-0.1234996 0.08233,-0.2830198 0,-0.1595202 -0.08233,-0.2881656 Q 17.455421,5.3651931 17.301046,5.2931517 17.19813,5.2416936 17.084922,5.231402 16.971714,5.2159645 16.75559,5.2159645 Z"
         id="path831" />
      <path
         d="M 18.216993,7.7888717 V 4.9741113 h 0.298458 v 2.8147604 z"
         id="path833" />
      <path
         d="M 20.784746,5.6482129 V 7.7425593 H 20.49658 V 7.474977 q -0.04117,0.087479 -0.185249,0.1903951 -0.195541,0.1234996 -0.457978,0.1234996 -0.272728,0 -0.47856,-0.1080621 Q 19.235856,7.6087682 19.132939,7.4801228 19.030023,7.3514774 18.988857,7.1713739 18.94769,6.9912704 18.94769,6.8008753 V 5.6482129 h 0.298457 v 1.1526624 q 0,0.1852493 0.03087,0.3138947 0.03602,0.1234995 0.108062,0.22127 0.102916,0.092625 0.231562,0.1440828 0.108062,0.041167 0.236707,0.041167 0.133791,0 0.231562,-0.030875 0.09777,-0.036021 0.190395,-0.1286453 0.09777,-0.097771 0.144083,-0.2109784 0.06689,-0.1492286 0.06689,-0.3962277 V 5.6482129 Z"
         id="path835" />
      <path
         d="m 23.295895,5.6430671 v 1.7598685 q 0,0.2418533 -0.02573,0.360207 -0.03602,0.2264158 -0.169812,0.4013735 -0.128646,0.1801035 -0.360207,0.277874 -0.226416,0.1029163 -0.463124,0.1029163 -0.324186,0 -0.576331,-0.1337912 -0.375644,-0.2006868 -0.50429,-0.6586642 h 0.313895 q 0.08233,0.2058325 0.22127,0.3344779 0.216124,0.1852493 0.540311,0.1852493 0.288165,0 0.488852,-0.1646661 0.236707,-0.1955409 0.236707,-0.581477 V 7.4080814 q -0.09262,0.1595202 -0.31904,0.277874 -0.216124,0.09777 -0.463123,0.09777 -0.437395,0 -0.751289,-0.2933114 -0.34477,-0.3087488 -0.34477,-0.7873095 0,-0.4785608 0.34477,-0.7976013 0.313894,-0.3138946 0.751289,-0.3138946 0.200686,0 0.385936,0.072041 0.25729,0.1080621 0.385936,0.3138946 l 0.01029,-0.3344779 z m -1.878223,1.0446003 q 0,0.3396237 0.226416,0.5866228 0.226416,0.2418533 0.571186,0.2418533 0.365352,0 0.591768,-0.277874 0.200687,-0.2469991 0.200687,-0.5506021 0,-0.3293321 -0.231562,-0.5763312 -0.226415,-0.2469991 -0.560893,-0.2469991 -0.339624,0 -0.571186,0.2469991 -0.226416,0.2469991 -0.226416,0.5763312 z"
         id="path837" />
      <path
         d="m 27.047187,5.8231706 h 0.401374 l -0.56604,1.0446003 0.761581,0.7101224 -0.257291,0.2418532 -0.679247,-0.6380809 Q 26.58921,7.4080814 26.445127,7.5367268 26.177545,7.8094549 25.8019,7.8094549 q -0.416811,0 -0.704976,-0.2933114 Q 24.829342,7.253707 24.829342,6.8935 q 0,-0.3190405 0.226415,-0.555748 0.174958,-0.1852493 0.44254,-0.3087488 -0.128645,-0.1183537 -0.200686,-0.22127 -0.113208,-0.1646661 -0.113208,-0.3653528 0,-0.2830198 0.216124,-0.473415 0.22127,-0.1955409 0.535165,-0.1955409 0.298457,0 0.519727,0.2006868 0.22127,0.2006867 0.22127,0.4991439 0,0.2830198 -0.236708,0.4837066 -0.154374,0.138937 -0.308748,0.1903951 l 0.488852,0.4682691 z m -0.60206,1.1114959 -0.684393,-0.6535184 q -0.04631,0.020583 -0.138937,0.066896 -0.08748,0.041167 -0.133791,0.072041 -0.174958,0.1183537 -0.236708,0.2367074 -0.06175,0.1183538 -0.06175,0.2469991 0,0.2469991 0.180103,0.4065193 0.180104,0.1595203 0.401374,0.1595203 0.246999,0 0.44254,-0.195541 0.108062,-0.1183537 0.231561,-0.3396237 z M 25.930546,5.1130482 q -0.169812,0 -0.277874,0.097771 -0.108062,0.097771 -0.108062,0.2264158 0,0.1440828 0.149228,0.3036031 0.06175,0.056604 0.169812,0.1492286 0.241853,-0.09777 0.34477,-0.1852493 0.108062,-0.1132079 0.108062,-0.2469991 0,-0.1337912 -0.113208,-0.2367075 -0.108062,-0.1080621 -0.272728,-0.1080621 z"
         id="path839" />
      <path
         d="M 28.935697,7.7477051 V 4.9277989 h 0.792455 q 0.272728,0 0.437394,0.041167 0.164666,0.041167 0.288166,0.1234996 0.174957,0.1132079 0.262436,0.2933114 0.09262,0.1749577 0.09262,0.3962277 0,0.22127 -0.09262,0.3962277 -0.09262,0.1698119 -0.262436,0.2830198 -0.1235,0.082333 -0.28302,0.1286453 -0.154374,0.041167 -0.44254,0.041167 h -0.478561 v 1.1166416 z m 0.313894,-2.5317406 v 1.1269334 h 0.391082 0.09777 q 0.174957,0 0.25729,-0.010292 0.08748,-0.010292 0.18525,-0.06175 0.15952,-0.082333 0.236707,-0.2058326 0.08233,-0.1234996 0.08233,-0.2830198 0,-0.1595202 -0.08233,-0.2881656 -0.07719,-0.1286454 -0.231562,-0.2006868 -0.102916,-0.051458 -0.216124,-0.06175 -0.113208,-0.015437 -0.329332,-0.015437 z"
         id="path841" />
      <path
         d="M 31.102076,7.7888717 V 5.6945253 h 0.298458 v 0.2367074 q 0.0566,-0.1234995 0.231561,-0.22127 0.144083,-0.066896 0.355061,-0.066896 v 0.3138947 q -0.149228,0 -0.262436,0.056604 -0.108062,0.051458 -0.180104,0.138937 -0.144082,0.1852493 -0.144082,0.416811 v 1.219558 z"
         id="path843" />
      <path
         d="M 34.343933,5.6482129 V 7.7425593 H 34.04033 V 7.4235188 q -0.1235,0.1801035 -0.380791,0.2881656 -0.200686,0.077187 -0.406519,0.077187 -0.488852,0 -0.807893,-0.3190405 -0.31904,-0.3241863 -0.31904,-0.7821638 0,-0.4373942 0.308749,-0.7512889 0.313894,-0.3396237 0.818184,-0.3396237 0.216124,0 0.411665,0.077187 0.246999,0.1029163 0.370499,0.2933114 l 0.0051,-0.3190405 z m -1.919389,1.054892 q 0,0.3447695 0.226416,0.581477 0.231561,0.2367074 0.60206,0.2367074 0.329332,0 0.56604,-0.2367074 0.236707,-0.2367075 0.236707,-0.5866229 0,-0.3344779 -0.236707,-0.581477 -0.231562,-0.2469991 -0.56604,-0.2469991 -0.344769,0 -0.586623,0.2315617 -0.241853,0.2315616 -0.241853,0.6020603 z"
         id="path845" />
      <path
         d="M 35.012885,8.5607438 35.383383,7.752851 34.570345,5.7408376 h 0.31904 l 0.638081,1.6157857 0.694685,-1.6157857 H 36.5309 l -1.204121,2.8199062 z"
         id="path847" />
    </g>
    <g
       aria-label="Certified"
       id="text13328-0"
       style="font-size:5.80403px;line-height:1.25;font-family:NATS;-inkscape-font-specification:'NATS, Normal';letter-spacing:0px;word-spacing:0px;opacity:0.750016;fill:#a6a6a6;stroke-width:0.145102">
      <path
         d="m 18.031201,11.573937 h 0.296769 q -0.192027,0.34914 -0.510618,0.532439 -0.279312,0.152749 -0.602267,0.152749 -0.506254,0 -0.877216,-0.353505 -0.370962,-0.353504 -0.370962,-0.872851 0,-0.528075 0.362234,-0.88158 0.366597,-0.3578692 0.885944,-0.3578692 0.41024,0 0.737559,0.2400342 0.26622,0.192027 0.362234,0.432061 h -0.292406 q -0.170206,-0.253126 -0.449518,-0.357869 -0.183299,-0.06983 -0.362233,-0.06983 -0.401512,0 -0.689553,0.301134 -0.288041,0.29677 -0.288041,0.693917 0,0.401512 0.296769,0.698281 0.301134,0.292405 0.685189,0.292405 0.23567,0 0.445154,-0.117835 0.213849,-0.117835 0.370962,-0.331683 z"
         style="font-size:4.23333px"
         id="path887" />
      <path
         d="m 20.379165,11.390638 h -1.58859 q 0,0.226941 0.20512,0.414605 0.20512,0.187663 0.453883,0.187663 0.222577,0 0.397147,-0.1222 0.152749,-0.104742 0.218213,-0.292405 h 0.26622 q -0.100378,0.292405 -0.336048,0.466976 -0.23567,0.17457 -0.545532,0.17457 -0.375326,0 -0.650274,-0.26622 -0.270584,-0.266219 -0.270584,-0.659003 0,-0.37969 0.270584,-0.654638 0.270584,-0.279313 0.650274,-0.279313 0.274948,0 0.497525,0.139657 0.183299,0.126563 0.29677,0.314226 0.06983,0.109107 0.104742,0.244398 0.03491,0.130928 0.03491,0.253127 z m -1.58859,-0.23567 h 1.326734 q -0.04364,-0.261855 -0.253127,-0.423333 -0.183298,-0.139656 -0.414604,-0.139656 -0.218213,0 -0.405876,0.139656 -0.209484,0.165842 -0.253127,0.423333 z"
         style="font-size:4.23333px"
         id="path889" />
      <path
         d="m 20.662838,12.219847 v -1.776253 h 0.253127 v 0.200756 q 0.04801,-0.104742 0.196391,-0.187663 0.122199,-0.05673 0.301134,-0.05673 v 0.266219 q -0.126563,0 -0.222577,0.04801 -0.09165,0.04364 -0.152749,0.117835 -0.122199,0.157113 -0.122199,0.353505 v 1.034329 z"
         style="font-size:4.23333px"
         id="path891" />
      <path
         d="m 21.819361,12.219847 v -1.540583 h -0.370962 v -0.23567 h 0.370962 V 9.8325981 h 0.253126 v 0.6109959 h 0.414605 v 0.23567 h -0.414605 v 1.540583 z"
         style="font-size:4.23333px"
         id="path893" />
      <path
         d="M 22.670385,12.215483 V 10.43923 h 0.253127 v 1.776253 z m 0,-1.955188 V 9.8282339 h 0.253127 v 0.4320611 z"
         style="font-size:4.23333px"
         id="path895" />
      <path
         d="m 23.416665,12.224211 v -1.540583 h -0.270584 v -0.23567 h 0.270584 q 0,-0.261855 0.09165,-0.405876 0.165842,-0.2487622 0.606632,-0.2487622 V 10.02899 q -0.288041,0 -0.388419,0.148384 -0.05673,0.09165 -0.05673,0.274949 v -0.0044 h 0.445154 v 0.23567 h -0.445154 v 1.540583 z"
         style="font-size:4.23333px"
         id="path897" />
      <path
         d="M 24.272054,12.215483 V 10.43923 h 0.253127 v 1.776253 z m 0,-1.955188 V 9.8282339 h 0.253127 v 0.4320611 z"
         style="font-size:4.23333px"
         id="path899" />
      <path
         d="M 26.663659,11.390638 H 25.07507 q 0,0.226941 0.20512,0.414605 0.20512,0.187663 0.453883,0.187663 0.222577,0 0.397147,-0.1222 0.152749,-0.104742 0.218213,-0.292405 h 0.26622 q -0.100378,0.292405 -0.336048,0.466976 -0.23567,0.17457 -0.545532,0.17457 -0.375327,0 -0.650275,-0.26622 -0.270584,-0.266219 -0.270584,-0.659003 0,-0.37969 0.270584,-0.654638 0.270584,-0.279313 0.650275,-0.279313 0.274948,0 0.497525,0.139657 0.183299,0.126563 0.296769,0.314226 0.06983,0.109107 0.104743,0.244398 0.03491,0.130928 0.03491,0.253127 z m -1.588589,-0.23567 h 1.326734 q -0.04364,-0.261855 -0.253127,-0.423333 -0.183299,-0.139656 -0.414604,-0.139656 -0.218213,0 -0.405876,0.139656 -0.209485,0.165842 -0.253127,0.423333 z"
         style="font-size:4.23333px"
         id="path901" />
      <path
         d="m 28.749771,9.7933198 v 2.3916132 h -0.257492 v -0.270584 q -0.104742,0.152749 -0.31859,0.240034 -0.183299,0.06983 -0.349141,0.06983 -0.414605,0 -0.685189,-0.270584 -0.270583,-0.270584 -0.270583,-0.659003 0,-0.375326 0.261855,-0.641545 0.26622,-0.288041 0.693917,-0.288041 0.183299,0 0.349141,0.06983 0.209484,0.08728 0.314226,0.244398 l 0.0044,-0.8859442 z m -1.627869,1.5100332 q 0,0.288041 0.192028,0.493161 0.196391,0.200756 0.510618,0.200756 0.279312,0 0.480068,-0.200756 0.200756,-0.200756 0.200756,-0.497525 0,-0.288041 -0.200756,-0.493161 -0.196391,-0.209485 -0.480068,-0.209485 -0.292405,0 -0.497525,0.196392 -0.205121,0.196391 -0.205121,0.510618 z"
         style="font-size:4.23333px"
         id="path903" />
    </g>
    <path
       d="M 9.6457268,10.265865 V 9.147961 l -0.46152,-0.8307362 q -0.071789,0.051275 -0.1128155,0.1333287 -0.041027,0.082053 -0.041027,0.1743523 v 2.3486232 l 1.0563697,1.753778 H 9.1329251 L 8.2098836,11.209418 V 8.6249058 q 0,-0.3179361 0.153842,-0.5845921 Q 8.5175677,7.7736562 8.7842221,7.5993055 L 8.2098851,6.5839603 Q 8.004766,6.1942322 8.0304053,5.7583516 8.0560508,5.3224724 8.3637256,5.0147914 l 0.6974091,-0.6974075 2.8306573,3.3229451 0.420495,5.086978 h -0.82048 L 11.091822,7.9685202 9.0098545,5.5275916 l -0.06154,0.06154 Q 8.845748,5.691698 8.8303669,5.825019 q -0.01535,0.1333288 0.046159,0.2564009 l 1.5896811,2.8511685 v 1.3332796 z m -3.6921614,0 V 8.9325853 L 7.543246,6.0814168 Q 7.6047859,5.9583524 7.5894048,5.8250159 7.5740547,5.6916872 7.4714572,5.5891284 l -0.06154,-0.06154 -2.081969,2.4409286 -0.3999831,4.758787 H 4.1074839 L 4.5279804,7.6403259 7.3586371,4.3173808 8.0560461,5.0147883 q 0.3076795,0.307681 0.3333204,0.7435602 0.025645,0.4358806 -0.1794814,0.8256087 L 7.6355497,7.5993024 q 0.2666559,0.1743507 0.4204964,0.4410082 0.1538421,0.266656 0.1538421,0.5845921 v 2.5845123 l -0.92304,1.517889 H 6.3330399 L 7.3894086,10.973526 V 8.6249027 q 0,-0.092302 -0.041027,-0.1743523 -0.041027,-0.082053 -0.1128155,-0.1333287 l -0.46152,0.8307362 v 1.1179041 z"
       id="path923"
       style="fill:#ffffff;fill-opacity:1;stroke-width:0.010256" />
  </g>
</svg>
