<?xml version="1.0" encoding="UTF-8" standalone="no"?>
<svg
   width="275"
   height="65"
   viewBox="0 0 72.760416 17.197916"
   version="1.1"
   xmlns:inkscape="http://www.inkscape.org/namespaces/inkscape"
   xmlns:sodipodi="http://sodipodi.sourceforge.net/DTD/sodipodi-0.dtd"
   xmlns="http://www.w3.org/2000/svg"
   xmlns:svg="http://www.w3.org/2000/svg">
  <g
     inkscape:label="Ebene 1"
     inkscape:groupmode="layer"
     id="layer1">
    <rect
       style="opacity:1;fill:#000000;fill-opacity:1;stroke:#a6a6a6;stroke-width:1;stroke-linecap:round;stroke-linejoin:round;stroke-miterlimit:4;stroke-dasharray:none;stroke-opacity:1;paint-order:stroke fill markers"
       id="rect35527"
       width="69.826591"
       height="14.293045"
       x="1.4669126"
       y="1.4524359"
       ry="1.5125889" />
    <path
       d="m 5.4426868,12.737658 v -1.801816 q -0.597114,-0.544735 -0.927098,-1.2727922 -0.329983,-0.728061 -0.329983,-1.534687 0,-1.571349 1.099945,-2.671295 1.0999455,-1.099944 2.6712965,-1.099944 1.3094568,0 2.3203587,0.769961 1.010901,0.769962 1.314696,2.006091 l 0.544735,2.147511 q 0.05237,0.199038 -0.07334,0.361409 -0.1257,0.162374 -0.335222,0.162374 h -0.838054 v 1.2570792 q 0,0.345699 -0.246179,0.591875 -0.246176,0.246179 -0.591873,0.246179 H 9.2139171 v 0.838055 H 8.3758653 V 11.061549 H 10.051972 V 8.9664158 h 1.131372 l -0.398073,-1.623728 q -0.24094,-0.953284 -1.0266149,-1.550397 -0.7856748,-0.597113 -1.8018148,-0.597113 -1.215177,0 -2.0741825,0.848529 -0.859004,0.848527 -0.859004,2.063705 0,0.62854 0.256654,1.194225 0.256653,0.565687 0.728059,1.0056652 l 0.2723685,0.251416 v 2.17894 z M 8.1035063,8.9664158 Z m -0.565686,0.838054 h 0.838053 l 0.06285,-0.523783 q 0.08381,-0.03143 0.151896,-0.07334 0.0681,-0.04191 0.120474,-0.09428 l 0.4818808,0.209515 0.419028,-0.712347 -0.419028,-0.314268 q 0.02094,-0.08381 0.02094,-0.167612 0,-0.08381 -0.02094,-0.167609 l 0.419028,-0.314272 -0.419027,-0.712343 -0.4818818,0.209512 q -0.05237,-0.05237 -0.120474,-0.09428 -0.0681,-0.04191 -0.151896,-0.07334 l -0.06285,-0.523782 h -0.838053 l -0.06285,0.523788 q -0.08381,0.03143 -0.151894,0.07334 -0.0681,0.04191 -0.120476,0.09428 l -0.48188,-0.209512 -0.419026,0.712344 0.419026,0.314271 q -0.02096,0.08381 -0.02096,0.16761 0,0.08381 0.02096,0.16761 l -0.419026,0.314271 0.419026,0.712346 0.48188,-0.209514 q 0.05237,0.05237 0.120476,0.09428 0.06808,0.04191 0.151894,0.07334 z m 0.419027,-1.047566 q -0.261893,0 -0.445217,-0.183324 -0.183323,-0.183324 -0.183323,-0.445217 0,-0.261892 0.183323,-0.445215 0.183324,-0.183325 0.445217,-0.183325 0.26189,0 0.445216,0.183325 0.183323,0.183323 0.183323,0.445215 0,0.261893 -0.183323,0.445217 -0.183326,0.183324 -0.445216,0.183324 z"
       id="path21832"
       style="fill:#ffffff;fill-opacity:1;stroke-width:0.0104757" />
    <g
       aria-label="Humane Generated Content"
       id="text13328"
       style="font-size:4.99144px;line-height:1.25;font-family:NATS;-inkscape-font-specification:'NATS, Normal';letter-spacing:0px;word-spacing:0px;fill:#ffffff;stroke-width:0.124787">
      <path
         d="M 16.055759,7.7888717 V 4.9741113 h 0.313895 v 1.2247038 h 1.404807 V 4.9741113 h 0.319041 v 2.8147604 h -0.319041 v -1.301891 h -1.404807 v 1.301891 z"
         id="path850" />
      <path
         d="M 20.383384,5.6482129 V 7.7425593 H 20.095218 V 7.474977 q -0.04117,0.087479 -0.185249,0.1903951 -0.195541,0.1234996 -0.457977,0.1234996 -0.272729,0 -0.478561,-0.1080621 Q 18.834494,7.6087682 18.731578,7.4801228 18.628661,7.3514774 18.587495,7.1713739 18.546328,6.9912704 18.546328,6.8008753 V 5.6482129 h 0.298458 v 1.1526624 q 0,0.1852493 0.03087,0.3138947 0.03602,0.1234995 0.108062,0.22127 0.102917,0.092625 0.231562,0.1440828 0.108062,0.041167 0.236708,0.041167 0.133791,0 0.231561,-0.030875 0.09777,-0.036021 0.190395,-0.1286453 0.09777,-0.097771 0.144083,-0.2109784 0.0669,-0.1492286 0.0669,-0.3962277 V 5.6482129 Z"
         id="path852" />
      <path
         d="M 21.119227,5.6996711 V 5.895212 q 0.154375,-0.2469991 0.540311,-0.2469991 0.231561,0 0.411665,0.1080621 0.185249,0.1029163 0.28302,0.2675824 0.236707,-0.3756445 0.689539,-0.3756445 0.38079,0 0.612352,0.2469991 0.231561,0.2418533 0.231561,0.6586642 V 7.7940175 H 23.589218 V 6.5847511 q 0,-0.3190405 -0.138937,-0.4888523 -0.138937,-0.1749577 -0.406519,-0.1749577 -0.252145,0 -0.396228,0.1749577 -0.138937,0.1698118 -0.138937,0.4888523 V 7.7940175 H 22.21014 V 6.5847511 q 0,-0.3190405 -0.144083,-0.4888523 -0.144083,-0.1749577 -0.406519,-0.1749577 -0.246999,0 -0.396228,0.1749577 -0.144083,0.1698118 -0.144083,0.4888523 V 7.7940175 H 20.82077 V 5.6996711 Z"
         id="path854" />
      <path
         d="M 26.455431,5.6482129 V 7.7425593 H 26.151828 V 7.4235188 q -0.1235,0.1801035 -0.380791,0.2881656 -0.200686,0.077187 -0.406519,0.077187 -0.488852,0 -0.807893,-0.3190405 -0.31904,-0.3241863 -0.31904,-0.7821638 0,-0.4373942 0.308748,-0.7512889 0.313895,-0.3396237 0.818185,-0.3396237 0.216124,0 0.411665,0.077187 0.246999,0.1029163 0.370499,0.2933114 l 0.0051,-0.3190405 z m -1.919389,1.054892 q 0,0.3447695 0.226416,0.581477 0.231561,0.2367074 0.60206,0.2367074 0.329332,0 0.56604,-0.2367074 0.236707,-0.2367075 0.236707,-0.5866229 0,-0.3344779 -0.236707,-0.581477 -0.231562,-0.2469991 -0.56604,-0.2469991 -0.34477,0 -0.586623,0.2315617 -0.241853,0.2315616 -0.241853,0.6020603 z"
         id="path856" />
      <path
         d="M 26.867091,7.7888717 V 5.6945253 h 0.298457 v 0.2315616 q 0.0566,-0.087479 0.190395,-0.1646661 0.190395,-0.1183537 0.432249,-0.1183537 0.210978,0 0.360207,0.06175 0.154374,0.056604 0.298457,0.2006867 0.133791,0.113208 0.200687,0.3036031 0.0669,0.1903951 0.0669,0.4271026 V 7.7888717 H 28.410835 V 6.6362093 q 0,-0.195541 -0.05146,-0.3241863 -0.04631,-0.1286454 -0.133791,-0.2161242 -0.08748,-0.092625 -0.216124,-0.1337912 -0.1235,-0.046312 -0.22127,-0.046312 -0.108062,0 -0.22127,0.041167 -0.113208,0.041167 -0.216125,0.1286453 -0.07719,0.087479 -0.133791,0.2212701 -0.05146,0.1337911 -0.05146,0.3138946 v 1.1680999 z"
         id="path858" />
      <path
         d="m 31.225592,6.811167 h -1.873076 q 0,0.2675823 0.241853,0.4888523 0.241853,0.22127 0.535165,0.22127 0.262436,0 0.468269,-0.1440828 0.180103,-0.1234995 0.257291,-0.3447695 h 0.313894 q -0.118353,0.3447695 -0.396227,0.5506021 -0.277874,0.2058326 -0.643227,0.2058326 -0.44254,0 -0.766727,-0.3138947 -0.31904,-0.3138947 -0.31904,-0.777018 0,-0.4476858 0.31904,-0.7718721 0.319041,-0.3293321 0.766727,-0.3293321 0.324186,0 0.586623,0.164666 0.216124,0.1492287 0.349915,0.3704987 0.08233,0.1286453 0.1235,0.2881656 0.04117,0.1543744 0.04117,0.2984572 z M 29.352516,6.533293 h 1.564327 Q 30.865385,6.2245441 30.618386,6.034149 30.402262,5.8694829 30.129534,5.8694829 q -0.257291,0 -0.478561,0.1646661 -0.246999,0.1955409 -0.298457,0.499144 z"
         id="path860" />
      <path
         d="m 33.572078,6.476689 h 1.92968 q 0,0.6123519 -0.488852,1.0085796 -0.44254,0.3499154 -1.003434,0.3499154 -0.627789,0 -1.070329,-0.4322484 -0.44254,-0.4322484 -0.44254,-1.024017 0,-0.5711854 0.421956,-0.998288 0.427103,-0.4631233 1.085767,-0.4631233 0.509436,0 0.910809,0.2933114 0.319041,0.2418533 0.432249,0.5351647 h -0.365353 q -0.1235,-0.2315616 -0.370499,-0.3756444 -0.288165,-0.1595203 -0.60206,-0.1595203 -0.509436,0 -0.854205,0.3550612 -0.34477,0.3499154 -0.34477,0.8233303 0,0.4682691 0.334478,0.8130386 0.355061,0.3550612 0.874789,0.3550612 0.406519,0 0.740997,-0.2727281 0.288165,-0.2264159 0.355061,-0.5197273 h -1.543744 z"
         id="path862" />
      <path
         d="m 37.935724,6.811167 h -1.873077 q 0,0.2675823 0.241854,0.4888523 0.241853,0.22127 0.535164,0.22127 0.262437,0 0.46827,-0.1440828 0.180103,-0.1234995 0.25729,-0.3447695 h 0.313895 q -0.118354,0.3447695 -0.396228,0.5506021 -0.277874,0.2058326 -0.643227,0.2058326 -0.44254,0 -0.766726,-0.3138947 -0.31904,-0.3138947 -0.31904,-0.777018 0,-0.4476858 0.31904,-0.7718721 0.319041,-0.3293321 0.766726,-0.3293321 0.324187,0 0.586623,0.164666 0.216124,0.1492287 0.349916,0.3704987 0.08233,0.1286453 0.123499,0.2881656 0.04117,0.1543744 0.04117,0.2984572 z M 36.062647,6.533293 h 1.564328 Q 37.575517,6.2245441 37.328518,6.034149 37.112394,5.8694829 36.839665,5.8694829 q -0.25729,0 -0.47856,0.1646661 -0.246999,0.1955409 -0.298458,0.499144 z"
         id="path864" />
      <path
         d="M 38.270197,7.7888717 V 5.6945253 h 0.298457 v 0.2315616 q 0.0566,-0.087479 0.190395,-0.1646661 0.190395,-0.1183537 0.432248,-0.1183537 0.210979,0 0.360207,0.06175 0.154375,0.056604 0.298458,0.2006867 0.133791,0.113208 0.200686,0.3036031 0.0669,0.1903951 0.0669,0.4271026 V 7.7888717 H 39.813941 V 6.6362093 q 0,-0.195541 -0.05146,-0.3241863 -0.04631,-0.1286454 -0.133791,-0.2161242 -0.08748,-0.092625 -0.216125,-0.1337912 -0.123499,-0.046312 -0.22127,-0.046312 -0.108062,0 -0.22127,0.041167 -0.113207,0.041167 -0.216124,0.1286453 -0.07719,0.087479 -0.133791,0.2212701 -0.05146,0.1337911 -0.05146,0.3138946 v 1.1680999 z"
         id="path866" />
      <path
         d="m 42.6287,6.811167 h -1.873077 q 0,0.2675823 0.241854,0.4888523 0.241853,0.22127 0.535164,0.22127 0.262437,0 0.46827,-0.1440828 0.180103,-0.1234995 0.25729,-0.3447695 h 0.313895 q -0.118354,0.3447695 -0.396228,0.5506021 -0.277874,0.2058326 -0.643227,0.2058326 -0.44254,0 -0.766726,-0.3138947 -0.31904,-0.3138947 -0.31904,-0.777018 0,-0.4476858 0.31904,-0.7718721 0.319041,-0.3293321 0.766726,-0.3293321 0.324187,0 0.586623,0.164666 0.216124,0.1492287 0.349916,0.3704987 0.08233,0.1286453 0.123499,0.2881656 0.04117,0.1543744 0.04117,0.2984572 z M 40.755623,6.533293 h 1.564328 Q 42.268493,6.2245441 42.021494,6.034149 41.80537,5.8694829 41.532641,5.8694829 q -0.25729,0 -0.47856,0.1646661 -0.246999,0.1955409 -0.298458,0.499144 z"
         id="path868" />
      <path
         d="M 42.963173,7.7888717 V 5.6945253 h 0.298457 v 0.2367074 q 0.0566,-0.1234995 0.231562,-0.22127 0.144082,-0.066896 0.355061,-0.066896 v 0.3138947 q -0.149229,0 -0.262437,0.056604 -0.108062,0.051458 -0.180103,0.138937 -0.144083,0.1852493 -0.144083,0.416811 v 1.219558 z"
         id="path870" />
      <path
         d="M 46.20503,5.6482129 V 7.7425593 H 45.901427 V 7.4235188 q -0.1235,0.1801035 -0.38079,0.2881656 -0.200687,0.077187 -0.40652,0.077187 -0.488852,0 -0.807892,-0.3190405 -0.319041,-0.3241863 -0.319041,-0.7821638 0,-0.4373942 0.308749,-0.7512889 0.313895,-0.3396237 0.818184,-0.3396237 0.216125,0 0.411666,0.077187 0.246999,0.1029163 0.370498,0.2933114 l 0.0051,-0.3190405 z m -1.919389,1.054892 q 0,0.3447695 0.226416,0.581477 0.231562,0.2367074 0.60206,0.2367074 0.329333,0 0.56604,-0.2367074 0.236707,-0.2367075 0.236707,-0.5866229 0,-0.3344779 -0.236707,-0.581477 -0.231562,-0.2469991 -0.56604,-0.2469991 -0.344769,0 -0.586622,0.2315617 -0.241854,0.2315616 -0.241854,0.6020603 z"
         id="path872" />
      <path
         d="M 46.868834,7.7888717 V 5.9723992 H 46.43144 V 5.6945253 h 0.437394 v -0.720414 h 0.298458 v 0.720414 h 0.488852 v 0.2778739 h -0.488852 v 1.8164725 z"
         id="path874" />
      <path
         d="m 49.956316,6.811167 h -1.873077 q 0,0.2675823 0.241853,0.4888523 0.241854,0.22127 0.535165,0.22127 0.262437,0 0.468269,-0.1440828 Q 49.50863,7.253707 49.585817,7.032437 h 0.313895 q -0.118354,0.3447695 -0.396228,0.5506021 -0.277874,0.2058326 -0.643227,0.2058326 -0.44254,0 -0.766726,-0.3138947 -0.319041,-0.3138947 -0.319041,-0.777018 0,-0.4476858 0.319041,-0.7718721 0.31904,-0.3293321 0.766726,-0.3293321 0.324186,0 0.586623,0.164666 0.216124,0.1492287 0.349915,0.3704987 0.08233,0.1286453 0.1235,0.2881656 0.04117,0.1543744 0.04117,0.2984572 z M 48.083239,6.533293 h 1.564328 Q 49.596109,6.2245441 49.34911,6.034149 49.132985,5.8694829 48.860257,5.8694829 q -0.257291,0 -0.478561,0.1646661 -0.246999,0.1955409 -0.298457,0.499144 z"
         id="path876" />
      <path
         d="M 52.41601,4.9277989 V 7.7477051 H 52.112407 V 7.4286647 q -0.1235,0.1801035 -0.375645,0.2830197 -0.216124,0.082333 -0.411665,0.082333 -0.488852,0 -0.807893,-0.3190405 -0.31904,-0.3190405 -0.31904,-0.777018 0,-0.44254 0.308749,-0.7564347 0.313894,-0.3396237 0.818184,-0.3396237 0.216124,0 0.411665,0.082333 0.246999,0.1029163 0.370499,0.2881656 l 0.0051,-1.0446003 z m -1.919389,1.7804518 q 0,0.3396237 0.226416,0.581477 0.231561,0.2367074 0.60206,0.2367074 0.329332,0 0.56604,-0.2367074 0.236707,-0.2367075 0.236707,-0.5866228 0,-0.3396238 -0.236707,-0.5814771 -0.231562,-0.246999 -0.56604,-0.246999 -0.344769,0 -0.586623,0.2315616 -0.241853,0.2315616 -0.241853,0.6020603 z"
         id="path878" />
      <path
         d="m 56.218761,7.0272911 h 0.349916 q -0.226416,0.4116652 -0.60206,0.6277894 -0.329333,0.1801035 -0.710123,0.1801035 -0.596914,0 -1.034308,-0.416811 -0.437395,-0.4168109 -0.437395,-1.0291628 0,-0.6226435 0.427103,-1.0394545 0.432248,-0.4219568 1.0446,-0.4219568 0.483707,0 0.869643,0.2830198 0.313894,0.2264158 0.427102,0.5094356 H 56.20847 q -0.200687,-0.2984572 -0.530019,-0.4219567 -0.216124,-0.082333 -0.427103,-0.082333 -0.473415,0 -0.813038,0.3550612 -0.339624,0.3499154 -0.339624,0.8181845 0,0.4734149 0.349915,0.8233303 0.355062,0.3447695 0.807893,0.3447695 0.277874,0 0.524873,-0.138937 0.252145,-0.138937 0.437394,-0.3910819 z"
         id="path880" />
      <path
         d="m 56.815668,6.7133965 q 0,-0.4888524 0.339623,-0.8078929 0.319041,-0.3087488 0.746143,-0.3087488 0.457978,0 0.777018,0.3293321 0.324187,0.3293321 0.324187,0.7615805 0,0.44254 -0.319041,0.7718721 -0.313894,0.3293322 -0.782164,0.3293322 -0.44254,0 -0.766726,-0.3241863 -0.31904,-0.3241863 -0.31904,-0.7512889 z m 0.298457,-0.00515 q 0,0.3396237 0.236707,0.5763312 0.241854,0.2367074 0.560894,0.2367074 0.308749,0 0.545456,-0.2161242 0.246999,-0.2469991 0.246999,-0.6226435 0,-0.3704986 -0.262436,-0.5969145 -0.241853,-0.2161242 -0.530019,-0.2161242 -0.303603,0 -0.535165,0.2109784 -0.262436,0.2521449 -0.262436,0.6277894 z"
         id="path882" />
      <path
         d="M 59.342256,7.7888717 V 5.6945253 h 0.298458 v 0.2315616 q 0.0566,-0.087479 0.190395,-0.1646661 0.190395,-0.1183537 0.432248,-0.1183537 0.210978,0 0.360207,0.06175 0.154374,0.056604 0.298457,0.2006867 0.133791,0.113208 0.200687,0.3036031 0.0669,0.1903951 0.0669,0.4271026 V 7.7888717 H 60.886001 V 6.6362093 q 0,-0.195541 -0.05146,-0.3241863 -0.04631,-0.1286454 -0.133791,-0.2161242 -0.08748,-0.092625 -0.216124,-0.1337912 -0.123499,-0.046312 -0.22127,-0.046312 -0.108062,0 -0.22127,0.041167 -0.113208,0.041167 -0.216124,0.1286453 -0.07719,0.087479 -0.133791,0.2212701 -0.05146,0.1337911 -0.05146,0.3138946 v 1.1680999 z"
         id="path884" />
      <path
         d="M 61.86885,7.7888717 V 5.9723992 H 61.431455 V 5.6945253 h 0.437395 v -0.720414 h 0.298457 v 0.720414 h 0.488852 v 0.2778739 h -0.488852 v 1.8164725 z"
         id="path886" />
      <path
         d="m 64.956329,6.811167 h -1.873076 q 0,0.2675823 0.241853,0.4888523 0.241853,0.22127 0.535165,0.22127 0.262436,0 0.468269,-0.1440828 0.180103,-0.1234995 0.25729,-0.3447695 h 0.313895 q -0.118354,0.3447695 -0.396228,0.5506021 -0.277874,0.2058326 -0.643226,0.2058326 -0.442541,0 -0.766727,-0.3138947 -0.31904,-0.3138947 -0.31904,-0.777018 0,-0.4476858 0.31904,-0.7718721 0.319041,-0.3293321 0.766727,-0.3293321 0.324186,0 0.586622,0.164666 0.216125,0.1492287 0.349916,0.3704987 0.08233,0.1286453 0.123499,0.2881656 0.04117,0.1543744 0.04117,0.2984572 z M 63.083253,6.533293 H 64.64758 Q 64.596122,6.2245441 64.349123,6.034149 64.132999,5.8694829 63.860271,5.8694829 q -0.257291,0 -0.478561,0.1646661 -0.246999,0.1955409 -0.298457,0.499144 z"
         id="path888" />
      <path
         d="M 65.290804,7.7888717 V 5.6945253 h 0.298457 v 0.2315616 q 0.0566,-0.087479 0.190395,-0.1646661 0.190395,-0.1183537 0.432248,-0.1183537 0.210979,0 0.360207,0.06175 0.154375,0.056604 0.298458,0.2006867 0.133791,0.113208 0.200686,0.3036031 0.0669,0.1903951 0.0669,0.4271026 V 7.7888717 H 66.834548 V 6.6362093 q 0,-0.195541 -0.05146,-0.3241863 -0.04631,-0.1286454 -0.133791,-0.2161242 -0.08748,-0.092625 -0.216125,-0.1337912 -0.123499,-0.046312 -0.22127,-0.046312 -0.108062,0 -0.22127,0.041167 -0.113207,0.041167 -0.216124,0.1286453 -0.07719,0.087479 -0.133791,0.2212701 -0.05146,0.1337911 -0.05146,0.3138946 v 1.1680999 z"
         id="path890" />
      <path
         d="M 67.817397,7.7888717 V 5.9723992 H 67.380003 V 5.6945253 h 0.437394 v -0.720414 h 0.298457 v 0.720414 h 0.488853 v 0.2778739 h -0.488853 v 1.8164725 z"
         id="path892" />
    </g>
    <g
       aria-label="Handmade by natural intelligence"
       id="text13328-0"
       style="font-size:5.80403px;line-height:1.25;font-family:NATS;-inkscape-font-specification:'NATS, Normal';letter-spacing:0px;word-spacing:0px;opacity:0.750016;fill:#a6a6a6;stroke-width:0.145102">
      <path
         d="M 16.076014,12.219847 V 9.8325981 h 0.266219 v 1.0386929 h 1.191443 V 9.8325981 H 17.80426 V 12.219847 H 17.533676 V 11.11569 h -1.191443 v 1.104157 z"
         style="font-size:4.23333px"
         id="path914" />
      <path
         d="m 19.999477,10.404316 v 1.776253 h -0.257491 v -0.270584 q -0.104743,0.152749 -0.322955,0.244398 -0.170207,0.06546 -0.344777,0.06546 -0.414604,0 -0.685188,-0.270584 -0.270584,-0.274948 -0.270584,-0.663367 0,-0.370962 0.261855,-0.637182 0.26622,-0.288041 0.693917,-0.288041 0.183299,0 0.349141,0.06546 0.209484,0.08728 0.314226,0.248763 l 0.0044,-0.270584 z m -1.627868,0.894673 q 0,0.292405 0.192027,0.493161 0.196392,0.200756 0.510618,0.200756 0.279313,0 0.480069,-0.200756 0.200755,-0.200756 0.200755,-0.497526 0,-0.283676 -0.200755,-0.493161 -0.196392,-0.209484 -0.480069,-0.209484 -0.292405,0 -0.497525,0.196392 -0.20512,0.196391 -0.20512,0.510618 z"
         style="font-size:4.23333px"
         id="path916" />
      <path
         d="m 20.348613,12.219847 v -1.776253 h 0.253127 v 0.196392 q 0.04801,-0.07419 0.161477,-0.139656 0.161478,-0.100378 0.366598,-0.100378 0.178935,0 0.305498,0.05237 0.130928,0.04801 0.253127,0.170206 0.113471,0.09601 0.170206,0.257491 0.05673,0.161477 0.05673,0.362233 v 0.977594 H 21.65789 v -0.977594 q 0,-0.165841 -0.04364,-0.274948 -0.03928,-0.109106 -0.113471,-0.183299 -0.07419,-0.07856 -0.183299,-0.11347 -0.104742,-0.03928 -0.187663,-0.03928 -0.09165,0 -0.187663,0.03491 -0.09601,0.03491 -0.183299,0.109107 -0.06546,0.07419 -0.11347,0.187663 -0.04364,0.113471 -0.04364,0.26622 v 0.990686 z"
         style="font-size:4.23333px"
         id="path918" />
      <path
         d="m 24.08005,9.7933198 v 2.3916132 h -0.257491 v -0.270584 q -0.104742,0.152749 -0.318591,0.240034 -0.183298,0.06983 -0.34914,0.06983 -0.414605,0 -0.685189,-0.270584 -0.270584,-0.270584 -0.270584,-0.659003 0,-0.375326 0.261856,-0.641545 0.26622,-0.288041 0.693917,-0.288041 0.183299,0 0.34914,0.06983 0.209485,0.08728 0.314227,0.244398 l 0.0044,-0.8859442 z m -1.627868,1.5100332 q 0,0.288041 0.192028,0.493161 0.196391,0.200756 0.510618,0.200756 0.279312,0 0.480068,-0.200756 0.200756,-0.200756 0.200756,-0.497525 0,-0.288041 -0.200756,-0.493161 -0.196392,-0.209485 -0.480068,-0.209485 -0.292406,0 -0.497526,0.196392 -0.20512,0.196391 -0.20512,0.510618 z"
         style="font-size:4.23333px"
         id="path920" />
      <path
         d="M 24.695407,10.447958 V 10.6138 q 0.130927,-0.209484 0.458247,-0.209484 0.196391,0 0.34914,0.09165 0.157113,0.08728 0.240034,0.226942 0.200756,-0.318591 0.584811,-0.318591 0.322955,0 0.519346,0.209484 0.196392,0.20512 0.196392,0.558625 v 1.051786 H 26.79025 v -1.0256 q 0,-0.270584 -0.117835,-0.414605 -0.117835,-0.148384 -0.344776,-0.148384 -0.213849,0 -0.336048,0.148384 -0.117835,0.144021 -0.117835,0.414605 v 1.0256 h -0.253127 v -1.0256 q 0,-0.270584 -0.122199,-0.414605 -0.122199,-0.148384 -0.344776,-0.148384 -0.209485,0 -0.336048,0.148384 -0.122199,0.144021 -0.122199,0.414605 v 1.0256 H 24.44228 v -1.776253 z"
         style="font-size:4.23333px"
         id="path922" />
      <path
         d="m 29.221137,10.404316 v 1.776253 h -0.257492 v -0.270584 q -0.104742,0.152749 -0.322955,0.244398 -0.170206,0.06546 -0.344776,0.06546 -0.414604,0 -0.685188,-0.270584 -0.270584,-0.274948 -0.270584,-0.663367 0,-0.370962 0.261855,-0.637182 0.26622,-0.288041 0.693917,-0.288041 0.183299,0 0.349141,0.06546 0.209484,0.08728 0.314226,0.248763 l 0.0044,-0.270584 z m -1.627868,0.894673 q 0,0.292405 0.192027,0.493161 0.196392,0.200756 0.510618,0.200756 0.279313,0 0.480068,-0.200756 0.200756,-0.200756 0.200756,-0.497526 0,-0.283676 -0.200756,-0.493161 -0.196391,-0.209484 -0.480068,-0.209484 -0.292405,0 -0.497525,0.196392 -0.20512,0.196391 -0.20512,0.510618 z"
         style="font-size:4.23333px"
         id="path924" />
      <path
         d="m 31.372711,9.7933198 v 2.3916132 h -0.257492 v -0.270584 q -0.104742,0.152749 -0.31859,0.240034 -0.183299,0.06983 -0.349141,0.06983 -0.414604,0 -0.685188,-0.270584 -0.270584,-0.270584 -0.270584,-0.659003 0,-0.375326 0.261855,-0.641545 0.26622,-0.288041 0.693917,-0.288041 0.183299,0 0.349141,0.06983 0.209484,0.08728 0.314226,0.244398 l 0.0044,-0.8859442 z m -1.627868,1.5100332 q 0,0.288041 0.192027,0.493161 0.196391,0.200756 0.510618,0.200756 0.279312,0 0.480068,-0.200756 0.200756,-0.200756 0.200756,-0.497525 0,-0.288041 -0.200756,-0.493161 -0.196391,-0.209485 -0.480068,-0.209485 -0.292405,0 -0.497525,0.196392 -0.20512,0.196391 -0.20512,0.510618 z"
         style="font-size:4.23333px"
         id="path926" />
      <path
         d="m 33.502465,11.390638 h -1.58859 q 0,0.226941 0.20512,0.414605 0.20512,0.187663 0.453883,0.187663 0.222577,0 0.397147,-0.1222 0.152749,-0.104742 0.218213,-0.292405 h 0.26622 q -0.100378,0.292405 -0.336048,0.466976 -0.23567,0.17457 -0.545532,0.17457 -0.375326,0 -0.650275,-0.26622 -0.270584,-0.266219 -0.270584,-0.659003 0,-0.37969 0.270584,-0.654638 0.270584,-0.279313 0.650275,-0.279313 0.274948,0 0.497525,0.139657 0.183299,0.126563 0.29677,0.314226 0.06983,0.109107 0.104742,0.244398 0.03491,0.130928 0.03491,0.253127 z m -1.58859,-0.23567 h 1.326734 q -0.04364,-0.261855 -0.253127,-0.423333 -0.183299,-0.139656 -0.414604,-0.139656 -0.218213,0 -0.405876,0.139656 -0.209485,0.165842 -0.253127,0.423333 z"
         style="font-size:4.23333px"
         id="path928" />
      <path
         d="M 34.667716,12.180569 V 9.7845913 h 0.253127 v 0.8946727 q 0.11347,-0.157113 0.327319,-0.244398 0.170206,-0.07419 0.340412,-0.07419 0.423333,0 0.698281,0.288041 0.261856,0.26622 0.261856,0.637182 0,0.397147 -0.270584,0.667731 -0.270584,0.26622 -0.689553,0.26622 -0.170206,0 -0.336048,-0.06546 -0.218213,-0.09165 -0.322955,-0.248763 l -0.0087,0.274949 z m 1.623503,-0.88158 q 0,-0.314227 -0.20512,-0.510618 -0.20512,-0.196392 -0.497525,-0.196392 -0.288041,0 -0.484433,0.209484 -0.192027,0.20512 -0.192027,0.493161 0,0.29677 0.196392,0.497526 0.200755,0.200756 0.480068,0.200756 0.309862,0 0.506254,-0.200756 0.196391,-0.200756 0.196391,-0.493161 z"
         style="font-size:4.23333px"
         id="path930" />
      <path
         d="m 37.028775,12.874486 0.314226,-0.685189 -0.689552,-1.706424 h 0.270584 l 0.541168,1.370376 0.589174,-1.370376 h 0.261856 l -1.021237,2.391613 z"
         style="font-size:4.23333px"
         id="path932" />
      <path
         d="m 39.376739,12.219847 v -1.776253 h 0.253127 v 0.196392 q 0.04801,-0.07419 0.161478,-0.139656 0.161477,-0.100378 0.366597,-0.100378 0.178935,0 0.305498,0.05237 0.130928,0.04801 0.253127,0.170206 0.113471,0.09601 0.170206,0.257491 0.05674,0.161477 0.05674,0.362233 v 0.977594 h -0.257491 v -0.977594 q 0,-0.165841 -0.04364,-0.274948 -0.03928,-0.109106 -0.113471,-0.183299 -0.07419,-0.07856 -0.183299,-0.11347 -0.104742,-0.03928 -0.187663,-0.03928 -0.09165,0 -0.187663,0.03491 -0.09601,0.03491 -0.183299,0.109107 -0.06546,0.07419 -0.11347,0.187663 -0.04364,0.113471 -0.04364,0.26622 v 0.990686 z"
         style="font-size:4.23333px"
         id="path934" />
      <path
         d="m 43.112541,10.404316 v 1.776253 H 42.85505 v -0.270584 q -0.104743,0.152749 -0.322955,0.244398 -0.170206,0.06546 -0.344777,0.06546 -0.414604,0 -0.685188,-0.270584 -0.270584,-0.274948 -0.270584,-0.663367 0,-0.370962 0.261855,-0.637182 0.26622,-0.288041 0.693917,-0.288041 0.183299,0 0.349141,0.06546 0.209484,0.08728 0.314226,0.248763 l 0.0044,-0.270584 z m -1.627868,0.894673 q 0,0.292405 0.192027,0.493161 0.196392,0.200756 0.510618,0.200756 0.279313,0 0.480069,-0.200756 0.200755,-0.200756 0.200755,-0.497526 0,-0.283676 -0.200755,-0.493161 -0.196392,-0.209484 -0.480069,-0.209484 -0.292405,0 -0.497525,0.196392 -0.20512,0.196391 -0.20512,0.510618 z"
         style="font-size:4.23333px"
         id="path936" />
      <path
         d="m 43.675526,12.219847 v -1.540583 h -0.370962 v -0.23567 h 0.370962 V 9.8325981 h 0.253127 v 0.6109959 h 0.414604 v 0.23567 h -0.414604 v 1.540583 z"
         style="font-size:4.23333px"
         id="path938" />
      <path
         d="m 46.080226,10.404316 v 1.776253 h -0.244399 v -0.226942 q -0.03491,0.07419 -0.157113,0.161478 -0.165842,0.104742 -0.388419,0.104742 -0.231306,0 -0.405876,-0.09165 -0.117835,-0.0611 -0.20512,-0.170206 -0.08729,-0.109107 -0.122199,-0.261856 -0.03491,-0.152749 -0.03491,-0.314226 v -0.977594 h 0.253127 v 0.977594 q 0,0.157113 0.02619,0.266219 0.03055,0.104742 0.09165,0.187663 0.08729,0.07856 0.196391,0.1222 0.09165,0.03491 0.200756,0.03491 0.113471,0 0.196392,-0.02619 0.08292,-0.03055 0.161477,-0.109106 0.08292,-0.08292 0.122199,-0.178935 0.05674,-0.126563 0.05674,-0.336048 v -0.938315 z"
         style="font-size:4.23333px"
         id="path940" />
      <path
         d="m 46.451179,12.219847 v -1.776253 h 0.253127 v 0.200756 q 0.04801,-0.104742 0.196392,-0.187663 0.122199,-0.05673 0.301134,-0.05673 v 0.266219 q -0.126564,0 -0.222578,0.04801 -0.09165,0.04364 -0.152749,0.117835 -0.122199,0.157113 -0.122199,0.353505 v 1.034329 z"
         style="font-size:4.23333px"
         id="path942" />
      <path
         d="m 49.200657,10.404316 v 1.776253 h -0.257492 v -0.270584 q -0.104742,0.152749 -0.322955,0.244398 -0.170206,0.06546 -0.344776,0.06546 -0.414605,0 -0.685188,-0.270584 -0.270584,-0.274948 -0.270584,-0.663367 0,-0.370962 0.261855,-0.637182 0.26622,-0.288041 0.693917,-0.288041 0.183299,0 0.349141,0.06546 0.209484,0.08728 0.314226,0.248763 l 0.0044,-0.270584 z m -1.627869,0.894673 q 0,0.292405 0.192028,0.493161 0.196391,0.200756 0.510618,0.200756 0.279312,0 0.480068,-0.200756 0.200756,-0.200756 0.200756,-0.497526 0,-0.283676 -0.200756,-0.493161 -0.196391,-0.209484 -0.480068,-0.209484 -0.292405,0 -0.497525,0.196392 -0.205121,0.196391 -0.205121,0.510618 z"
         style="font-size:4.23333px"
         id="path944" />
      <path
         d="M 49.549793,12.219847 V 9.8325981 h 0.253127 v 2.3872489 z"
         style="font-size:4.23333px"
         id="path946" />
      <path
         d="M 51.042362,12.215483 V 10.43923 h 0.253127 v 1.776253 z m 0,-1.955188 V 9.8282339 h 0.253127 v 0.4320611 z"
         style="font-size:4.23333px"
         id="path948" />
      <path
         d="m 51.666443,12.219847 v -1.776253 h 0.253127 v 0.196392 q 0.04801,-0.07419 0.161477,-0.139656 0.161478,-0.100378 0.366598,-0.100378 0.178934,0 0.305498,0.05237 0.130927,0.04801 0.253127,0.170206 0.11347,0.09601 0.170206,0.257491 0.05673,0.161477 0.05673,0.362233 v 0.977594 H 52.97572 v -0.977594 q 0,-0.165841 -0.04364,-0.274948 -0.03928,-0.109106 -0.11347,-0.183299 -0.07419,-0.07856 -0.183299,-0.11347 -0.104742,-0.03928 -0.187663,-0.03928 -0.09165,0 -0.187663,0.03491 -0.09601,0.03491 -0.183299,0.109107 -0.06546,0.07419 -0.113471,0.187663 -0.04364,0.113471 -0.04364,0.26622 v 0.990686 z"
         style="font-size:4.23333px"
         id="path950" />
      <path
         d="m 53.809288,12.219847 v -1.540583 h -0.370962 v -0.23567 h 0.370962 V 9.8325981 h 0.253127 v 0.6109959 h 0.414605 v 0.23567 h -0.414605 v 1.540583 z"
         style="font-size:4.23333px"
         id="path952" />
      <path
         d="m 56.427837,11.390638 h -1.58859 q 0,0.226941 0.20512,0.414605 0.20512,0.187663 0.453883,0.187663 0.222577,0 0.397147,-0.1222 0.152749,-0.104742 0.218213,-0.292405 h 0.26622 q -0.100378,0.292405 -0.336048,0.466976 -0.23567,0.17457 -0.545532,0.17457 -0.375326,0 -0.650275,-0.26622 -0.270583,-0.266219 -0.270583,-0.659003 0,-0.37969 0.270583,-0.654638 0.270584,-0.279313 0.650275,-0.279313 0.274948,0 0.497525,0.139657 0.183299,0.126563 0.29677,0.314226 0.06983,0.109107 0.104742,0.244398 0.03491,0.130928 0.03491,0.253127 z m -1.58859,-0.23567 h 1.326734 q -0.04364,-0.261855 -0.253127,-0.423333 -0.183298,-0.139656 -0.414604,-0.139656 -0.218213,0 -0.405876,0.139656 -0.209484,0.165842 -0.253127,0.423333 z"
         style="font-size:4.23333px"
         id="path954" />
      <path
         d="M 56.711509,12.219847 V 9.8325981 h 0.253127 v 2.3872489 z"
         style="font-size:4.23333px"
         id="path956" />
      <path
         d="M 57.33559,12.219847 V 9.8325981 h 0.253127 v 2.3872489 z"
         style="font-size:4.23333px"
         id="path958" />
      <path
         d="M 57.959675,12.215483 V 10.43923 h 0.253127 v 1.776253 z m 0,-1.955188 V 9.8282339 h 0.253127 v 0.4320611 z"
         style="font-size:4.23333px"
         id="path960" />
      <path
         d="m 60.342551,10.399952 v 1.492576 q 0,0.20512 -0.02182,0.305498 -0.03055,0.192027 -0.144021,0.340412 -0.109106,0.152749 -0.305498,0.23567 -0.192027,0.08728 -0.392783,0.08728 -0.274948,0 -0.488797,-0.113471 -0.318591,-0.170206 -0.427697,-0.558625 h 0.26622 q 0.06983,0.17457 0.187663,0.283677 0.183299,0.157113 0.458247,0.157113 0.244398,0 0.414604,-0.139656 0.200756,-0.165842 0.200756,-0.493161 v -0.100378 q -0.07856,0.135292 -0.270584,0.23567 -0.183299,0.08292 -0.392783,0.08292 -0.370962,0 -0.637182,-0.248763 -0.292405,-0.261855 -0.292405,-0.667731 0,-0.405876 0.292405,-0.67646 0.26622,-0.26622 0.637182,-0.26622 0.170206,0 0.327319,0.0611 0.218213,0.09165 0.32732,0.266219 l 0.0087,-0.283676 z m -1.592954,0.885944 q 0,0.288041 0.192027,0.497525 0.192028,0.20512 0.484433,0.20512 0.309862,0 0.50189,-0.23567 0.170206,-0.209484 0.170206,-0.466975 0,-0.279313 -0.196392,-0.488797 -0.192027,-0.209484 -0.475704,-0.209484 -0.288041,0 -0.484433,0.209484 -0.192027,0.209484 -0.192027,0.488797 z"
         style="font-size:4.23333px"
         id="path962" />
      <path
         d="m 62.481033,11.390638 h -1.58859 q 0,0.226941 0.20512,0.414605 0.20512,0.187663 0.453883,0.187663 0.222577,0 0.397147,-0.1222 0.152749,-0.104742 0.218213,-0.292405 h 0.26622 q -0.100378,0.292405 -0.336048,0.466976 -0.23567,0.17457 -0.545532,0.17457 -0.375326,0 -0.650275,-0.26622 -0.270584,-0.266219 -0.270584,-0.659003 0,-0.37969 0.270584,-0.654638 0.270584,-0.279313 0.650275,-0.279313 0.274948,0 0.497525,0.139657 0.183299,0.126563 0.29677,0.314226 0.06983,0.109107 0.104742,0.244398 0.03491,0.130928 0.03491,0.253127 z m -1.58859,-0.23567 h 1.326734 q -0.04364,-0.261855 -0.253127,-0.423333 -0.183299,-0.139656 -0.414604,-0.139656 -0.218213,0 -0.405876,0.139656 -0.209484,0.165842 -0.253127,0.423333 z"
         style="font-size:4.23333px"
         id="path964" />
      <path
         d="m 62.764705,12.219847 v -1.776253 h 0.253127 v 0.196392 q 0.04801,-0.07419 0.161478,-0.139656 0.161477,-0.100378 0.366598,-0.100378 0.178934,0 0.305498,0.05237 0.130927,0.04801 0.253126,0.170206 0.113471,0.09601 0.170207,0.257491 0.05674,0.161477 0.05674,0.362233 v 0.977594 h -0.257491 v -0.977594 q 0,-0.165841 -0.04364,-0.274948 -0.03928,-0.109106 -0.113471,-0.183299 -0.07419,-0.07856 -0.183298,-0.11347 -0.104743,-0.03928 -0.187663,-0.03928 -0.09165,0 -0.187664,0.03491 -0.09601,0.03491 -0.183298,0.109107 -0.06546,0.07419 -0.113471,0.187663 -0.04364,0.113471 -0.04364,0.26622 v 0.990686 z"
         style="font-size:4.23333px"
         id="path966" />
      <path
         d="m 66.190643,11.639401 h 0.274948 q -0.122199,0.248762 -0.292405,0.388419 -0.248763,0.196391 -0.597904,0.196391 -0.41024,0 -0.685188,-0.266219 -0.270584,-0.270584 -0.270584,-0.659003 0,-0.379691 0.279313,-0.654639 0.279312,-0.279312 0.676459,-0.279312 0.261856,0 0.488797,0.130927 0.274949,0.157114 0.397148,0.466976 h -0.270584 q -0.100378,-0.187663 -0.279313,-0.279313 -0.157113,-0.08729 -0.336048,-0.08729 -0.270583,0 -0.475704,0.178935 -0.226941,0.20512 -0.226941,0.519346 0,0.292406 0.200756,0.497526 0.20512,0.20512 0.501889,0.20512 0.244399,0 0.410241,-0.126564 0.122199,-0.07856 0.20512,-0.231305 z"
         style="font-size:4.23333px"
         id="path968" />
      <path
         d="m 68.503696,11.390638 h -1.58859 q 0,0.226941 0.20512,0.414605 0.20512,0.187663 0.453883,0.187663 0.222577,0 0.397147,-0.1222 0.152749,-0.104742 0.218213,-0.292405 h 0.26622 q -0.100378,0.292405 -0.336048,0.466976 -0.23567,0.17457 -0.545532,0.17457 -0.375326,0 -0.650274,-0.26622 -0.270584,-0.266219 -0.270584,-0.659003 0,-0.37969 0.270584,-0.654638 0.270584,-0.279313 0.650274,-0.279313 0.274948,0 0.497525,0.139657 0.183299,0.126563 0.29677,0.314226 0.06983,0.109107 0.104742,0.244398 0.03491,0.130928 0.03491,0.253127 z m -1.58859,-0.23567 h 1.326734 q -0.04364,-0.261855 -0.253127,-0.423333 -0.183298,-0.139656 -0.414604,-0.139656 -0.218213,0 -0.405876,0.139656 -0.209484,0.165842 -0.253127,0.423333 z"
         style="font-size:4.23333px"
         id="path970" />
    </g>
  </g>
</svg>
