<?xml version="1.0" encoding="UTF-8" standalone="no"?>
<!-- Created with Inkscape (http://www.inkscape.org/) -->

<svg
   version="1.1"
   id="svg1"
   width="294.80267"
   height="154.96001"
   viewBox="0 0 294.80267 154.96001"
   sodipodi:docname="secure.svg"
   inkscape:version="1.3.2 (091e20ef0f, 2023-11-25, custom)"
   inkscape:export-filename="../../../tmp/secure.png"
   inkscape:export-xdpi="96"
   inkscape:export-ydpi="96"
   xmlns:inkscape="http://www.inkscape.org/namespaces/inkscape"
   xmlns:sodipodi="http://sodipodi.sourceforge.net/DTD/sodipodi-0.dtd"
   xmlns="http://www.w3.org/2000/svg"
   xmlns:svg="http://www.w3.org/2000/svg">
  <defs
     id="defs1">
    <clipPath
       clipPathUnits="userSpaceOnUse"
       id="clipPath3">
      <path
         d="m 109.3359,99.9732 h 66.0772 c 14.1045,0 25.5388,-11.2626 25.5388,-25.1553 V 57.8534 c 0,-13.8928 -11.4343,-25.1553 -25.5388,-25.1553 H 43.2584 c -14.1046,0 -25.5388,11.2625 -25.5388,25.1553 v 16.9645 c 0,13.8927 11.4342,25.1553 25.5388,25.1553"
         transform="scale(0.9924672,1.0075973)"
         clip-rule="evenodd"
         id="path3" />
    </clipPath>
    <clipPath
       clipPathUnits="userSpaceOnUse"
       id="clipPath5">
      <path
         d="m 8.504,8.5045 v 99.212 H 212.598 V 8.5045"
         id="path5" />
    </clipPath>
    <clipPath
       clipPathUnits="userSpaceOnUse"
       id="clipPath7">
      <path
         d="m 8.504,8.5045 v 99.212 H 212.598 V 8.5045"
         id="path7" />
    </clipPath>
    <clipPath
       clipPathUnits="userSpaceOnUse"
       id="clipPath9">
      <path
         d="m 8.504,8.5045 v 99.212 H 212.598 V 8.5045"
         id="path9" />
    </clipPath>
    <clipPath
       clipPathUnits="userSpaceOnUse"
       id="clipPath11">
      <path
         d="m 8.504,8.5045 v 99.212 H 212.598 V 8.5045"
         id="path11" />
    </clipPath>
    <clipPath
       clipPathUnits="userSpaceOnUse"
       id="clipPath13">
      <path
         d="m 8.504,8.5045 v 99.212 H 212.598 V 8.5045"
         id="path13" />
    </clipPath>
    <clipPath
       clipPathUnits="userSpaceOnUse"
       id="clipPath15">
      <path
         d="m 8.504,8.5045 v 99.212 H 212.598 V 8.5045"
         id="path15" />
    </clipPath>
    <clipPath
       clipPathUnits="userSpaceOnUse"
       id="clipPath17">
      <path
         d="m 8.504,8.5045 v 99.212 H 212.598 V 8.5045"
         id="path17" />
    </clipPath>
    <clipPath
       clipPathUnits="userSpaceOnUse"
       id="clipPath19">
      <path
         d="m 8.504,8.5045 v 99.212 H 212.598 V 8.5045"
         id="path19" />
    </clipPath>
    <clipPath
       clipPathUnits="userSpaceOnUse"
       id="clipPath21">
      <path
         d="m 8.504,8.5045 v 99.212 H 212.598 V 8.5045"
         id="path21" />
    </clipPath>
    <clipPath
       clipPathUnits="userSpaceOnUse"
       id="clipPath23">
      <path
         d="m 8.504,8.5045 v 99.212 H 212.598 V 8.5045"
         id="path23" />
    </clipPath>
    <clipPath
       clipPathUnits="userSpaceOnUse"
       id="clipPath25">
      <path
         d="m 8.504,8.5045 v 99.212 H 212.598 V 8.5045"
         id="path25" />
    </clipPath>
    <clipPath
       clipPathUnits="userSpaceOnUse"
       id="clipPath27">
      <path
         d="m 8.504,8.5045 v 99.212 H 212.598 V 8.5045"
         id="path27" />
    </clipPath>
    <clipPath
       clipPathUnits="userSpaceOnUse"
       id="clipPath29">
      <path
         d="m 8.504,8.5045 v 99.212 H 212.598 V 8.5045"
         id="path29" />
    </clipPath>
    <clipPath
       clipPathUnits="userSpaceOnUse"
       id="clipPath31">
      <path
         d="m 8.504,8.5045 v 99.212 H 212.598 V 8.5045"
         id="path31" />
    </clipPath>
    <clipPath
       clipPathUnits="userSpaceOnUse"
       id="clipPath33">
      <path
         d="m 8.504,8.5045 v 99.212 H 212.598 V 8.5045"
         id="path33" />
    </clipPath>
    <clipPath
       clipPathUnits="userSpaceOnUse"
       id="clipPath35">
      <path
         d="m 8.504,8.5045 v 99.212 H 212.598 V 8.5045"
         transform="scale(0.9924672,1.0075973)"
         id="path35" />
    </clipPath>
    <clipPath
       clipPathUnits="userSpaceOnUse"
       id="clipPath37">
      <path
         d="m 8.504,8.5045 v 99.212 H 212.598 V 8.5045"
         transform="scale(0.9924672,1.0075973)"
         id="path37" />
    </clipPath>
  </defs>
  <sodipodi:namedview
     id="namedview1"
     pagecolor="#ffffff"
     bordercolor="#000000"
     borderopacity="0.25"
     inkscape:showpageshadow="2"
     inkscape:pageopacity="0.0"
     inkscape:pagecheckerboard="0"
     inkscape:deskcolor="#d1d1d1"
     inkscape:zoom="5.4115914"
     inkscape:cx="105.97622"
     inkscape:cy="99.878198"
     inkscape:window-width="3436"
     inkscape:window-height="1385"
     inkscape:window-x="0"
     inkscape:window-y="0"
     inkscape:window-maximized="0"
     inkscape:current-layer="g1">
    <inkscape:page
       x="0"
       y="0"
       inkscape:label="1"
       id="page1"
       width="294.80267"
       height="154.96001"
       margin="0"
       bleed="0" />
  </sodipodi:namedview>
  <g
     id="g1"
     inkscape:groupmode="layer"
     inkscape:label="1">
    <path
       id="path1"
       d="m 8.504,8.5045 h 204.094 v 99.212 H 8.504 Z"
       style="fill:#ffffff;fill-opacity:1;fill-rule:nonzero;stroke:none"
       transform="matrix(1.3333333,0,0,-1.3333333,0,154.96)" />
    <path
       id="path2"
       d="m 108.512,100.7323 h 65.5792 c 13.9983,0 25.3463,-11.3481 25.3463,-25.3463 V 58.2927 c 0,-13.9983 -11.348,-25.3463 -25.3463,-25.3463 H 42.9324 c -13.9983,0 -25.3463,11.348 -25.3463,25.3463 V 75.386 c 0,13.9982 11.348,25.3463 25.3463,25.3463 z"
       style="fill:none;stroke:#231f20;stroke-width:13.2196;stroke-linecap:butt;stroke-linejoin:miter;stroke-miterlimit:10;stroke-dasharray:none;stroke-opacity:1"
       transform="matrix(1.3434533,0,0,-1.32328,0,154.96)"
       clip-path="url(#clipPath3)" />
    <path
       id="path4"
       d="m 144.7781,10.7159 h 61.5034 v 31.9393 h -61.5034 z"
       style="fill:#ffffff;fill-opacity:1;fill-rule:nonzero;stroke:none"
       transform="matrix(1.3333333,0,0,-1.3333333,0,154.96)"
       clip-path="url(#clipPath5)" />
    <path
       id="path6"
       d="m 204.1057,75.1442 c 0,-15.4497 -12.7156,-27.9744 -28.4009,-27.9744 -15.6853,0 -28.4009,12.5247 -28.4009,27.9744 0,15.4498 12.7156,27.9745 28.4009,27.9745 15.6853,0 28.4009,-12.5247 28.4009,-27.9745"
       style="fill:#ffffff;fill-opacity:1;fill-rule:evenodd;stroke:none"
       transform="matrix(1.3333333,0,0,-1.3333333,0,154.96)"
       clip-path="url(#clipPath7)" />
    <path
       id="path8"
       d="m 150.6522,75.5316 h 0.001 c 0.0876,6.4501 2.727,12.6182 7.3644,17.1859 4.7166,4.6458 11.1141,7.2557 17.7842,7.2557 6.6703,0 13.0679,-2.6099 17.7845,-7.2557 4.637,-4.5677 7.2767,-10.7358 7.3643,-17.1859 h 0.003 v -25.992 h -7.023 v 25.992 h 0.013 c -0.0869,4.6199 -1.988,9.0328 -5.3113,12.3063 -3.403,3.3515 -8.0183,5.2345 -12.8305,5.2345 -4.8122,0 -9.4279,-1.883 -12.8305,-5.2345 -3.3493,-3.2991 -5.2544,-7.7556 -5.3133,-12.4152 h -0.0201 V 49.5396 h -6.9863 v 25.8831"
       style="fill:#808080;fill-opacity:1;fill-rule:evenodd;stroke:none"
       transform="matrix(1.3333333,0,0,-1.3333333,0,154.96)"
       clip-path="url(#clipPath9)" />
    <path
       id="path10"
       d="m 147.832,16.0918 h 55.943 v 42.9719 h -55.943 z"
       style="fill:#44bb56;fill-opacity:1;fill-rule:nonzero;stroke:none"
       transform="matrix(1.3333333,0,0,-1.3333333,0,154.96)"
       clip-path="url(#clipPath11)" />
    <path
       id="path18"
       d="m 70.8977,30.6963 2.2125,-4.4152 4.9467,-0.7081 -3.5794,-3.4368 0.8445,-4.8531 -4.4243,2.2914 -4.4249,-2.2911 0.8452,4.8531 -3.5791,3.4368 4.9467,0.7078"
       style="fill:#44bb56;fill-opacity:1;fill-rule:evenodd;stroke:none"
       transform="matrix(1.3333333,0,0,-1.3333333,0,154.96)"
       clip-path="url(#clipPath19)" />
    <path
       id="path20"
       d="m 87.0249,30.6963 2.2121,-4.4152 4.9471,-0.7081 -3.5798,-3.4368 0.8449,-4.8531 -4.4246,2.2914 -4.4246,-2.2911 0.8452,4.8531 -3.5791,3.4371 4.9467,0.7075"
       style="fill:#44bb56;fill-opacity:1;fill-rule:evenodd;stroke:none"
       transform="matrix(1.3333333,0,0,-1.3333333,0,154.96)"
       clip-path="url(#clipPath21)" />
    <path
       id="path22"
       d="m 103.3692,30.6963 2.2125,-4.4152 4.9467,-0.7081 -3.5798,-3.4368 0.8449,-4.8531 -4.4243,2.2914 -4.4249,-2.2911 0.8452,4.8531 -3.5791,3.4371 4.9467,0.7075"
       style="fill:#44bb56;fill-opacity:1;fill-rule:evenodd;stroke:none"
       transform="matrix(1.3333333,0,0,-1.3333333,0,154.96)"
       clip-path="url(#clipPath23)" />
    <path
       id="path24"
       d="m 119.574,30.6963 2.2124,-4.4152 4.9468,-0.7081 -3.5798,-3.4368 0.8448,-4.8531 -4.4245,2.2914 -4.4246,-2.2911 0.8451,4.8531 -3.579,3.4371 4.9467,0.7075"
       style="fill:#44bb56;fill-opacity:1;fill-rule:evenodd;stroke:none"
       transform="matrix(1.3333333,0,0,-1.3333333,0,154.96)"
       clip-path="url(#clipPath25)" />
    <path
       id="path26"
       d="m 135.7788,30.6963 2.2121,-4.4152 4.947,-0.7081 -3.5797,-3.4368 0.8448,-4.8531 -4.4246,2.2914 -4.4245,-2.2911 0.8451,4.8531 -3.5791,3.4371 4.9468,0.7075"
       style="fill:#44bb56;fill-opacity:1;fill-rule:evenodd;stroke:none"
       transform="matrix(1.3333333,0,0,-1.3333333,0,154.96)"
       clip-path="url(#clipPath27)" />
    <path
       id="path32"
       d="m 144.8607,73.1959 h 0.5907 l 0.5275,-1.4566 0.5315,1.4566 h 0.5871 v -2.0346 h -0.379 v 1.6417 l -0.5714,-1.6417 h -0.3307 l -0.5767,1.6417 v -1.6417 h -0.379 z m -1.4359,-0.3394 h -0.6753 v 0.3394 h 1.7609 v -0.3394 h -0.6753 v -1.6952 h -0.4103"
       style="fill:#231f20;fill-opacity:1;fill-rule:evenodd;stroke:none"
       transform="matrix(1.3333333,0,0,-1.3333333,0,154.96)"
       clip-path="url(#clipPath33)" />
    <path
       id="path34"
       d="m 161.7798,38.9702 10.7647,-11.5199 15.1081,24.3618"
       style="fill:none;stroke:#231f20;stroke-width:6.6098;stroke-linecap:butt;stroke-linejoin:miter;stroke-miterlimit:10;stroke-dasharray:none;stroke-opacity:1"
       transform="matrix(1.3434533,0,0,-1.32328,0,154.96)"
       clip-path="url(#clipPath35)" />
    <path
       id="path36"
       d="m 161.0081,39.0608 10.7644,-11.5199 15.108,24.3617"
       style="fill:none;stroke:#ffffff;stroke-width:6.6098;stroke-linecap:butt;stroke-linejoin:miter;stroke-miterlimit:10;stroke-dasharray:none;stroke-opacity:1"
       transform="matrix(1.3434533,0,0,-1.32328,0,154.96)"
       clip-path="url(#clipPath37)" />
    <path
       style="font-size:16.7889px;font-family:'Asimov Print';-inkscape-font-specification:'Asimov Print, Normal';letter-spacing:0.954354px;stroke-width:3.60555;stroke-linejoin:round;paint-order:stroke markers fill"
       d="m 49.305846,48.106603 c 0.268622,0 0.621189,-0.251834 0.621189,-0.637978 v -1.997879 c 0,-0.268623 -0.235045,-0.62119 -0.621189,-0.62119 h -9.720774 c -0.268622,0 -0.637978,0.235045 -0.637978,0.62119 v 1.997879 c 0,0.268622 0.251834,0.637978 0.637978,0.637978 h 2.954847 v 9.301051 c 0,0.268622 0.251833,0.637978 0.637978,0.637978 h 2.467968 c 0.268623,0 0.62119,-0.251833 0.62119,-0.637978 v -9.301051 z m 12.051817,9.939029 c 0.268623,0 0.637979,-0.251833 0.637979,-0.637978 V 45.470746 c 0,-0.268623 -0.251834,-0.62119 -0.637979,-0.62119 h -2.451179 c -0.268623,0 -0.637978,0.235045 -0.637978,0.62119 v 4.214014 h -3.525669 v -4.214014 c 0,-0.268623 -0.251834,-0.62119 -0.637979,-0.62119 H 51.63689 c -0.268622,0 -0.621189,0.235045 -0.621189,0.62119 v 11.936908 c 0,0.268622 0.235044,0.637978 0.621189,0.637978 h 2.467968 c 0.268623,0 0.637979,-0.251833 0.637979,-0.637978 v -4.499425 h 3.525669 v 4.499425 c 0,0.268622 0.251833,0.637978 0.637978,0.637978 z m 5.705602,0 c 0.268622,0 0.621189,-0.251833 0.621189,-0.637978 V 45.470746 c 0,-0.268623 -0.235045,-0.62119 -0.621189,-0.62119 h -2.45118 c -0.268622,0 -0.621189,0.235045 -0.621189,0.62119 v 11.936908 c 0,0.268622 0.235045,0.637978 0.621189,0.637978 z m 7.552399,-3.05558 c -1.259167,0 -1.729257,-0.318989 -1.729257,-1.343112 0,-0.268622 -0.235044,-0.637978 -0.621189,-0.637978 H 69.79725 c -0.268623,0 -0.637979,0.251833 -0.637979,0.637978 0,0.520456 0.100734,1.007334 0.251834,1.443846 0.721923,2.031457 2.736591,3.122735 5.204559,3.122735 0.705134,0 1.359901,-0.100733 1.964301,-0.268622 1.578157,-0.453301 2.988425,-1.594946 2.988425,-3.693558 0,-0.554034 -0.100734,-1.091279 -0.3022,-1.561368 -0.738712,-1.712468 -2.484758,-2.417602 -4.096492,-2.90448 -0.755501,-0.235045 -1.275957,-0.4533 -1.594946,-0.654767 -0.285411,-0.184678 -0.318989,-0.335778 -0.318989,-0.470089 0,-0.486878 0.318989,-0.755501 1.259168,-0.755501 0.973756,0 1.359901,0.335778 1.359901,1.091279 0,0.268622 0.235044,0.621189 0.621189,0.621189 H 78.9472 c 0.268623,0 0.62119,-0.235045 0.62119,-0.621189 0,-0.637978 -0.134311,-1.208801 -0.369356,-1.746046 -0.77229,-1.628523 -2.45118,-2.568702 -4.633737,-2.568702 -0.705133,0 -1.359901,0.08394 -1.964301,0.268623 -1.494212,0.4533 -3.072369,1.578156 -3.072369,3.693558 0,0.6044 0.134311,1.141645 0.386145,1.645312 0.839445,1.561368 2.518335,2.232924 4.046125,2.719802 0.486878,0.1511 0.839445,0.268622 1.108067,0.386145 0.62119,0.285411 0.77229,0.386144 0.77229,0.873022 0,0.47009 -0.285411,0.721923 -1.22559,0.721923 z m 16.397543,0 c -1.259167,0 -1.729257,-0.318989 -1.729257,-1.343112 0,-0.268622 -0.235044,-0.637978 -0.621189,-0.637978 h -2.467968 c -0.268623,0 -0.637979,0.251833 -0.637979,0.637978 0,0.520456 0.100734,1.007334 0.251834,1.443846 0.721923,2.031457 2.736591,3.122735 5.204559,3.122735 0.705134,0 1.359901,-0.100733 1.964301,-0.268622 1.578157,-0.453301 2.988425,-1.594946 2.988425,-3.693558 0,-0.554034 -0.100734,-1.091279 -0.302201,-1.561368 -0.738711,-1.712468 -2.484757,-2.417602 -4.096491,-2.90448 -0.755501,-0.235045 -1.275957,-0.4533 -1.594946,-0.654767 -0.285411,-0.184678 -0.318989,-0.335778 -0.318989,-0.470089 0,-0.486878 0.318989,-0.755501 1.259168,-0.755501 0.973756,0 1.359901,0.335778 1.359901,1.091279 0,0.268622 0.235044,0.621189 0.621189,0.621189 h 2.451179 c 0.268623,0 0.62119,-0.235045 0.62119,-0.621189 0,-0.637978 -0.134312,-1.208801 -0.369356,-1.746046 -0.77229,-1.628523 -2.45118,-2.568702 -4.633737,-2.568702 -0.705133,0 -1.359901,0.08394 -1.964301,0.268623 -1.494212,0.4533 -3.072369,1.578156 -3.072369,3.693558 0,0.6044 0.134311,1.141645 0.386145,1.645312 0.839445,1.561368 2.518335,2.232924 4.046125,2.719802 0.486878,0.1511 0.839445,0.268622 1.108067,0.386145 0.62119,0.285411 0.77229,0.386144 0.77229,0.873022 0,0.47009 -0.285412,0.721923 -1.22559,0.721923 z m 11.061283,-5.657859 -1.89715,-4.13007 c -0.084,-0.184678 -0.31899,-0.352567 -0.570823,-0.352567 h -2.703013 c -1.141645,0 -0.554034,0.906601 -0.554034,0.906601 l 3.82787,7.471061 v 4.180436 c 0,0.268622 0.25183,0.637978 0.63798,0.637978 h 2.50154 c 0.26863,0 0.62119,-0.251833 0.62119,-0.637978 v -4.180436 l 3.86145,-7.471061 c 0.52046,-1.024123 -0.55403,-0.906601 -0.55403,-0.906601 h -2.68623 c -0.20146,0 -0.47009,0.117523 -0.57082,0.352567 z m 11.39705,5.657859 c -1.25917,0 -1.72926,-0.318989 -1.72926,-1.343112 0,-0.268622 -0.23504,-0.637978 -0.62119,-0.637978 h -2.46797 c -0.26862,0 -0.63797,0.251833 -0.63797,0.637978 0,0.520456 0.10073,1.007334 0.25183,1.443846 0.72192,2.031457 2.73659,3.122735 5.20456,3.122735 0.70513,0 1.3599,-0.100733 1.9643,-0.268622 1.57816,-0.453301 2.98842,-1.594946 2.98842,-3.693558 0,-0.554034 -0.10073,-1.091279 -0.3022,-1.561368 -0.73871,-1.712468 -2.48475,-2.417602 -4.09649,-2.90448 -0.7555,-0.235045 -1.27595,-0.4533 -1.59494,-0.654767 -0.28541,-0.184678 -0.31899,-0.335778 -0.31899,-0.470089 0,-0.486878 0.31899,-0.755501 1.25917,-0.755501 0.97375,0 1.3599,0.335778 1.3599,1.091279 0,0.268622 0.23504,0.621189 0.62119,0.621189 h 2.45118 c 0.26862,0 0.62118,-0.235045 0.62118,-0.621189 0,-0.637978 -0.13431,-1.208801 -0.36935,-1.746046 -0.77229,-1.628523 -2.45118,-2.568702 -4.63374,-2.568702 -0.70513,0 -1.3599,0.08394 -1.9643,0.268623 -1.49421,0.4533 -3.07237,1.578156 -3.07237,3.693558 0,0.6044 0.13431,1.141645 0.38615,1.645312 0.83944,1.561368 2.51833,2.232924 4.04612,2.719802 0.48688,0.1511 0.83945,0.268622 1.10807,0.386145 0.62119,0.285411 0.77229,0.386144 0.77229,0.873022 0,0.47009 -0.28541,0.721923 -1.22559,0.721923 z m 15.93006,-6.883449 c 0.26862,0 0.62119,-0.251834 0.62119,-0.637978 v -1.997879 c 0,-0.268623 -0.23504,-0.62119 -0.62119,-0.62119 h -9.72077 c -0.26862,0 -0.63798,0.235045 -0.63798,0.62119 v 1.997879 c 0,0.268622 0.25183,0.637978 0.63798,0.637978 h 2.95485 v 9.301051 c 0,0.268622 0.25183,0.637978 0.63797,0.637978 h 2.46797 c 0.26862,0 0.62119,-0.251833 0.62119,-0.637978 v -9.301051 z m 9.5167,4.768048 c 0.26862,0 0.62119,-0.251834 0.62119,-0.637979 v -1.930723 c 0,-0.268622 -0.23505,-0.621189 -0.62119,-0.621189 h -4.07971 v -1.578157 h 4.88557 c 0.26863,0 0.62119,-0.251834 0.62119,-0.637978 v -1.997879 c 0,-0.268623 -0.23504,-0.62119 -0.62119,-0.62119 h -7.99151 c -0.26863,0 -0.62119,0.235045 -0.62119,0.62119 v 11.936908 c 0,0.268622 0.23504,0.637978 0.62119,0.637978 h 8.0083 c 0.26862,0 0.63798,-0.251833 0.63798,-0.637978 v -1.98109 c 0,-0.268623 -0.25183,-0.637979 -0.63798,-0.637979 h -4.90236 v -1.913934 z m 7.01515,-7.622161 c -0.0671,-0.218256 -0.3022,-0.402934 -0.58761,-0.402934 h -3.22347 c -0.26862,0 -0.62119,0.235045 -0.62119,0.62119 v 11.936908 c 0,0.268622 0.23505,0.637978 0.62119,0.637978 h 2.46797 c 0.26862,0 0.63798,-0.251833 0.63798,-0.637978 v -3.257047 c 0,0 -0.0168,-0.01679 -0.0168,-0.03358 l -0.0672,-1.511001 1.82999,5.019882 c 0.0672,0.201466 0.3022,0.419722 0.58762,0.419722 h 1.67889 c 0.21825,0 0.48687,-0.1511 0.58761,-0.419722 l 1.82999,-5.070248 -0.0504,1.578156 v 3.273836 c 0,0.268622 0.23504,0.637978 0.62119,0.637978 h 2.46797 c 0.26862,0 0.63798,-0.251833 0.63798,-0.637978 V 45.470746 c 0,-0.268623 -0.25184,-0.62119 -0.63798,-0.62119 H 151.457 c -0.23504,0 -0.50367,0.1511 -0.58761,0.419723 l -2.45118,6.967393 z m 19.58743,12.793142 c 0.26862,0 0.62119,-0.251833 0.62119,-0.637978 V 45.470746 c 0,-0.268623 -0.23504,-0.62119 -0.62119,-0.62119 h -2.45118 c -0.26862,0 -0.62119,0.235045 -0.62119,0.62119 v 11.936908 c 0,0.268622 0.23505,0.637978 0.62119,0.637978 z m 7.55239,-3.05558 c -1.25917,0 -1.72926,-0.318989 -1.72926,-1.343112 0,-0.268622 -0.23504,-0.637978 -0.62119,-0.637978 h -2.46796 c -0.26863,0 -0.63798,0.251833 -0.63798,0.637978 0,0.520456 0.10073,1.007334 0.25183,1.443846 0.72192,2.031457 2.73659,3.122735 5.20456,3.122735 0.70513,0 1.3599,-0.100733 1.9643,-0.268622 1.57816,-0.453301 2.98843,-1.594946 2.98843,-3.693558 0,-0.554034 -0.10074,-1.091279 -0.30221,-1.561368 -0.73871,-1.712468 -2.48475,-2.417602 -4.09649,-2.90448 -0.7555,-0.235045 -1.27595,-0.4533 -1.59494,-0.654767 -0.28541,-0.184678 -0.31899,-0.335778 -0.31899,-0.470089 0,-0.486878 0.31899,-0.755501 1.25917,-0.755501 0.97375,0 1.3599,0.335778 1.3599,1.091279 0,0.268622 0.23504,0.621189 0.62119,0.621189 h 2.45118 c 0.26862,0 0.62119,-0.235045 0.62119,-0.621189 0,-0.637978 -0.13432,-1.208801 -0.36936,-1.746046 -0.77229,-1.628523 -2.45118,-2.568702 -4.63374,-2.568702 -0.70513,0 -1.3599,0.08394 -1.9643,0.268623 -1.49421,0.4533 -3.07237,1.578156 -3.07237,3.693558 0,0.6044 0.13431,1.141645 0.38615,1.645312 0.83944,1.561368 2.51833,2.232924 4.04612,2.719802 0.48688,0.1511 0.83945,0.268622 1.10807,0.386145 0.62119,0.285411 0.77229,0.386144 0.77229,0.873022 0,0.47009 -0.28541,0.721923 -1.22559,0.721923 z"
       id="text37-9"
       inkscape:label="THIS SYSTEM IS"
       transform="scale(1.0829819,0.92337646)"
       aria-label="THIS SYSTEM IS" />
    <g
       id="g38"
       transform="matrix(0.98303821,0,0,1.0000043,-86.540012,-143.00901)"
       inkscape:label="g38">
      <path
         style="font-weight:500;font-size:41.7622px;font-family:'Asimov Print';-inkscape-font-specification:'Asimov Print, Medium';letter-spacing:0.992734px;fill:#000100;stroke-width:18.497;stroke-linejoin:round;paint-order:stroke markers fill"
         d="m 150.07527,216.5908 c -3.13217,0 -4.30151,-0.79349 -4.30151,-3.34098 0,-0.66819 -0.58467,-1.58696 -1.5452,-1.58696 h -6.13904 c -0.6682,0 -1.58697,0.62643 -1.58697,1.58696 0,1.29463 0.25058,2.50573 0.62644,3.59155 1.79577,5.05323 6.80723,7.76777 12.94628,7.76777 1.75401,0 3.38274,-0.25057 4.88617,-0.6682 3.92565,-1.12758 7.43368,-3.96741 7.43368,-9.18768 0,-1.37815 -0.25058,-2.71454 -0.75172,-3.88388 -1.83754,-4.25975 -6.18081,-6.01376 -10.18998,-7.22487 -1.8793,-0.58467 -3.17393,-1.12757 -3.96741,-1.62872 -0.70996,-0.45939 -0.79348,-0.83525 -0.79348,-1.16934 0,-1.21111 0.79348,-1.8793 3.13216,-1.8793 2.42221,0 3.38274,0.83524 3.38274,2.71454 0,0.6682 0.58467,1.5452 1.5452,1.5452 h 6.09728 c 0.6682,0 1.54521,-0.58467 1.54521,-1.5452 0,-1.58696 -0.3341,-3.00688 -0.91877,-4.34327 -1.92106,-4.05093 -6.09728,-6.38961 -11.52637,-6.38961 -1.75401,0 -3.38274,0.20881 -4.88618,0.66819 -3.71683,1.12758 -7.64248,3.92565 -7.64248,9.18769 0,1.50343 0.3341,2.83982 0.96053,4.09269 2.08811,3.88389 6.26433,5.55437 10.06469,6.76548 1.21111,0.37586 2.08811,0.66819 2.75631,0.96053 1.5452,0.70995 1.92106,0.96053 1.92106,2.17163 0,1.16934 -0.70996,1.79578 -3.04864,1.79578 z m 33.73431,-5.26204 c 0.6682,0 1.5452,-0.62643 1.5452,-1.58696 v -4.80266 c 0,-0.66819 -0.58467,-1.5452 -1.5452,-1.5452 h -10.14821 v -3.92565 h 12.1528 c 0.66819,0 1.5452,-0.62643 1.5452,-1.58696 v -4.9697 c 0,-0.6682 -0.58467,-1.5452 -1.5452,-1.5452 h -19.87881 c -0.6682,0 -1.5452,0.58467 -1.5452,1.5452 v 29.69292 c 0,0.6682 0.58467,1.58697 1.5452,1.58697 h 19.92057 c 0.66819,0 1.58696,-0.62644 1.58696,-1.58697 v -4.92794 c 0,-0.66819 -0.62643,-1.58696 -1.58696,-1.58696 h -12.19456 v -4.76089 z m 17.9482,5.09499 c -3.54979,0 -4.46856,-2.58926 -4.46856,-7.68425 v -1.96282 c 0,-5.3038 1.12758,-7.72601 4.55208,-7.72601 3.0904,0 4.0927,1.08582 4.25975,4.00917 0.0418,0.75172 0.66819,1.50344 1.5452,1.50344 h 6.13904 c 1.33639,0 1.62873,-1.08581 1.5452,-1.75401 -0.79348,-7.1831 -5.51261,-11.86046 -13.48919,-11.86046 -2.04635,0 -3.96741,0.37586 -5.67966,1.12758 -5.3038,2.29692 -8.22715,7.726 -8.22715,14.74205 v 1.92106 c 0,2.33869 0.25057,4.46856 0.91877,6.43138 1.71225,5.3038 5.93023,9.43826 12.90452,9.43826 1.96282,0 3.80036,-0.29234 5.42908,-0.87701 4.55208,-1.62872 7.68425,-5.34556 8.10187,-10.89993 0.0835,-1.08582 -0.75172,-1.67049 -1.5452,-1.67049 h -6.13904 c -0.75172,0 -1.50344,0.58467 -1.54521,1.46168 -0.16704,2.83983 -1.16934,3.80036 -4.3015,3.80036 z m 28.05461,0.0835 c -2.67278,0 -3.71684,-1.00229 -3.71684,-4.00917 v -19.58647 c 0,-0.6682 -0.58467,-1.5452 -1.5452,-1.5452 h -6.09728 c -0.6682,0 -1.5452,0.58467 -1.5452,1.5452 v 19.58647 c 0,1.8793 0.3341,3.63331 0.96053,5.17851 1.92106,4.4268 6.13904,6.93253 11.94399,6.93253 1.75401,0 3.50802,-0.25057 5.05322,-0.75172 4.63561,-1.46168 7.93482,-5.38732 7.93482,-11.35932 v -19.58647 c 0,-0.6682 -0.62643,-1.5452 -1.58696,-1.5452 h -6.13905 c -0.66819,0 -1.5452,0.58467 -1.5452,1.5452 v 19.58647 c 0,3.04864 -1.00229,4.00917 -3.71683,4.00917 z m 28.43054,-25.14084 h -11.06698 c -0.6682,0 -1.5452,0.58467 -1.5452,1.5452 v 29.69292 c 0,0.6682 0.58467,1.58697 1.5452,1.58697 h 6.13904 c 0.6682,0 1.58696,-0.62644 1.58696,-1.58697 v -9.27121 h 2.33869 l 5.13675,9.98117 c 0.25057,0.50115 0.79348,0.87701 1.37815,0.87701 h 6.55667 c 0.66819,0 1.5452,-0.62644 1.5452,-1.58697 v -0.29233 c 0,-0.25058 -0.0418,-0.54291 -0.16705,-0.75172 l -5.67966,-10.73289 c 2.79807,-1.71225 4.76089,-4.51031 4.76089,-8.93711 0,-7.43367 -5.67966,-10.52407 -12.52866,-10.52407 z m 3.25745,11.02522 c 0,2.00458 -0.877,2.83983 -3.25745,2.83983 h -3.34098 v -5.76319 h 3.34098 c 2.42221,0 3.25745,0.83525 3.25745,2.92336 z m 31.18682,8.93711 c 0.6682,0 1.5452,-0.62643 1.5452,-1.58696 v -4.80266 c 0,-0.66819 -0.58467,-1.5452 -1.5452,-1.5452 h -10.14821 v -3.92565 h 12.1528 c 0.66819,0 1.5452,-0.62643 1.5452,-1.58696 v -4.9697 c 0,-0.6682 -0.58467,-1.5452 -1.5452,-1.5452 h -19.87881 c -0.6682,0 -1.5452,0.58467 -1.5452,1.5452 v 29.69292 c 0,0.6682 0.58467,1.58697 1.5452,1.58697 h 19.92057 c 0.66819,0 1.58696,-0.62644 1.58696,-1.58697 v -4.92794 c 0,-0.66819 -0.62643,-1.58696 -1.58696,-1.58696 h -12.19456 v -4.76089 z"
         id="text38-1"
         inkscape:label="SECURE SHADOW"
         transform="scale(0.95236319,1.0500196)"
         aria-label="SECURE" />
      <path
         style="font-weight:500;font-size:41.7651px;font-family:'Asimov Print';-inkscape-font-specification:'Asimov Print, Medium';letter-spacing:0.988416px;fill:#44bb56;stroke-width:18.4983;stroke-linejoin:round;paint-order:stroke markers fill"
         d="m 148.94947,215.62038 c -3.13238,0 -4.3018,-0.79354 -4.3018,-3.34121 0,-0.66824 -0.58471,-1.58707 -1.54531,-1.58707 h -6.13947 c -0.66824,0 -1.58707,0.62647 -1.58707,1.58707 0,1.29472 0.25059,2.50591 0.62647,3.5918 1.7959,5.05358 6.80771,7.76831 12.94718,7.76831 1.75414,0 3.38298,-0.25059 4.88652,-0.66824 3.92592,-1.12766 7.43419,-3.96769 7.43419,-9.18833 0,-1.37824 -0.25059,-2.71473 -0.75177,-3.88415 -1.83767,-4.26004 -6.18124,-6.01417 -10.19069,-7.22536 -1.87943,-0.58471 -3.17415,-1.12766 -3.96768,-1.62884 -0.71001,-0.45942 -0.79354,-0.8353 -0.79354,-1.16942 0,-1.21119 0.79354,-1.87943 3.13238,-1.87943 2.42238,0 3.38298,0.8353 3.38298,2.71473 0,0.66824 0.58471,1.54531 1.5453,1.54531 h 6.09771 c 0.66824,0 1.54531,-0.58472 1.54531,-1.54531 0,-1.58708 -0.33412,-3.00709 -0.91883,-4.34357 -1.9212,-4.05122 -6.09771,-6.39006 -11.52717,-6.39006 -1.75414,0 -3.38297,0.20882 -4.88652,0.66824 -3.71709,1.12766 -7.64301,3.92592 -7.64301,9.18832 0,1.50354 0.33412,2.84003 0.9606,4.09298 2.08825,3.88415 6.26476,5.55476 10.06538,6.76595 1.21119,0.37588 2.08826,0.66824 2.7565,0.96059 1.54531,0.71001 1.9212,0.9606 1.9212,2.17179 0,1.16942 -0.71001,1.7959 -3.04886,1.7959 z m 33.73227,-5.2624 c 0.66824,0 1.54531,-0.62648 1.54531,-1.58708 v -4.80298 c 0,-0.66825 -0.58471,-1.54531 -1.54531,-1.54531 h -10.14892 v -3.92592 h 12.15365 c 0.66824,0 1.5453,-0.62648 1.5453,-1.58708 v -4.97004 c 0,-0.66824 -0.58471,-1.54531 -1.5453,-1.54531 h -19.88019 c -0.66824,0 -1.54531,0.58471 -1.54531,1.54531 v 29.69498 c 0,0.66824 0.58471,1.58708 1.54531,1.58708 h 19.92195 c 0.66824,0 1.58707,-0.62648 1.58707,-1.58708 v -4.92828 c 0,-0.66824 -0.62647,-1.58707 -1.58707,-1.58707 h -12.19541 v -4.76122 z m 17.94506,5.09534 c -3.55003,0 -4.46887,-2.58944 -4.46887,-7.68478 v -1.96296 c 0,-5.30417 1.12766,-7.72654 4.5524,-7.72654 3.09062,0 4.09298,1.08589 4.26004,4.00945 0.0418,0.75177 0.66824,1.50354 1.54531,1.50354 h 6.13947 c 1.33648,0 1.62884,-1.08589 1.54531,-1.75413 -0.79354,-7.1836 -5.513,-11.86129 -13.49013,-11.86129 -2.04649,0 -3.96769,0.37588 -5.68005,1.12765 -5.30417,2.29709 -8.22773,7.72655 -8.22773,14.74308 v 1.9212 c 0,2.33884 0.25059,4.46886 0.91883,6.43182 1.71237,5.30417 5.93065,9.43892 12.90542,9.43892 1.96296,0 3.80062,-0.29236 5.42946,-0.87707 4.5524,-1.62884 7.68478,-5.34593 8.10243,-10.90069 0.0835,-1.08589 -0.75177,-1.67061 -1.54531,-1.67061 h -6.13947 c -0.75177,0 -1.50354,0.58472 -1.54531,1.46178 -0.16706,2.84003 -1.16942,3.80063 -4.3018,3.80063 z m 28.05217,0.0835 c -2.67297,0 -3.7171,-1.00236 -3.7171,-4.00945 v -19.58783 c 0,-0.66824 -0.58471,-1.54531 -1.54531,-1.54531 h -6.0977 c -0.66824,0 -1.54531,0.58471 -1.54531,1.54531 v 19.58783 c 0,1.87943 0.33412,3.63356 0.9606,5.17887 1.92119,4.4271 6.13947,6.93301 11.94482,6.93301 1.75413,0 3.50826,-0.25059 5.05357,-0.75178 4.63593,-1.46177 7.93537,-5.38769 7.93537,-11.3601 v -19.58783 c 0,-0.66824 -0.62648,-1.54531 -1.58707,-1.54531 h -6.13947 c -0.66824,0 -1.54531,0.58471 -1.54531,1.54531 v 19.58783 c 0,3.04885 -1.00236,4.00945 -3.71709,4.00945 z m 28.42812,-25.14259 h -11.06775 c -0.66824,0 -1.54531,0.58471 -1.54531,1.54531 v 29.69498 c 0,0.66824 0.58472,1.58708 1.54531,1.58708 h 6.13947 c 0.66824,0 1.58708,-0.62648 1.58708,-1.58708 v -9.27185 h 2.33884 l 5.13711,9.98186 c 0.25059,0.50118 0.79354,0.87707 1.37825,0.87707 h 6.55712 c 0.66824,0 1.54531,-0.62648 1.54531,-1.58708 v -0.29235 c 0,-0.25059 -0.0418,-0.54295 -0.16706,-0.75178 l -5.68006,-10.73363 c 2.79826,-1.71236 4.76122,-4.51063 4.76122,-8.93773 0,-7.43418 -5.68005,-10.5248 -12.52953,-10.5248 z m 3.25768,11.02598 c 0,2.00473 -0.87706,2.84003 -3.25768,2.84003 h -3.3412 v -5.76358 h 3.3412 c 2.42238,0 3.25768,0.8353 3.25768,2.92355 z m 31.1846,8.93774 c 0.66824,0 1.54531,-0.62648 1.54531,-1.58708 v -4.80298 c 0,-0.66825 -0.58471,-1.54531 -1.54531,-1.54531 h -10.14892 v -3.92592 h 12.15365 c 0.66824,0 1.54531,-0.62648 1.54531,-1.58708 v -4.97004 c 0,-0.66824 -0.58472,-1.54531 -1.54531,-1.54531 h -19.88019 c -0.66824,0 -1.54531,0.58471 -1.54531,1.54531 v 29.69498 c 0,0.66824 0.58471,1.58708 1.54531,1.58708 h 19.92195 c 0.66824,0 1.58708,-0.62648 1.58708,-1.58708 v -4.92828 c 0,-0.66824 -0.62648,-1.58707 -1.58708,-1.58707 h -12.19541 v -4.76122 z"
         id="text38"
         inkscape:label="SECURE"
         transform="scale(0.95243002,1.0499459)"
         aria-label="SECURE" />
    </g>
    <path
       d="m 27.142034,121.99148 c 0.521527,0 0.730138,0.23706 0.730138,0.83445 0,0.63531 -0.180164,0.89133 -0.587903,0.89133 -0.388775,0 -0.568939,-0.18016 -0.606868,-0.55945 -0.01897,-0.17068 -0.161199,-0.33188 -0.350845,-0.33188 h -1.327524 c -0.218093,0 -0.360328,0.18016 -0.350845,0.36981 0.0095,0.36032 0.09482,0.70169 0.256022,0.99564 0.417222,0.78703 1.27063,1.32752 2.38006,1.32752 0.426704,0 0.815479,-0.0853 1.147359,-0.22757 0.881855,-0.3793 1.488723,-1.21374 1.488723,-2.38955 0,-1.50768 -0.824961,-2.61711 -2.417989,-2.61711 -0.208611,0 -0.407739,0.019 -0.597386,0.0664 l 0.06638,-0.55945 h 2.370577 c 0.151717,0 0.350846,-0.13276 0.350846,-0.35085 v -1.11891 c 0,-0.15172 -0.132753,-0.35085 -0.350846,-0.35085 h -3.783442 c -0.161199,0 -0.33188,0.12327 -0.350845,0.31292 l -0.388775,3.42311 c -0.01896,0.15172 0.08534,0.33188 0.265505,0.3793 l 1.071501,0.2655 c 0.09482,0.0285 0.24654,0.009 0.341363,-0.0853 0.161199,-0.1612 0.303434,-0.27499 0.644797,-0.27499 z m 7.946731,4.00154 c 0.132752,0 0.293951,-0.0853 0.341363,-0.23706 l 2.474883,-7.32034 c 0.170681,-0.52153 -0.341363,-0.46464 -0.341363,-0.46464 h -0.995643 c -0.132752,0 -0.293952,0.0853 -0.341363,0.23706 l -2.474883,7.32034 c -0.170682,0.52153 0.341363,0.46464 0.341363,0.46464 z m 9.425963,-4.00154 c 0.521527,0 0.730138,0.23706 0.730138,0.83445 0,0.63531 -0.180164,0.89133 -0.587903,0.89133 -0.388775,0 -0.568939,-0.18016 -0.606868,-0.55945 -0.01897,-0.17068 -0.161199,-0.33188 -0.350845,-0.33188 h -1.327524 c -0.218093,0 -0.360328,0.18016 -0.350845,0.36981 0.0095,0.36032 0.09482,0.70169 0.256022,0.99564 0.417222,0.78703 1.27063,1.32752 2.38006,1.32752 0.426704,0 0.815479,-0.0853 1.147359,-0.22757 0.881855,-0.3793 1.488723,-1.21374 1.488723,-2.38955 0,-1.50768 -0.824961,-2.61711 -2.417989,-2.61711 -0.208611,0 -0.407739,0.019 -0.597386,0.0664 l 0.06638,-0.55945 h 2.370577 c 0.151717,0 0.350846,-0.13276 0.350846,-0.35085 v -1.11891 c 0,-0.15172 -0.132753,-0.35085 -0.350846,-0.35085 h -3.783442 c -0.161199,0 -0.33188,0.12327 -0.350845,0.31292 l -0.388775,3.42311 c -0.01896,0.15172 0.08534,0.33188 0.265505,0.3793 l 1.071501,0.2655 c 0.09482,0.0285 0.24654,0.009 0.341363,-0.0853 0.161199,-0.1612 0.303434,-0.27499 0.644797,-0.27499 z m 10.051804,1.70682 c -0.711173,0 -0.976678,-0.18017 -0.976678,-0.75859 0,-0.15171 -0.132752,-0.36032 -0.350845,-0.36032 h -1.3939 c -0.151717,0 -0.360327,0.14223 -0.360327,0.36032 0,0.29396 0.05689,0.56894 0.142234,0.81548 0.40774,1.14736 1.545617,1.76371 2.939516,1.76371 0.398257,0 0.768068,-0.0569 1.109431,-0.15171 0.891337,-0.25603 1.687851,-0.90082 1.687851,-2.08611 0,-0.31292 -0.05689,-0.61635 -0.170682,-0.88186 -0.417221,-0.96719 -1.403382,-1.36545 -2.313683,-1.64044 -0.426704,-0.13275 -0.720656,-0.25602 -0.90082,-0.36981 -0.161199,-0.1043 -0.180164,-0.18964 -0.180164,-0.2655 0,-0.27499 0.180164,-0.42671 0.711174,-0.42671 0.549974,0 0.768067,0.18965 0.768067,0.61635 0,0.15172 0.132752,0.35085 0.350845,0.35085 h 1.384417 c 0.151717,0 0.350846,-0.13275 0.350846,-0.35085 0,-0.36032 -0.07586,-0.68272 -0.208611,-0.98616 -0.436186,-0.91978 -1.384417,-1.45079 -2.617118,-1.45079 -0.398257,0 -0.768067,0.0474 -1.10943,0.15172 -0.843925,0.25602 -1.735263,0.89133 -1.735263,2.08611 0,0.34136 0.07586,0.64479 0.218094,0.92926 0.474115,0.88186 1.422346,1.26115 2.285236,1.53614 0.274987,0.0853 0.474116,0.15171 0.625833,0.21809 0.350845,0.1612 0.436186,0.21809 0.436186,0.49308 0,0.2655 -0.161199,0.40774 -0.692209,0.40774 z m 9.378284,-3.88775 c 0.151716,0 0.350845,-0.14223 0.350845,-0.36033 v -1.12839 c 0,-0.15172 -0.132752,-0.35085 -0.350845,-0.35085 h -5.490258 c -0.151717,0 -0.360328,0.13276 -0.360328,0.35085 v 1.12839 c 0,0.15172 0.142235,0.36033 0.360328,0.36033 h 1.668886 v 5.2532 c 0,0.15172 0.142235,0.36033 0.360328,0.36033 h 1.3939 c 0.151717,0 0.350845,-0.14224 0.350845,-0.36033 v -5.2532 z m 4.694016,4.22911 0.379293,1.13788 c 0.04741,0.12327 0.180164,0.24654 0.341363,0.24654 h 1.47924 c 0.559457,0 0.331881,-0.4836 0.331881,-0.4836 l -2.522294,-6.74192 c -0.04741,-0.13275 -0.180164,-0.22758 -0.331881,-0.22758 H 67.02684 c -0.142235,0 -0.28447,0.0853 -0.331881,0.22758 l -2.512812,6.74192 c -0.199129,0.53101 0.33188,0.4836 0.33188,0.4836 h 1.479241 c 0.132752,0 0.293951,-0.0948 0.341363,-0.24654 l 0.379292,-1.13788 z m -1.308558,-1.84905 0.341363,-1.03357 0.350845,1.04305 z m 7.557687,-4.21963 h -2.512812 c -0.151717,0 -0.350846,0.13276 -0.350846,0.35085 v 6.74192 c 0,0.15172 0.132753,0.36033 0.350846,0.36033 h 1.3939 c 0.151716,0 0.360327,-0.14224 0.360327,-0.36033 v -2.10507 h 0.53101 l 1.166324,2.26627 c 0.05689,0.11379 0.180164,0.19913 0.312916,0.19913 h 1.488723 c 0.151717,0 0.350845,-0.14224 0.350845,-0.36033 v -0.0664 c 0,-0.0569 -0.0095,-0.12327 -0.03793,-0.17069 l -1.289594,-2.43695 c 0.635315,-0.38878 1.080983,-1.02409 1.080983,-2.02921 0,-1.68786 -1.289594,-2.38955 -2.844693,-2.38955 z m 0.73962,2.50333 c 0,0.45515 -0.199128,0.6448 -0.73962,0.6448 h -0.758585 v -1.30856 h 0.758585 c 0.549974,0 0.73962,0.18965 0.73962,0.66376 z m 6.16378,3.22399 c -0.711173,0 -0.976678,-0.18017 -0.976678,-0.75859 0,-0.15171 -0.132752,-0.36032 -0.350845,-0.36032 h -1.3939 c -0.151717,0 -0.360328,0.14223 -0.360328,0.36032 0,0.29396 0.05689,0.56894 0.142235,0.81548 0.407739,1.14736 1.545617,1.76371 2.939516,1.76371 0.398257,0 0.768067,-0.0569 1.10943,-0.15171 0.891338,-0.25603 1.687852,-0.90082 1.687852,-2.08611 0,-0.31292 -0.05689,-0.61635 -0.170682,-0.88186 -0.417222,-0.96719 -1.403382,-1.36545 -2.313684,-1.64044 -0.426704,-0.13275 -0.720655,-0.25602 -0.900819,-0.36981 -0.161199,-0.1043 -0.180164,-0.18964 -0.180164,-0.2655 0,-0.27499 0.180164,-0.42671 0.711173,-0.42671 0.549974,0 0.768067,0.18965 0.768067,0.61635 0,0.15172 0.132753,0.35085 0.350846,0.35085 h 1.384417 c 0.151717,0 0.350846,-0.13275 0.350846,-0.35085 0,-0.36032 -0.07586,-0.68272 -0.208611,-0.98616 -0.436186,-0.91978 -1.384417,-1.45079 -2.617118,-1.45079 -0.398257,0 -0.768067,0.0474 -1.10943,0.15172 -0.843926,0.25602 -1.735263,0.89133 -1.735263,2.08611 0,0.34136 0.07586,0.64479 0.218093,0.92926 0.474116,0.88186 1.422347,1.26115 2.285237,1.53614 0.274987,0.0853 0.474116,0.15171 0.625833,0.21809 0.350845,0.1612 0.436186,0.21809 0.436186,0.49308 0,0.2655 -0.161199,0.40774 -0.692209,0.40774 z"
       id="text40-8"
       style="font-weight:500;font-size:9.48231px;font-family:'Asimov Print';-inkscape-font-specification:'Asimov Print, Medium';letter-spacing:0.920059px;fill:#000100;stroke-width:4.20007;stroke-linejoin:round;paint-order:stroke markers fill"
       inkscape:label="5/5 STARS"
       transform="scale(0.94491424,1.0582971)"
       aria-label="5 / 5 STARS" />
    <path
       d="m 25.570582,124.07614 c -0.854352,0 -1.075478,-0.62318 -1.075478,-1.84943 v -0.4724 c 0,-1.2765 0.271382,-1.85947 1.095581,-1.85947 0.743788,0 0.985017,0.26133 1.025222,0.96491 0.01005,0.18092 0.160819,0.36184 0.371894,0.36184 h 1.477527 c 0.321638,0 0.391997,-0.26133 0.371894,-0.42215 -0.190973,-1.7288 -1.326758,-2.85454 -3.246537,-2.85454 -0.492509,0 -0.954864,0.0905 -1.366964,0.27139 -1.276502,0.55281 -1.980086,1.85947 -1.980086,3.54807 v 0.46235 c 0,0.56287 0.06031,1.07548 0.221126,1.54789 0.4121,1.2765 1.427271,2.27157 3.105821,2.27157 0.472407,0 0.914659,-0.0704 1.306656,-0.21107 1.095581,-0.392 1.849421,-1.28656 1.949933,-2.62337 0.0201,-0.26133 -0.180922,-0.40205 -0.371894,-0.40205 H 26.97775 c -0.180921,0 -0.361843,0.14072 -0.371894,0.3518 -0.04021,0.68348 -0.281434,0.91466 -1.035274,0.91466 z m 9.179496,-1.22625 c 0.160819,0 0.371894,-0.15077 0.371894,-0.38195 v -1.15588 c 0,-0.16082 -0.140717,-0.3719 -0.371894,-0.3719 h -2.442442 v -0.94481 h 2.924899 c 0.160819,0 0.371895,-0.15077 0.371895,-0.38195 v -1.19609 c 0,-0.16082 -0.140717,-0.37189 -0.371895,-0.37189 h -4.784371 c -0.160819,0 -0.371894,0.14071 -0.371894,0.37189 v 7.1464 c 0,0.16082 0.140717,0.38195 0.371894,0.38195 h 4.794422 c 0.16082,0 0.381946,-0.15077 0.381946,-0.38195 v -1.18604 c 0,-0.16082 -0.150768,-0.38194 -0.381946,-0.38194 h -2.93495 v -1.14584 z m 5.048461,-4.80447 h -2.663568 c -0.160819,0 -0.371895,0.14071 -0.371895,0.37189 v 7.1464 c 0,0.16082 0.140717,0.38195 0.371895,0.38195 h 1.477526 c 0.160819,0 0.381946,-0.15077 0.381946,-0.38195 v -2.23136 h 0.562867 l 1.236298,2.40223 c 0.06031,0.12062 0.190972,0.21108 0.331689,0.21108 h 1.578039 c 0.160819,0 0.371894,-0.15077 0.371894,-0.38195 v -0.0704 c 0,-0.0603 -0.01005,-0.13066 -0.04021,-0.18092 l -1.366963,-2.58316 c 0.67343,-0.41209 1.145837,-1.08552 1.145837,-2.15095 0,-1.78912 -1.366963,-2.5329 -3.01536,-2.5329 z m 0.783993,2.65351 c 0,0.48246 -0.211075,0.68348 -0.783993,0.68348 h -0.804096 v -1.38706 h 0.804096 c 0.582969,0 0.783993,0.20102 0.783993,0.70358 z m 9.149353,-0.70358 c 0.160819,0 0.371894,-0.15077 0.371894,-0.38195 v -1.19609 c 0,-0.16082 -0.140717,-0.37189 -0.371894,-0.37189 H 43.91224 c -0.160819,0 -0.381946,0.14071 -0.381946,0.37189 v 1.19609 c 0,0.16082 0.150768,0.38195 0.381946,0.38195 h 1.769011 v 5.56836 c 0,0.16082 0.150768,0.38195 0.381946,0.38195 h 1.477526 c 0.160819,0 0.371895,-0.15077 0.371895,-0.38195 v -5.56836 z m 3.430216,5.95031 c 0.160819,0 0.371894,-0.15077 0.371894,-0.38195 v -7.1464 c 0,-0.16082 -0.140717,-0.37189 -0.371894,-0.37189 h -1.467475 c -0.16082,0 -0.371895,0.14071 -0.371895,0.37189 v 7.1464 c 0,0.16082 0.140717,0.38195 0.371895,0.38195 z m 6.696859,-2.93495 c 0.160819,0 0.371894,-0.14072 0.371894,-0.3719 v -1.18604 c 0,-0.16082 -0.140717,-0.37189 -0.371894,-0.37189 h -2.442442 v -1.08553 h 2.794234 c 0.160819,0 0.381945,-0.15077 0.381945,-0.38195 v -1.19609 c 0,-0.16082 -0.150768,-0.37189 -0.381945,-0.37189 h -4.653706 c -0.160819,0 -0.371894,0.14071 -0.371894,0.37189 v 7.1464 c 0,0.16082 0.140716,0.38195 0.371894,0.38195 h 1.477526 c 0.16082,0 0.381946,-0.15077 0.381946,-0.38195 v -2.553 z m 3.802118,2.93495 c 0.16082,0 0.371895,-0.15077 0.371895,-0.38195 v -7.1464 c 0,-0.16082 -0.140717,-0.37189 -0.371895,-0.37189 h -1.467475 c -0.160819,0 -0.371894,0.14071 -0.371894,0.37189 v 7.1464 c 0,0.16082 0.140717,0.38195 0.371894,0.38195 z m 6.696859,-3.09577 c 0.16082,0 0.371895,-0.15077 0.371895,-0.38195 v -1.15588 c 0,-0.16082 -0.140717,-0.3719 -0.371895,-0.3719 h -2.442441 v -0.94481 h 2.924899 c 0.160819,0 0.371894,-0.15077 0.371894,-0.38195 v -1.19609 c 0,-0.16082 -0.140716,-0.37189 -0.371894,-0.37189 h -4.784371 c -0.160819,0 -0.371895,0.14071 -0.371895,0.37189 v 7.1464 c 0,0.16082 0.140717,0.38195 0.371895,0.38195 h 4.794422 c 0.160819,0 0.381946,-0.15077 0.381946,-0.38195 v -1.18604 c 0,-0.16082 -0.150768,-0.38194 -0.381946,-0.38194 h -2.93495 v -1.14584 z m 2.012998,2.71382 c 0,0.16082 0.140717,0.38195 0.371894,0.38195 h 2.191162 c 0.522662,0 1.015171,-0.0905 1.467475,-0.27138 1.316707,-0.53272 2.181111,-1.76901 2.181111,-3.51792 v -0.32164 c 0,-0.55282 -0.08041,-1.05538 -0.261332,-1.52778 -0.50256,-1.28656 -1.628294,-2.26152 -3.377203,-2.26152 h -2.201213 c -0.160819,0 -0.371894,0.14071 -0.371894,0.37189 z m 3.960173,-3.73904 v 0.33169 c 0,1.22624 -0.412099,1.83937 -1.397117,1.83937 h -0.33169 v -4.00038 h 0.341741 c 0.995069,0 1.387066,0.59302 1.387066,1.82932 z"
       id="text39-4"
       style="font-weight:500;font-size:10.0512px;font-family:'Asimov Print';-inkscape-font-specification:'Asimov Print, Medium';letter-spacing:1.03803px;fill:#000100;stroke-width:4.45183;stroke-linejoin:round;paint-order:stroke markers fill"
       inkscape:label="CERTIFIED"
       transform="scale(1.0248325,0.97576923)"
       aria-label="CERTIFIED" />
  </g>
</svg>
