<?xml version="1.0" encoding="UTF-8" standalone="no"?>
<svg
   xmlns:dc="http://purl.org/dc/elements/1.1/"
   xmlns:cc="http://creativecommons.org/ns#"
   xmlns:rdf="http://www.w3.org/1999/02/22-rdf-syntax-ns#"
   xmlns:svg="http://www.w3.org/2000/svg"
   xmlns="http://www.w3.org/2000/svg"
   viewBox="0 0 276.3775 145.27499"
   height="145.27499"
   width="276.3775"
   xml:space="preserve"
   version="1.1"
   id="svg2"><metadata
     id="metadata8"><rdf:RDF><cc:Work
         rdf:about=""><dc:format>image/svg+xml</dc:format><dc:type
           rdf:resource="http://purl.org/dc/dcmitype/StillImage" /><dc:title></dc:title></cc:Work></rdf:RDF></metadata><defs
     id="defs6"><clipPath
       id="clipPath18"
       clipPathUnits="userSpaceOnUse"><path
         id="path20"
         d="m 8.504,8.5045 0,99.212 204.094,0 0,-99.212" /></clipPath><clipPath
       id="clipPath26"
       clipPathUnits="userSpaceOnUse"><path
         style="clip-rule:evenodd"
         id="path28"
         d="m 109.3359,99.9732 66.0772,0 c 14.1045,0 25.5388,-11.2626 25.5388,-25.1553 l 0,-16.9645 c 0,-13.8928 -11.4343,-25.1553 -25.5388,-25.1553 l -132.1547,0 c -14.1046,0 -25.5388,11.2625 -25.5388,25.1553 l 0,16.9645 c 0,13.8927 11.4342,25.1553 25.5388,25.1553" /></clipPath></defs><g
     transform="matrix(1.25,0,0,-1.25,0,145.275)"
     id="g10"><path
       id="path12"
       style="fill:#000000;fill-opacity:1;fill-rule:nonzero;stroke:none;"
       d="m 8.504,8.5045 204.094,0 0,99.212 -204.094,0 0,-99.212 z" /><path
       d="m 150.6522,75.5316 0.001,0 c 0.0876,6.4501 2.727,12.6182 7.3644,17.1859 4.7166,4.6458 11.1141,7.2557 17.7842,7.2557 6.6703,0 13.0679,-2.6099 17.7845,-7.2557 4.637,-4.5677 7.2767,-10.7358 7.3643,-17.1859 l 0.003,0 0,-25.992 -7.023,0 0,25.992 0.013,0 c -0.0869,4.6199 -1.988,9.0328 -5.3113,12.3063 -3.403,3.3515 -8.0183,5.2345 -12.8305,5.2345 -4.8122,0 -9.4279,-1.883 -12.8305,-5.2345 -3.3493,-3.2991 -5.2544,-7.7556 -5.3133,-12.4152 l -0.0201,0 0,-25.8831 -6.9863,0 0,25.8831"
       style="fill:#808080;fill-opacity:1;fill-rule:evenodd;stroke:none"
       id="path40" /><path
       d="m 147.832,16.0918 55.943,0 0,42.9719 -55.943,0 0,-42.9719 z"
       style="fill:#44bb56;fill-opacity:1;fill-rule:nonzero;stroke:none"
       id="path42" /><path
       id="path68"
       style="fill:none;stroke:#e0dcdd;stroke-width:6.60979986;stroke-linecap:butt;stroke-linejoin:miter;stroke-miterlimit:10;stroke-dasharray:none;stroke-opacity:1"
       d="m 163.00771,38.676365 10.8464,-11.43304 15.22277,24.178112" /><path
       id="path70"
       style="fill:none;stroke:#000000;stroke-width:6.60979986;stroke-linecap:butt;stroke-linejoin:miter;stroke-miterlimit:10;stroke-dasharray:none;stroke-opacity:1"
       d="m 162.23015,38.766282 10.8461,-11.43304 15.22267,24.178012" /><path
       d="m 32.025,85.0712 2.9021,0 c 2.4469,0 3.2537,-0.9742 3.2537,-3.0763 l 0,-2.8074 c 0,-2.1025 -0.8068,-3.0894 -3.2537,-3.0894 l -2.9021,0 c -0.2474,0 -0.3906,0.141 -0.3906,0.3844 l 0,8.1915 c 0,0.2561 0.1302,0.3844 0.3906,0.3972 z m 2.2384,-6.7683 0.7026,0 c 0.6247,0 0.9371,0.1023 0.9371,0.8715 l 0,2.8205 c 0,0.7947 -0.3124,0.8714 -0.9371,0.8714 l -0.7026,0 c -0.2474,0 -0.3906,-0.1282 -0.3906,-0.3844 l 0,-3.7946 c 0,-0.2434 0.1432,-0.3844 0.3906,-0.3844 z m 6.9097,6.7683 c 0.2601,0 0.3903,-0.1279 0.3903,-0.3844 l 0,-8.2043 c 0,-0.2434 -0.1302,-0.3844 -0.3903,-0.3844 l -1.4315,0 c -0.2474,0 -0.3906,0.141 -0.3906,0.3844 l 0,8.2043 c 0,0.2565 0.1432,0.3844 0.3906,0.3844 l 1.4315,0 z m 7.5478,0 c 0.2604,0 0.3906,-0.1279 0.3906,-0.3844 l 0,-1.4357 c 0,-0.2437 -0.1302,-0.3847 -0.3906,-0.3847 l -3.1495,0 c -0.2471,0 -0.3903,-0.1283 -0.3903,-0.3845 l 0,-0.4103 c 0,-0.2434 0.1432,-0.3844 0.3903,-0.3844 l 2.0173,0 c 0.2604,0 0.3903,-0.1282 0.3903,-0.3847 l 0,-1.4357 c 0,-0.2437 -0.1299,-0.3847 -0.3903,-0.3847 l -2.0173,0 c -0.2471,0 -0.3903,-0.128 -0.3903,-0.3845 l 0,-0.4103 c 0,-0.2434 0.1432,-0.3844 0.3903,-0.3844 l 3.1495,0 c 0.2604,0 0.3906,-0.1282 0.3906,-0.3847 l 0,-1.4357 c 0,-0.2565 -0.1302,-0.3844 -0.3906,-0.3844 l -5.4658,0 c -0.2475,0 -0.3907,0.141 -0.3907,0.3844 l 0,8.2043 c 0,0.2565 0.1432,0.3844 0.3907,0.3844 l 5.4658,0 z m 7.1572,-2.8585 -1.4839,-0.3205 c -0.26,-0.0512 -0.3902,0.064 -0.4292,0.3205 -0.0912,0.5254 -0.5208,0.859 -1.1322,0.859 -0.5078,0 -0.8202,-0.2949 -0.7679,-0.5898 0.1822,-1 4.2947,-0.9744 4.2947,-3.9228 0,-0.3845 -0.4425,-2.6536 -3.5268,-2.6536 -2.7333,0 -3.3187,1.7693 -3.3839,2.769 -0.013,0.2309 0.1042,0.372 0.3383,0.4231 l 1.4709,0.3205 c 0.26,0.0511 0.4032,-0.064 0.4292,-0.3333 0.0523,-0.6153 0.5338,-0.9741 1.1455,-0.9741 0.6377,0 1.1062,0.3716 1.028,0.7176 -0.2474,1.0897 -4.1645,0.8463 -4.1645,3.7947 -0.013,0.3844 0.2211,2.6535 3.1365,2.6535 2.681,0 3.3054,-1.7177 3.3836,-2.6407 0.013,-0.2309 -0.1042,-0.372 -0.3383,-0.4231 z m 7.274,2.8585 c 0.2605,0 0.3907,-0.1279 0.3907,-0.3844 l 0,-1.4357 c 0,-0.2437 -0.1302,-0.3847 -0.3907,-0.3847 l -3.1495,0 c -0.2471,0 -0.3902,-0.1283 -0.3902,-0.3845 l 0,-0.4103 c 0,-0.2434 0.1431,-0.3844 0.3902,-0.3844 l 2.0173,0 c 0.2605,0 0.3903,-0.1282 0.3903,-0.3847 l 0,-1.4357 c 0,-0.2437 -0.1298,-0.3847 -0.3903,-0.3847 l -2.0173,0 c -0.2471,0 -0.3902,-0.128 -0.3902,-0.3845 l 0,-0.4103 c 0,-0.2434 0.1431,-0.3844 0.3902,-0.3844 l 3.1495,0 c 0.2605,0 0.3907,-0.1282 0.3907,-0.3847 l 0,-1.4357 c 0,-0.2565 -0.1302,-0.3844 -0.3907,-0.3844 l -5.4661,0 c -0.2471,0 -0.3903,0.141 -0.3903,0.3844 l 0,8.2043 c 0,0.2565 0.1432,0.3844 0.3903,0.3844 l 5.4661,0 z m 7.1572,-2.8585 -1.4838,-0.3205 c -0.2601,-0.0512 -0.3903,0.064 -0.4293,0.3205 -0.0912,0.5254 -0.5208,0.859 -1.1325,0.859 -0.5075,0 -0.8199,-0.2949 -0.7676,-0.5898 0.1822,-1 4.2947,-0.9744 4.2947,-3.9228 0,-0.3845 -0.4425,-2.6536 -3.5271,-2.6536 -2.7329,0 -3.3187,1.7693 -3.3836,2.769 -0.013,0.2309 0.1042,0.372 0.3383,0.4231 l 1.4709,0.3205 c 0.2601,0.0511 0.4032,-0.064 0.4292,-0.3333 0.0523,-0.6153 0.5338,-0.9741 1.1452,-0.9741 0.638,0 1.1066,0.3716 1.0283,0.7176 -0.2474,1.0897 -4.1645,0.8463 -4.1645,3.7947 -0.013,0.3844 0.2211,2.6535 3.1362,2.6535 2.681,0 3.3057,-1.7177 3.3839,-2.6407 0.013,-0.2309 -0.1042,-0.372 -0.3383,-0.4231 z m 11.347,0 -1.4835,-0.3205 c -0.2604,-0.0512 -0.3906,0.064 -0.4296,0.3205 -0.0909,0.5254 -0.5205,0.859 -1.1322,0.859 -0.5075,0 -0.8198,-0.2949 -0.7679,-0.5898 0.1822,-1 4.2947,-0.9744 4.2947,-3.9228 0,-0.3845 -0.4422,-2.6536 -3.5268,-2.6536 -2.7329,0 -3.3187,1.7693 -3.3836,2.769 -0.013,0.2309 0.1039,0.372 0.3383,0.4231 l 1.4705,0.3205 c 0.2605,0.0511 0.4036,-0.064 0.4296,-0.3333 0.052,-0.6153 0.5335,-0.9741 1.1452,-0.9741 0.6377,0 1.1062,0.3716 1.0283,0.7176 -0.2474,1.0897 -4.1648,0.8463 -4.1648,3.7947 -0.013,0.3844 0.2214,2.6535 3.1365,2.6535 2.681,0 3.3057,-1.7177 3.3836,-2.6407 0.0133,-0.2309 -0.1039,-0.372 -0.3383,-0.4231 z m 3.1878,2.8585 c 0.2211,0 0.3643,-0.0896 0.4426,-0.2949 l 0.963,-2.3842 c 0.0519,-0.1155 0.1299,-0.1155 0.1821,0 l 0.9631,2.3842 c 0.0779,0.2053 0.2211,0.2949 0.4425,0.2949 l 1.8608,0 c 0.2994,0 0.4296,-0.1795 0.2994,-0.4487 L 87.6683,79.4948 C 87.642,79.4437 87.642,79.3925 87.642,79.3413 l 0,-2.8588 c 0,-0.2434 -0.1299,-0.3844 -0.3903,-0.3844 l -1.8222,0 c -0.2471,0 -0.3903,0.141 -0.3903,0.3844 l 0,2.8588 c 0,0.0512 0,0.1024 -0.0259,0.1535 l -2.3427,5.1277 c -0.1302,0.2692 0,0.4487 0.2994,0.4487 l 1.8741,0 z m 11.5558,-2.8585 -1.4835,-0.3205 c -0.2605,-0.0512 -0.3907,0.064 -0.4296,0.3205 -0.0913,0.5254 -0.5205,0.859 -1.1322,0.859 -0.5075,0 -0.8199,-0.2949 -0.7679,-0.5898 0.1821,-1 4.2947,-0.9744 4.2947,-3.9228 0,-0.3845 -0.4426,-2.6536 -3.5268,-2.6536 -2.733,0 -3.3187,1.7693 -3.384,2.769 -0.013,0.2309 0.1043,0.372 0.3387,0.4231 l 1.4705,0.3205 c 0.2604,0.0511 0.4033,-0.064 0.4296,-0.3333 0.0519,-0.6153 0.5335,-0.9741 1.1452,-0.9741 0.6377,0 1.1062,0.3716 1.028,0.7176 -0.2471,1.0897 -4.1645,0.8463 -4.1645,3.7947 -0.013,0.3844 0.2211,2.6535 3.1365,2.6535 2.681,0 3.3057,-1.7177 3.3836,-2.6407 0.013,-0.2309 -0.1039,-0.372 -0.3383,-0.4231 z m 3.3699,0.2692 c 0,0.2562 -0.1302,0.3844 -0.3906,0.3844 l -1.8218,0 c -0.2475,0 -0.3906,0.1411 -0.3906,0.3848 l 0,1.4356 c 0,0.2565 0.1431,0.3845 0.3906,0.3845 l 6.6633,0 c 0.2604,0 0.3903,-0.128 0.3903,-0.3845 l 0,-1.4356 c 0,-0.2437 -0.1299,-0.3848 -0.3903,-0.3848 l -1.8222,0 c -0.2471,0 -0.3903,-0.1282 -0.3903,-0.3844 l 0,-5.9994 c 0,-0.2434 -0.1302,-0.3844 -0.3906,-0.3844 l -1.4575,0 c -0.2471,0 -0.3903,0.141 -0.3903,0.3844 l 0,5.9994 z m 11.4779,2.5893 c 0.2601,0 0.3903,-0.1279 0.3903,-0.3844 l 0,-1.4357 c 0,-0.2437 -0.1302,-0.3847 -0.3903,-0.3847 l -3.1495,0 c -0.2475,0 -0.3906,-0.1283 -0.3906,-0.3845 l 0,-0.4103 c 0,-0.2434 0.1431,-0.3844 0.3906,-0.3844 l 2.017,0 c 0.2604,0 0.3906,-0.1282 0.3906,-0.3847 l 0,-1.4357 c 0,-0.2437 -0.1302,-0.3847 -0.3906,-0.3847 l -2.017,0 c -0.2475,0 -0.3906,-0.128 -0.3906,-0.3845 l 0,-0.4103 c 0,-0.2434 0.1431,-0.3844 0.3906,-0.3844 l 3.1495,0 c 0.2601,0 0.3903,-0.1282 0.3903,-0.3847 l 0,-1.4357 c 0,-0.2565 -0.1302,-0.3844 -0.3903,-0.3844 l -5.4662,0 c -0.2474,0 -0.3906,0.141 -0.3906,0.3844 l 0,8.2043 c 0,0.2565 0.1432,0.3844 0.3906,0.3844 l 5.4662,0 z m 4.4758,0 c 0.2344,0 0.3643,-0.128 0.4166,-0.3461 l 0.9241,-3.7303 c 0.0259,-0.1283 0.1299,-0.1283 0.1562,0 l 0.9237,3.7303 c 0.0523,0.2181 0.1825,0.3461 0.4166,0.3461 l 2.694,0 c 0.2604,0 0.3906,-0.1279 0.3906,-0.3844 l 0,-8.2043 c 0,-0.2434 -0.1302,-0.3844 -0.3906,-0.3844 l -1.4576,0 c -0.2474,0 -0.3906,0.141 -0.3906,0.3844 l 0,5.0509 c 0,0.0895 -0.1169,0.1023 -0.1429,0.0128 l -1.2623,-5.1149 c -0.0523,-0.2181 -0.1955,-0.3332 -0.4296,-0.3332 l -0.8592,0 c -0.2341,0 -0.3773,0.1151 -0.4292,0.3332 l -1.2624,5.1149 c -0.0263,0.0895 -0.1432,0.0767 -0.1432,-0.0128 l 0,-5.0509 c 0,-0.2434 -0.1302,-0.3844 -0.3906,-0.3844 l -1.4575,0 c -0.2604,0 -0.3903,0.141 -0.3903,0.3844 l 0,8.2043 c 0,0.2564 0.1299,0.3844 0.3903,0.3844 l 2.6939,0 z m 12.9477,0 c 0.2601,0 0.3903,-0.1279 0.3903,-0.3844 l 0,-8.2043 c 0,-0.2434 -0.1302,-0.3844 -0.3903,-0.3844 l -1.4315,0 c -0.2475,0 -0.3906,0.141 -0.3906,0.3844 l 0,8.2043 c 0,0.2565 0.1431,0.3844 0.3906,0.3844 l 1.4315,0 z m 7.717,-2.8585 -1.4835,-0.3205 c -0.2605,-0.0512 -0.3907,0.064 -0.4296,0.3205 -0.0909,0.5254 -0.5205,0.859 -1.1322,0.859 -0.5075,0 -0.8199,-0.2949 -0.7679,-0.5898 0.1821,-1 4.2947,-0.9744 4.2947,-3.9228 0,-0.3845 -0.4422,-2.6536 -3.5268,-2.6536 -2.7329,0 -3.3187,1.7693 -3.3836,2.769 -0.0133,0.2309 0.1039,0.372 0.3383,0.4231 l 1.4705,0.3205 c 0.2604,0.0511 0.4036,-0.064 0.4296,-0.3333 0.0519,-0.6153 0.5335,-0.9741 1.1452,-0.9741 0.6377,0 1.1062,0.3716 1.0279,0.7176 -0.247,1.0897 -4.1644,0.8463 -4.1644,3.7947 -0.013,0.3844 0.2214,2.6535 3.1365,2.6535 2.681,0 3.3057,-1.7177 3.3836,-2.6407 0.013,-0.2309 -0.1039,-0.372 -0.3383,-0.4231 z m 3.3699,0.2692 c 0,0.2562 -0.1302,0.3844 -0.3906,0.3844 l -1.8218,0 c -0.2474,0 -0.3906,0.1411 -0.3906,0.3848 l 0,1.4356 c 0,0.2565 0.1432,0.3845 0.3906,0.3845 l 6.6633,0 c 0.2604,0 0.3906,-0.128 0.3906,-0.3845 l 0,-1.4356 c 0,-0.2437 -0.1302,-0.3848 -0.3906,-0.3848 l -1.8222,0 c -0.247,0 -0.3902,-0.1282 -0.3902,-0.3844 l 0,-5.9994 c 0,-0.2434 -0.1302,-0.3844 -0.3903,-0.3844 l -1.4579,0 c -0.2471,0 -0.3903,0.141 -0.3903,0.3844"
       style="fill:#e0dcdd;fill-opacity:1;fill-rule:evenodd;stroke:none"
       id="path44" /><path
       d="m 21.0903,21.938 0,-0.8321 c 0,-0.1489 -0.0756,-0.223 -0.2265,-0.223 l -1.8941,0 c -0.0453,0 -0.0752,-0.0223 -0.0752,-0.0745 l 0,-0.1486 c 0,-0.1413 0.0829,-0.223 0.2264,-0.223 l 0.2338,0 c 1.3959,0 1.8787,-1.1073 1.8787,-1.806 0,-0.7806 -0.4828,-1.8063 -1.8787,-1.8063 -1.5545,0 -1.8412,0.9962 -1.8865,1.5311 -0.0077,0.1339 0.0603,0.2155 0.1961,0.2454 l 0.8602,0.186 c 0.1512,0.0295 0.2264,-0.0374 0.2491,-0.186 0.0529,-0.3047 0.2264,-0.4979 0.5811,-0.4979 0.3622,0 0.5131,0.2824 0.4755,0.5277 -0.0606,0.4012 -0.3547,0.5721 -0.9358,0.5721 l -1.0715,0 c -0.1436,0 -0.2265,0.082 -0.2265,0.223 l 0,2.5121 c 0,0.1414 0.0829,0.2231 0.2265,0.2231 l 3.0409,0 c 0.1509,0 0.2265,-0.0741 0.2265,-0.2231 z m 3.8091,0.721 0.3697,0 c 0.1661,0 0.2417,-0.104 0.1811,-0.2601 l -2.2484,-6.0054 c -0.0453,-0.119 -0.1285,-0.1784 -0.2644,-0.1784 l -0.3696,0 c -0.1659,0 -0.2415,0.104 -0.1812,0.2601 l 2.2488,6.0057 c 0.0453,0.1187 0.1282,0.1781 0.264,0.1781 z m 5.394,-0.721 0,-0.8321 c 0,-0.1489 -0.0756,-0.223 -0.2265,-0.223 l -1.8941,0 c -0.0453,0 -0.0752,-0.0223 -0.0752,-0.0745 l 0,-0.1486 c 0,-0.1413 0.0829,-0.223 0.2264,-0.223 l 0.2338,0 c 1.3959,0 1.8788,-1.1073 1.8788,-1.806 0,-0.7806 -0.4829,-1.8063 -1.8788,-1.8063 -1.5545,0 -1.8412,0.9962 -1.8865,1.5311 -0.0076,0.1339 0.0603,0.2155 0.1962,0.2454 l 0.8601,0.186 c 0.1512,0.0295 0.2264,-0.0374 0.2491,-0.186 0.0529,-0.3047 0.2264,-0.4979 0.5811,-0.4979 0.3623,0 0.5131,0.2824 0.4755,0.5277 -0.0606,0.4012 -0.3546,0.5721 -0.9357,0.5721 l -1.0716,0 c -0.1432,0 -0.2265,0.082 -0.2265,0.223 l 0,2.5121 c 0,0.1414 0.0833,0.2231 0.2265,0.2231 l 3.0409,0 c 0.1509,0 0.2265,-0.0741 0.2265,-0.2231 z m 6.8118,-1.4343 -0.8601,-0.1856 c -0.1512,-0.0299 -0.2265,0.037 -0.2491,0.1856 -0.0529,0.3047 -0.302,0.4979 -0.6567,0.4979 -0.294,0 -0.4752,-0.1709 -0.4452,-0.3418 0.1059,-0.5799 2.4902,-0.5648 2.4902,-2.2743 0,-0.2231 -0.2564,-1.5387 -2.045,-1.5387 -1.5844,0 -1.9241,1.0257 -1.9617,1.6056 -0.0077,0.1338 0.0603,0.2155 0.1961,0.2453 l 0.8525,0.1857 c 0.1512,0.0298 0.2341,-0.0371 0.2491,-0.1932 0.0303,-0.3569 0.3094,-0.5648 0.664,-0.5648 0.37,0 0.6414,0.2155 0.5961,0.4162 -0.1432,0.6317 -2.4146,0.4904 -2.4146,2.1999 -0.0073,0.223 0.1282,1.5387 1.8185,1.5387 1.5545,0 1.9168,-0.9962 1.9621,-1.5311 0.0076,-0.1339 -0.0603,-0.2155 -0.1962,-0.2454 z m 2.0663,0.1561 c 0,0.1486 -0.0756,0.2231 -0.2265,0.2231 l -1.0562,0 c -0.1436,0 -0.2265,0.0816 -0.2265,0.223 l 0,0.8322 c 0,0.1489 0.0829,0.223 0.2265,0.223 l 3.8634,0 c 0.1509,0 0.2261,-0.0741 0.2261,-0.223 l 0,-0.8322 c 0,-0.1414 -0.0752,-0.223 -0.2261,-0.223 l -1.0566,0 c -0.1432,0 -0.2264,-0.0745 -0.2264,-0.2231 l 0,-3.4784 c 0,-0.1414 -0.0753,-0.223 -0.2261,-0.223 l -0.8452,0 c -0.1435,0 -0.2264,0.0816 -0.2264,0.223 l 0,3.4784 z m 6.7672,1.5013 c 0.1509,0 0.2265,-0.0741 0.2265,-0.2231 l 0,-0.8321 c 0,-0.1414 -0.0756,-0.223 -0.2265,-0.223 l -1.8262,0 c -0.1431,0 -0.2264,-0.0745 -0.2264,-0.2231 l 0,-0.2378 c 0,-0.1413 0.0832,-0.223 0.2264,-0.223 l 1.1695,0 c 0.1512,0 0.2265,-0.0745 0.2265,-0.223 l 0,-0.8325 c 0,-0.1411 -0.0753,-0.2231 -0.2265,-0.2231 l -1.1695,0 c -0.1431,0 -0.2264,-0.0741 -0.2264,-0.2227 l 0,-0.2381 c 0,-0.141 0.0832,-0.2227 0.2264,-0.2227 l 1.8262,0 c 0.1509,0 0.2265,-0.0745 0.2265,-0.223 l 0,-0.8325 c 0,-0.1486 -0.0756,-0.223 -0.2265,-0.223 l -3.1691,0 c -0.1436,0 -0.2265,0.0816 -0.2265,0.223 l 0,4.7566 c 0,0.149 0.0829,0.2231 0.2265,0.2231 l 3.1691,0 z m 4.0959,-3.3371 0.7999,-1.4642 c 0.1059,-0.1932 -0.015,-0.4014 -0.2488,-0.4014 l -0.8604,0 c -0.0753,0 -0.1432,0.037 -0.1735,0.1039 l -0.7846,1.4941 c -0.0153,0.0223 -0.0379,0.037 -0.0606,0.037 l -0.3017,0 c -0.1359,0 -0.2341,-0.0964 -0.2341,-0.2302 l 0,-1.1743 c 0,-0.1338 -0.0979,-0.2305 -0.2338,-0.2305 l -0.8451,0 c -0.1359,0 -0.2338,0.0967 -0.2338,0.2305 l 0,4.7419 c 0,0.1339 0.0979,0.2303 0.2338,0.2303 l 1.6527,0 c 1.343,0 1.8864,-0.5648 1.8864,-1.7837 0,-0.6914 -0.1738,-1.1745 -0.5737,-1.4569 -0.03,-0.0224 -0.0377,-0.0594 -0.0227,-0.0965 z m -1.2448,2.0589 -0.3849,0 c -0.1359,0 -0.2341,-0.0968 -0.2341,-0.2306 l 0,-0.5501 c 0,-0.1338 0.0982,-0.2302 0.2341,-0.2302 l 0.3849,0 c 0.362,0 0.5432,0.0446 0.5432,0.5054 0,0.4609 -0.1812,0.5055 -0.5432,0.5055 z m 3.9904,1.2782 c 0.1282,0 0.2111,-0.0518 0.2641,-0.1709 l 1.0263,-2.4751 c 0.0299,-0.0669 0.0902,-0.0518 0.0902,0.0223 l 0,2.4007 c 0,0.1489 0.0833,0.223 0.2265,0.223 l 0.8451,0 c 0.1509,0 0.2265,-0.0741 0.2265,-0.223 l 0,-4.7567 c 0,-0.1414 -0.0756,-0.223 -0.2265,-0.223 l -1.1092,0 c -0.1282,0 -0.2111,0.0521 -0.2641,0.1708 l -1.0263,2.4751 c -0.03,0.0669 -0.0906,0.0522 -0.0906,-0.0223 l 0,-2.4006 c 0,-0.1414 -0.0752,-0.223 -0.2261,-0.223 l -0.8451,0 c -0.1436,0 -0.2265,0.0816 -0.2265,0.223 l 0,4.7567 c 0,0.1489 0.0829,0.223 0.2265,0.223 l 1.1092,0 z m 6.9407,0 c 0.1509,0 0.2261,-0.0741 0.2261,-0.2231 l 0,-0.8321 c 0,-0.1414 -0.0752,-0.223 -0.2261,-0.223 l -1.8262,0 c -0.1435,0 -0.2264,-0.0745 -0.2264,-0.2231 l 0,-0.2378 c 0,-0.1413 0.0829,-0.223 0.2264,-0.223 l 1.1695,0 c 0.1509,0 0.2265,-0.0745 0.2265,-0.223 l 0,-0.8325 c 0,-0.1411 -0.0756,-0.2231 -0.2265,-0.2231 l -1.1695,0 c -0.1435,0 -0.2264,-0.0741 -0.2264,-0.2227 l 0,-0.2381 c 0,-0.141 0.0829,-0.2227 0.2264,-0.2227 l 1.8262,0 c 0.1509,0 0.2261,-0.0745 0.2261,-0.223 l 0,-0.8325 c 0,-0.1486 -0.0752,-0.223 -0.2261,-0.223 l -3.1695,0 c -0.1432,0 -0.2261,0.0816 -0.2261,0.223 l 0,4.7566 c 0,0.149 0.0829,0.2231 0.2261,0.2231"
       style="fill:#e0dcdd;fill-opacity:1;fill-rule:evenodd;stroke:none"
       id="path46" /><path
       d="m 19.715,25.3962 1.7689,0 c 0.1678,0 0.2514,-0.0827 0.2514,-0.2477 l 0,-0.9249 c 0,-0.1568 -0.0836,-0.2477 -0.2514,-0.2477 l -4.1665,0 c -0.2015,0 -0.2768,0.124 -0.1762,0.2972 l 2.2887,3.9639 c 0.0336,0.0577 0.0083,0.099 -0.0586,0.099 l -1.6014,0 c -0.1592,0 -0.2514,0.0909 -0.2514,0.2477 l 0,0.9249 c 0,0.165 0.0922,0.2477 0.2514,0.2477 l 4.041,0 c 0.2011,0 0.2767,-0.124 0.1761,-0.2972 l -2.3306,-3.9639 c -0.0337,-0.0577 -0.0084,-0.099 0.0586,-0.099 z m 6.5128,4.3601 c 0.1678,0 0.2517,-0.0827 0.2517,-0.2477 l 0,-0.9249 c 0,-0.1568 -0.0839,-0.2477 -0.2517,-0.2477 l -2.0287,0 c -0.1591,0 -0.2514,-0.0826 -0.2514,-0.2476 l 0,-0.2644 c 0,-0.1568 0.0923,-0.2476 0.2514,-0.2476 l 1.2994,0 c 0.1678,0 0.2514,-0.0827 0.2514,-0.248 l 0,-0.9246 c 0,-0.1571 -0.0836,-0.248 -0.2514,-0.248 l -1.2994,0 c -0.1591,0 -0.2514,-0.0823 -0.2514,-0.2476 l 0,-0.2641 c 0,-0.1571 0.0923,-0.2479 0.2514,-0.2479 l 2.0287,0 c 0.1678,0 0.2517,-0.0827 0.2517,-0.2477 l 0,-0.9249 c 0,-0.165 -0.0839,-0.2477 -0.2517,-0.2477 l -3.5208,0 c -0.1595,0 -0.2518,0.0909 -0.2518,0.2477 l 0,5.285 c 0,0.165 0.0923,0.2477 0.2518,0.2477 l 3.5208,0 z m 4.4255,-3.7078 0.8888,-1.6268 c 0.1172,-0.2145 -0.0166,-0.4458 -0.2767,-0.4458 l -0.9557,0 c -0.0839,0 -0.1592,0.0413 -0.1928,0.1155 l -0.8718,1.66 c -0.017,0.0246 -0.042,0.0413 -0.0673,0.0413 l -0.3353,0 c -0.1509,0 -0.2598,-0.1076 -0.2598,-0.2562 l 0,-1.3047 c 0,-0.1486 -0.1088,-0.2559 -0.26,-0.2559 l -0.9388,0 c -0.1508,0 -0.26,0.1073 -0.26,0.2559 l 0,5.2686 c 0,0.1486 0.1092,0.2559 0.26,0.2559 l 1.8359,0 c 1.4921,0 2.0959,-0.6275 2.0959,-1.9818 0,-0.7679 -0.1928,-1.3048 -0.6371,-1.6187 -0.0336,-0.0246 -0.0419,-0.0659 -0.0253,-0.1073 z m -1.3832,2.2875 -0.4276,0 c -0.1509,0 -0.2597,-0.1072 -0.2597,-0.2561 l 0,-0.6111 c 0,-0.1486 0.1088,-0.2559 0.2597,-0.2559 l 0.4276,0 c 0.4026,0 0.6037,0.0496 0.6037,0.5616 0,0.512 -0.2011,0.5615 -0.6037,0.5615 z m 3.998,-0.2476 c 0,0.165 -0.084,0.2476 -0.2515,0.2476 l -1.1738,0 c -0.1592,0 -0.2514,0.0909 -0.2514,0.2477 l 0,0.9249 c 0,0.165 0.0922,0.2477 0.2514,0.2477 l 4.2924,0 c 0.1678,0 0.2514,-0.0827 0.2514,-0.2477 l 0,-0.9249 c 0,-0.1568 -0.0836,-0.2477 -0.2514,-0.2477 l -1.1735,0 c -0.1595,0 -0.2518,-0.0826 -0.2518,-0.2476 l 0,-3.8648 c 0,-0.1568 -0.0835,-0.2477 -0.2514,-0.2477 l -0.939,0 c -0.1592,0 -0.2514,0.0909 -0.2514,0.2477 l 0,3.8648 z m 4.7942,1.6679 c 0.1678,0 0.2517,-0.0827 0.2517,-0.2477 l 0,-5.285 c 0,-0.1568 -0.0839,-0.2477 -0.2517,-0.2477 l -0.9221,0 c -0.1592,0 -0.2514,0.0909 -0.2514,0.2477 l 0,5.285 c 0,0.165 0.0922,0.2477 0.2514,0.2477 l 0.9221,0 z m 4.946,0 c 0.1675,0 0.2514,-0.0827 0.2514,-0.2477 l 0,-0.9249 c 0,-0.1568 -0.0839,-0.2477 -0.2514,-0.2477 l -2.1129,0 c -0.1592,0 -0.2514,-0.0826 -0.2514,-0.2476 l 0,-0.2644 c 0,-0.1568 0.0922,-0.2476 0.2514,-0.2476 l 1.3833,0 c 0.1678,0 0.2518,-0.0827 0.2518,-0.248 l 0,-0.9246 c 0,-0.1571 -0.084,-0.248 -0.2518,-0.248 l -1.3833,0 c -0.1592,0 -0.2514,-0.0823 -0.2514,-0.2476 l 0,-1.6846 c 0,-0.1568 -0.0839,-0.2477 -0.2514,-0.2477 l -0.9893,0 c -0.1592,0 -0.2515,0.0909 -0.2515,0.2477 l 0,5.285 c 0,0.165 0.0923,0.2477 0.2515,0.2477 l 3.605,0 z m 1.9271,0 c 0.1678,0 0.2514,-0.0827 0.2514,-0.2477 l 0,-5.285 c 0,-0.1568 -0.0836,-0.2477 -0.2514,-0.2477 l -0.9221,0 c -0.1595,0 -0.2514,0.0909 -0.2514,0.2477 l 0,5.285 c 0,0.165 0.0919,0.2477 0.2514,0.2477 l 0.9221,0 z m 3.9733,-2.7169 1.8275,-2.7663 c 0.1176,-0.165 0.042,-0.2972 -0.1591,-0.2972 l -1.2574,0 c -0.1342,0 -0.2265,0.0495 -0.3021,0.1653 l -1.0393,1.5689 c -0.0336,0.0495 -0.0839,0.0495 -0.1175,0 l -0.3437,-0.4625 c -0.0253,-0.0332 -0.0336,-0.066 -0.0336,-0.1073 l 0,-0.9167 c 0,-0.1568 -0.0839,-0.2477 -0.2514,-0.2477 l -0.9557,0 c -0.1592,0 -0.2514,0.0909 -0.2514,0.2477 l 0,5.285 c 0,0.165 0.0922,0.2477 0.2514,0.2477 l 0.9557,0 c 0.1675,0 0.2514,-0.0827 0.2514,-0.2477 l 0,-1.66 c 0,-0.0823 0.0586,-0.099 0.1006,-0.0328 l 1.3163,1.7837 c 0.0753,0.1072 0.1675,0.1568 0.3017,0.1568 l 1.2408,0 c 0.2098,0 0.2767,-0.1322 0.1595,-0.3054 l -1.6937,-2.2957 c -0.0249,-0.0413 -0.0336,-0.0744 0,-0.1158 z m 6.404,-2.7827 c 0,-0.1817 -0.084,-0.2808 -0.2515,-0.2808 l -0.939,0 c -0.1592,0 -0.2514,0.0827 -0.2514,0.2477 l 0,0.7186 c 0,0.165 -0.0839,0.2476 -0.2514,0.2476 l -0.7213,0 c -0.1592,0 -0.2514,-0.0826 -0.2514,-0.2476 l 0,-0.7186 c 0,-0.165 -0.084,-0.2477 -0.2515,-0.2477 l -0.939,0 c -0.1592,0 -0.2514,0.0991 -0.2514,0.2808 l 0,3.5014 c 0,1.0404 0.1675,2.1467 2.0539,2.1467 1.8865,0 2.054,-1.1063 2.054,-2.1467 l 0,-3.5014 z m -1.4419,3.5014 c 0,0.3962 -0.0586,0.5943 -0.6121,0.5943 -0.5534,0 -0.612,-0.1981 -0.612,-0.5943 l 0,-0.9004 c 0,-0.1568 0.0922,-0.2476 0.2514,-0.2476 l 0.7213,0 c 0.1675,0.0082 0.2514,0.0908 0.2514,0.2561 l 0,0.8919 z m 3.4109,0.3303 c 0,0.165 -0.0836,0.2476 -0.2514,0.2476 l -1.1739,0 c -0.1591,0 -0.2514,0.0909 -0.2514,0.2477 l 0,0.9249 c 0,0.165 0.0923,0.2477 0.2514,0.2477 l 4.2927,0 c 0.1675,0 0.2515,-0.0827 0.2515,-0.2477 l 0,-0.9249 c 0,-0.1568 -0.084,-0.2477 -0.2515,-0.2477 l -1.1738,0 c -0.1592,0 -0.2514,-0.0826 -0.2514,-0.2476 l 0,-3.8648 c 0,-0.1568 -0.0839,-0.2477 -0.2517,-0.2477 l -0.9388,0 c -0.1595,0 -0.2517,0.0909 -0.2517,0.2477"
       style="fill:#e0dcdd;fill-opacity:1;fill-rule:evenodd;stroke:none"
       id="path48" /><path
       d="m 70.8977,30.6963 2.2125,-4.4152 4.9467,-0.7081 -3.5794,-3.4368 0.8445,-4.8531 -4.4243,2.2914 -4.4249,-2.2911 0.8452,4.8531 -3.5791,3.4368 4.9467,0.7078"
       style="fill:#44bb56;fill-opacity:1;fill-rule:evenodd;stroke:none"
       id="path50" /><path
       d="m 87.0249,30.6963 2.2121,-4.4152 4.9471,-0.7081 -3.5798,-3.4368 0.8449,-4.8531 -4.4246,2.2914 -4.4246,-2.2911 0.8452,4.8531 -3.5791,3.4371 4.9467,0.7075"
       style="fill:#44bb56;fill-opacity:1;fill-rule:evenodd;stroke:none"
       id="path52" /><path
       d="m 103.3692,30.6963 2.2125,-4.4152 4.9467,-0.7081 -3.5798,-3.4368 0.8449,-4.8531 -4.4243,2.2914 -4.4249,-2.2911 0.8452,4.8531 -3.5791,3.4371 4.9467,0.7075"
       style="fill:#44bb56;fill-opacity:1;fill-rule:evenodd;stroke:none"
       id="path54" /><path
       d="m 119.574,30.6963 2.2124,-4.4152 4.9468,-0.7081 -3.5798,-3.4368 0.8448,-4.8531 -4.4245,2.2914 -4.4246,-2.2911 0.8451,4.8531 -3.579,3.4371 4.9467,0.7075"
       style="fill:#44bb56;fill-opacity:1;fill-rule:evenodd;stroke:none"
       id="path56" /><path
       d="m 135.7788,30.6963 2.2121,-4.4152 4.947,-0.7081 -3.5797,-3.4368 0.8448,-4.8531 -4.4246,2.2914 -4.4245,-2.2911 0.8451,4.8531 -3.5791,3.4371 4.9468,0.7075"
       style="fill:#44bb56;fill-opacity:1;fill-rule:evenodd;stroke:none"
       id="path58" /><path
       d="m 49.1099,64.1736 -4.1685,-0.9003 c -0.7313,-0.144 -1.0969,0.18 -1.2065,0.9003 -0.2561,1.477 -1.4629,2.4131 -3.1815,2.4131 -1.4259,0 -2.3033,-0.8282 -2.1571,-1.6567 0.5118,-2.809 12.0666,-2.7372 12.0666,-11.0208 0,-1.0804 -1.2435,-7.4554 -9.9095,-7.4554 -7.6786,0 -9.324,4.9701 -9.5068,7.7795 -0.0366,0.6484 0.2927,1.0446 0.9507,1.1886 l 4.1319,0.9004 c 0.7313,0.144 1.1335,-0.1801 1.2068,-0.9364 0.1462,-1.7289 1.4992,-2.7372 3.2174,-2.7372 1.7919,0 3.1083,1.0443 2.8888,2.0169 -0.6946,3.0612 -11.7009,2.377 -11.7009,10.6606 -0.0363,1.0805 0.6217,7.4555 8.8121,7.4555 7.5325,0 9.2877,-4.8262 9.5072,-7.4194 0.0366,-0.6481 -0.2927,-1.0444 -0.9507,-1.1887 z m 9.1062,8.0318 c 0.7313,0 1.0969,-0.3602 1.0969,-1.0805 l 0,-23.0502 c 0,-0.6845 -0.3656,-1.0807 -1.0969,-1.0807 l -4.0223,0 c -0.6947,0 -1.0969,0.3962 -1.0969,1.0807 l 0,23.0502 c 0,0.7203 0.4022,1.0805 1.0969,1.0805 l 4.0223,0 z m 4.3883,-17.1075 0,9.0039 c 0,2.377 0.5121,8.752 9.1778,8.752 7.7885,0 8.9953,-5.1506 9.1415,-7.9238 0.0366,-0.5041 -0.2927,-0.9004 -0.8045,-1.0083 l -4.0586,-0.9003 c -0.7679,-0.144 -1.353,0.3601 -1.4629,1.1165 -0.1828,1.5846 -0.8408,2.521 -2.8155,2.521 -2.7056,0 -2.8885,-1.6928 -2.8885,-4.4661 l 0,-5.1863 c 0,-2.7732 0.1829,-4.4661 2.8885,-4.4661 2.0113,1e-4 2.5597,0.9365 2.7792,2.5932 0.1095,0.7564 0.6946,1.2248 1.4259,1.0447 l 4.1319,-0.9004 c 0.5118,-0.1082 0.8411,-0.5044 0.8045,-1.0446 -0.1462,-2.7372 -1.353,-7.8875 -9.1415,-7.8875 -8.6657,0 -9.1778,6.3747 -9.1778,8.7521 z m 26.0359,17.1075 c 0.6946,0 1.0969,-0.3963 1.0969,-1.0805 l 0,-9.0039 c 0,-0.6845 0.4023,-1.0808 1.0969,-1.0808 l 3.5102,0 c 0.7316,0 1.0972,0.3963 1.0972,1.0808 l 0,9.0039 c 0,0.6843 0.4019,1.0805 1.0969,1.0805 l 4.0952,0 c 0.7313,0 1.0969,-0.3602 1.0969,-1.0805 l 0,-23.0502 c 0,-0.6845 -0.3656,-1.0807 -1.0969,-1.0807 l -4.0952,0 c -0.695,0 -1.0969,0.3962 -1.0969,1.0807 l 0,5.6905 c 0,0.7203 -0.3656,1.0804 -1.0972,1.0804 l -3.5102,0 c -0.6946,0 -1.0969,-0.3601 -1.0969,-1.0804 l 0,-5.6905 c 0,-0.6845 -0.3656,-1.0807 -1.0969,-1.0807 l -4.0952,0 c -0.695,0 -1.0973,0.3962 -1.0973,1.0807 l 0,23.0502 c 0,0.7203 0.366,1.0805 1.0973,1.0805 l 4.0952,0 z m 33.2024,0 c 0.7316,0 1.0973,-0.3602 1.0973,-1.0805 l 0,-4.0337 c 0,-0.6845 -0.3657,-1.0804 -1.0973,-1.0804 l -8.8485,0 c -0.6949,0 -1.0972,-0.3602 -1.0972,-1.0808 l 0,-1.1523 c 0,-0.6845 0.4023,-1.0807 1.0972,-1.0807 l 5.6674,0 c 0.7316,0 1.0972,-0.3602 1.0972,-1.0804 l 0,-4.0338 c 0,-0.6842 -0.3656,-1.0804 -1.0972,-1.0804 l -5.6674,0 c -0.6949,0 -1.0972,-0.3602 -1.0972,-1.0805 l 0,-1.1526 c 0,-0.6842 0.4023,-1.0804 1.0972,-1.0804 l 8.8485,0 c 0.7316,0 1.0973,-0.3601 1.0973,-1.0804 l 0,-4.0338 c 0,-0.7206 -0.3657,-1.0807 -1.0973,-1.0807 l -15.3573,0 c -0.6946,0 -1.0969,0.3962 -1.0969,1.0807 l 0,23.0502 c 0,0.7203 0.4023,1.0805 1.0969,1.0805 l 15.3573,0 z m 19.308,-16.1711 3.8758,-7.0953 c 0.5118,-0.9364 -0.0729,-1.945 -1.2064,-1.945 l -4.1685,0 c -0.3657,0 -0.695,0.18 -0.8412,0.5044 l -3.8029,7.2393 c -0.0729,0.1079 -0.1828,0.1801 -0.2923,0.1801 l -1.4626,0 c -0.6583,0 -1.1335,-0.4684 -1.1335,-1.1165 l 0,-5.6908 c 0,-0.6481 -0.4755,-1.1165 -1.1335,-1.1165 l -4.0953,0 c -0.6583,0 -1.1335,0.4684 -1.1335,1.1165 l 0,22.9784 c 0,0.6484 0.4752,1.1165 1.1335,1.1165 l 8.0077,0 c 6.5085,0 9.1412,-2.7372 9.1412,-8.6438 0,-3.3496 -0.8408,-5.6905 -2.7789,-7.0592 -0.1462,-0.108 -0.1828,-0.288 -0.1096,-0.4681 z m -6.0333,9.9765 -1.8648,0 c -0.6583,0 -1.1335,-0.4684 -1.1335,-1.1165 l 0,-2.6654 c 0,-0.6481 0.4752,-1.1165 1.1335,-1.1165 l 1.8648,0 c 1.7553,0 2.6328,0.2162 2.6328,2.4492 0,2.233 -0.8775,2.4492 -2.6327,2.4492"
       style="fill:#e0dcdd;fill-opacity:1;fill-rule:evenodd;stroke:none"
       id="path60" /><path
       d="M 48.2224,65.1973 44.0539,64.297 c -0.7312,-0.144 -1.0969,0.18 -1.2068,0.9003 -0.2557,1.4767 -1.4625,2.4131 -3.1811,2.4131 -1.4259,0 -2.3034,-0.8282 -2.1572,-1.6567 0.5118,-2.8093 12.0663,-2.7372 12.0663,-11.0208 0,-1.0804 -1.2431,-7.4555 -9.9091,-7.4555 -7.6787,0 -9.324,4.9702 -9.5068,7.7796 -0.0367,0.6484 0.2923,1.0443 0.9507,1.1886 l 4.1318,0.9004 c 0.7313,0.144 1.1336,-0.1801 1.2065,-0.9365 0.1465,-1.7288 1.4992,-2.7371 3.2178,-2.7371 1.7919,0 3.1082,1.0443 2.8888,2.0169 -0.6947,3.0612 -11.701,2.377 -11.701,10.6606 -0.0366,1.0804 0.6217,7.4554 8.8122,7.4554 7.5324,0 9.2877,-4.8261 9.5071,-7.4193 0.0363,-0.6485 -0.2927,-1.0444 -0.9507,-1.1887 z m 9.1059,8.0318 c 0.7316,0 1.0972,-0.3602 1.0972,-1.0805 l 0,-23.0505 c 0,-0.6842 -0.3656,-1.0804 -1.0972,-1.0804 l -4.022,0 c -0.6946,0 -1.0969,0.3962 -1.0969,1.0804 l 0,23.0505 c 0,0.7203 0.4023,1.0805 1.0969,1.0805 l 4.022,0 z m 4.3886,-17.1079 0,9.0043 c 0,2.377 0.5118,8.7517 9.1778,8.7517 7.7886,0 8.995,-5.1503 9.1415,-7.9235 0.0363,-0.5041 -0.2927,-0.9004 -0.8045,-1.0083 l -4.0589,-0.9003 c -0.7676,-0.1444 -1.3527,0.3601 -1.4625,1.1165 -0.1829,1.5845 -0.8409,2.521 -2.8156,2.521 -2.7056,0 -2.8884,-1.6928 -2.8884,-4.4661 l 0,-5.1863 c 0,-2.7733 0.1828,-4.4661 2.8884,-4.4661 2.0114,0 2.5598,0.9365 2.7789,2.5932 0.1099,0.7564 0.695,1.2248 1.4263,1.0447 l 4.1318,-0.9007 c 0.5118,-0.1079 0.8408,-0.5041 0.8045,-1.0443 -0.1465,-2.7372 -1.3529,-7.8875 -9.1415,-7.8875 -8.666,0 -9.1778,6.3747 -9.1778,8.7517 z m 26.036,17.1079 c 0.6946,0 1.0969,-0.3963 1.0969,-1.0805 l 0,-9.0042 c 0,-0.6842 0.4022,-1.0805 1.0969,-1.0805 l 3.5101,0 c 0.7313,0 1.0969,0.3963 1.0969,1.0805 l 0,9.0042 c 0,0.6842 0.4023,1.0805 1.0972,1.0805 l 4.0953,0 c 0.7313,0 1.0969,-0.3602 1.0969,-1.0805 l 0,-23.0505 c 0,-0.6842 -0.3656,-1.0804 -1.0969,-1.0804 l -4.0953,0 c -0.6949,0 -1.0972,0.3962 -1.0972,1.0804 l 0,5.6908 c 0,0.7203 -0.3656,1.0804 -1.0969,1.0804 l -3.5101,0 c -0.6947,0 -1.0969,-0.3601 -1.0969,-1.0804 l 0,-5.6908 c 0,-0.6842 -0.3657,-1.0804 -1.0969,-1.0804 l -4.0956,0 c -0.6947,0 -1.0969,0.3962 -1.0969,1.0804 l 0,23.0505 c 0,0.7203 0.3656,1.0805 1.0969,1.0805 l 4.0956,0 z m 33.2024,0 c 0.7313,0 1.0969,-0.3602 1.0969,-1.0805 l 0,-4.0337 c 0,-0.6846 -0.3656,-1.0808 -1.0969,-1.0808 l -8.8488,0 c -0.6947,0 -1.0969,-0.3601 -1.0969,-1.0804 l 0,-1.1526 c 0,-0.6842 0.4023,-1.0804 1.0969,-1.0804 l 5.6676,0 c 0.7313,0 1.0969,-0.3602 1.0969,-1.0805 l 0,-4.0337 c 0,-0.6842 -0.3656,-1.0804 -1.0969,-1.0804 l -5.6676,0 c -0.6947,0 -1.0969,-0.3602 -1.0969,-1.0805 l 0,-1.1526 c 0,-0.6842 0.4023,-1.0804 1.0969,-1.0804 l 8.8488,0 c 0.7313,0 1.0969,-0.3601 1.0969,-1.0804 l 0,-4.0341 c 0,-0.7203 -0.3656,-1.0804 -1.0969,-1.0804 l -15.3573,0 c -0.6946,0 -1.0969,0.3962 -1.0969,1.0804 l 0,23.0505 c 0,0.7203 0.4023,1.0804 1.0969,1.0804 l 15.3573,0 0,1e-4 z m 19.308,-16.1714 3.8758,-7.095 c 0.5118,-0.9364 -0.0733,-1.945 -1.2068,-1.945 l -4.1682,0 c -0.3656,0 -0.6949,0.18 -0.8411,0.5044 l -3.8029,7.239 c -0.0729,0.1082 -0.1828,0.1801 -0.2924,0.1801 l -1.4625,0 c -0.6584,0 -1.1335,-0.4681 -1.1335,-1.1166 l 0,-5.6904 c 0,-0.6482 -0.4756,-1.1165 -1.1336,-1.1165 l -4.0952,0 c -0.6583,0 -1.1335,0.4683 -1.1335,1.1165 l 0,22.9783 c 0,0.6482 0.4752,1.1165 1.1335,1.1165 l 8.0076,0 c 6.5085,0 9.1412,-2.7371 9.1412,-8.6437 0,-3.3496 -0.8408,-5.6908 -2.7789,-7.0592 -0.1461,-0.1083 -0.1828,-0.2884 -0.1095,-0.4684 z m -6.0333,9.9764 -1.8648,0 c -0.6584,0 -1.1335,-0.468 -1.1335,-1.1165 l 0,-2.665 c 0,-0.6484 0.4751,-1.1165 1.1335,-1.1165 l 1.8648,0 c 1.7549,0 2.6327,0.2161 2.6327,2.4492 0,2.233 -0.8778,2.4488 -2.6327,2.4488"
       style="fill:#44bb56;fill-opacity:1;fill-rule:evenodd;stroke:none"
       id="path62" /><path
       d="m 144.8607,73.1959 0.5907,0 0.5275,-1.4566 0.5315,1.4566 0.5871,0 0,-2.0346 -0.379,0 0,1.6417 -0.5714,-1.6417 -0.3307,0 -0.5767,1.6417 0,-1.6417 -0.379,0 0,2.0346 z m -1.4359,-0.3394 -0.6753,0 0,0.3394 1.7609,0 0,-0.3394 -0.6753,0 0,-1.6952 -0.4103,0"
       style="fill:#e0dcdd;fill-opacity:1;fill-rule:evenodd;stroke:none"
       id="path64" /><path
       id="rect8239"
       transform="matrix(0.8,0,0,-0.8,0,116.22)"
       d="M 53.697266 20.308594 C 36.219336 20.308594 22.150391 34.379492 22.150391 51.857422 L 22.150391 72.853516 C 22.150391 90.331445 36.219336 104.40234 53.697266 104.40234 L 180.97266 104.40234 L 180.97266 96.216797 L 53.775391 96.216797 C 40.848064 96.216797 30.441406 85.810142 30.441406 72.882812 L 30.441406 51.828125 C 30.441406 38.900798 40.848064 28.494141 53.775391 28.494141 L 192.77148 28.494141 C 195.70463 25.152275 199.26732 22.364392 203.28125 20.308594 L 53.697266 20.308594 z "
       style="fill:#e0dcdd;fill-opacity:1;stroke:none;stroke-width:0.80000001;stroke-opacity:1" /></g></svg>